<svg id="Capa_1" data-name="Capa 1" xmlns="http://www.w3.org/2000/svg" xmlns:xlink="http://www.w3.org/1999/xlink" viewBox="0 0 589 688"><defs><style>.cls-1{fill:url(#Degradado_sin_nombre_9);}</style><linearGradient id="Degradado_sin_nombre_9" x1="389.52" y1="381.97" x2="945.34" y2="381.97" gradientUnits="userSpaceOnUse"><stop offset="0" stop-color="#fff"/><stop offset="0" stop-color="#ff5b00"/></linearGradient></defs><title>leon negro blanco svg</title><path d="M966,725H377V37H966ZM544.36,664.48V625.93c1.35.22,2.63,0,3.2.58,13.36,12.82,26.73,25.64,39.86,38.69,1.78,1.77,2,5,3.49,7.18,2.28,3.19,4.68,6.61,7.81,8.8,4,2.8,8.77,4.51,13.24,6.64,7,3.32,14,6.61,22,10.43-.91-9-1.49-16.63-2.49-24.22-1.27-9.67-2.83-19.19,7.27-25.7,1.73-1.11,2.49-3.66,3.85-5.43,7.77-10.16,15.59-20.29,23.53-30.62a8.49,8.49,0,0,1,1.84,1.28c11.47,14.51,22.95,29,34.25,43.64.82,1.06.42,3.19.29,4.8-.95,11.74-2,23.47-3.09,36.82,14.78-7.09,28.15-13.42,41.4-20,1.24-.62,2.32-2.79,2.41-4.29.42-7.35,5.83-11.22,10.39-15.68,4.22-4.14,8.56-8.15,12.85-12.22l22.09-21v38.08l1.76,1,40-60.66,20.36,26.22c2.68-15.52,5.09-29.48,7.51-43.44l2.56.2q1.43,8,2.86,15.94h1.42l19.59-77.31,20.79,26.11,1.18-.44q-13.89-54-27.77-108.06l1.18-.38,33.59,36.59c0-20.82-.53-40.95.23-61,.36-9.55-2.77-16-10.37-21.18-2.28-1.54-5.15-4.25-5.26-6.55-.3-6.29.72-12.64,1.27-19.7l45.82,20.88a56.33,56.33,0,0,0-.7-6.33c-5.27-22.61-10.78-45.17-15.85-67.82-3.35-15-5.64-30.26-9.3-45.18-1.45-5.91-5.06-11.36-8.12-16.78-4-7-8.42-13.81-13.28-21.71l30.75,1.83c-1.16-2.84-1.84-4.65-2.63-6.4-9.4-21-18.48-42.11-28.44-62.82a47.42,47.42,0,0,0-13-16.45c-11.9-9.25-24.67-17.39-37.32-25.62a11.8,11.8,0,0,0-8.1-1.17c-7.83,1.68-15.51,4-25,6.58,8.08-11.81,15.11-22.07,22.76-33.26l-63-10.5,32-20.34c-34.33,2.12-67.88,5.51-101.38,9.33a13.89,13.89,0,0,0-8.66,5.42c-8.29,12-16,24.39-24,36.55-1.53,2.33-3.68,4.25-5.76,6.6-9.13-14.28-18.1-27.59-26.21-41.41-3.08-5.25-6.89-7.14-12.43-7.67-25-2.4-49.91-5-74.87-7.43-8.16-.8-16.36-1.3-26.59-2.09l32.9,19.94-.61,2-60,10.07c7.43,11.46,14.11,21.74,21.6,33.28-9.37-2.41-16.7-4.8-24.22-6a17.11,17.11,0,0,0-10.64,2.26c-9.49,5.78-18.52,12.32-27.79,18.47-9.76,6.46-17.7,13.72-22.24,25.49-8.2,21.26-18.38,41.75-27.79,62.68h30.36c-3.87,6.4-7.27,11.73-10.37,17.23-3.83,6.78-8.92,13.31-10.81,20.64-6.13,23.69-11,47.71-16.41,71.6-3.46,15.32-7,30.63-10.76,47.23L435,369.88c2.87,13.89,5.9,26.67-10.34,33.44-1.19.5-2.23,2.83-2.29,4.34-.9,23.15-1.63,46.3-2.46,71.26,12.33-13.46,23.56-25.71,34.79-37.95l1.57.78q-13.08,51.5-26.15,103l1.27.46,18.14-20.73c7.13,26.35,13.8,51,20.71,76.59,1.27-5.74,2.31-10.42,3.34-15.1l1.61.1c3.11,13.77,6.23,27.54,9.5,42,6.36-8.21,12.44-16.06,19-24.51Z" transform="translate(-377 -37)"/><path class="cls-1" d="M544.36,664.48l-40.7-60.94c-6.56,8.45-12.64,16.3-19,24.51-3.27-14.47-6.39-28.24-9.5-42l-1.61-.1c-1,4.68-2.07,9.36-3.34,15.1-6.91-25.55-13.58-50.24-20.71-76.59l-18.14,20.73-1.27-.46q13.07-51.48,26.15-103l-1.57-.78c-11.23,12.24-22.46,24.49-34.79,37.95.83-25,1.56-48.11,2.46-71.26.06-1.51,1.1-3.84,2.29-4.34,16.24-6.77,13.21-19.55,10.34-33.44L389.52,390c3.78-16.6,7.3-31.91,10.76-47.23,5.39-23.89,10.28-47.91,16.41-71.6,1.89-7.33,7-13.86,10.81-20.64,3.1-5.5,6.5-10.83,10.37-17.23H407.51c9.41-20.93,19.59-41.42,27.79-62.68,4.54-11.77,12.48-19,22.24-25.49,9.27-6.15,18.3-12.69,27.79-18.47A17.11,17.11,0,0,1,496,124.43c7.52,1.2,14.85,3.59,24.22,6-7.49-11.54-14.17-21.82-21.6-33.28l60-10.07.61-2-32.9-19.94c10.23.79,18.43,1.29,26.59,2.09,25,2.43,49.91,5,74.87,7.43,5.54.53,9.35,2.42,12.43,7.67,8.11,13.82,17.08,27.13,26.21,41.41,2.08-2.35,4.23-4.27,5.76-6.6,8-12.16,15.68-24.58,24-36.55a13.89,13.89,0,0,1,8.66-5.42c33.5-3.82,67-7.21,101.38-9.33l-32,20.34,63,10.5c-7.65,11.19-14.68,21.45-22.76,33.26,9.54-2.56,17.22-4.9,25-6.58a11.8,11.8,0,0,1,8.1,1.17c12.65,8.23,25.42,16.37,37.32,25.62a47.42,47.42,0,0,1,13,16.45c10,20.71,19,41.84,28.44,62.82.79,1.75,1.47,3.56,2.63,6.4L898.09,234c4.86,7.9,9.29,14.68,13.28,21.71,3.06,5.42,6.67,10.87,8.12,16.78,3.66,14.92,6,30.17,9.3,45.18,5.07,22.65,10.58,45.21,15.85,67.82a56.33,56.33,0,0,1,.7,6.33l-45.82-20.88c-.55,7.06-1.57,13.41-1.27,19.7.11,2.3,3,5,5.26,6.55,7.6,5.17,10.73,11.63,10.37,21.18-.76,20.08-.23,40.21-.23,61l-33.59-36.59-1.18.38q13.89,54,27.77,108.06l-1.18.44-20.79-26.11-19.59,77.31h-1.42q-1.42-8-2.86-15.94l-2.56-.2c-2.42,14-4.83,27.92-7.51,43.44L830.38,604l-40,60.66-1.76-1V625.59l-22.09,21c-4.29,4.07-8.63,8.08-12.85,12.22-4.56,4.46-10,8.33-10.39,15.68-.09,1.5-1.17,3.67-2.41,4.29-13.25,6.57-26.62,12.9-41.4,20,1.13-13.35,2.14-25.08,3.09-36.82.13-1.61.53-3.74-.29-4.8-11.3-14.64-22.78-29.13-34.25-43.64a8.49,8.49,0,0,0-1.84-1.28c-7.94,10.33-15.76,20.46-23.53,30.62-1.36,1.77-2.12,4.32-3.85,5.43-10.1,6.51-8.54,16-7.27,25.7,1,7.59,1.58,15.25,2.49,24.22-8.06-3.82-15.05-7.11-22-10.43-4.47-2.13-9.24-3.84-13.24-6.64-3.13-2.19-5.53-5.61-7.81-8.8-1.53-2.14-1.71-5.41-3.49-7.18-13.13-13.05-26.5-25.87-39.86-38.69-.57-.55-1.85-.36-3.2-.58ZM753.28,429.76c4.87-13.18-3-20.88-10.88-27.41-3.65-3-12.22-5.4-14.81-3.34-7.88,6.26-13.88,14.87-20.72,22.47-5,5.61-6,14.87-15.55,16.53-6.08,1.06-12,3.36-18,4.39-13.14,2.23-24.57-4-36.34-8.22-1.55-.55-3-2.68-3.59-4.39-3.84-11.58-12-19.54-21.21-27-7.3-5.87-16.32-5.41-22.49,1.88-2.52,3-6.59,5-8.18,8.3-1.84,3.84-2.29,8.65-2.09,13,0,1.23,4.43,3.05,6.92,3.22,6.6.45,13.25.15,19.87.15-7.26,4.3-14.6,6.49-21.69,9.31-2,.78-4.27,3.29-4.54,5.26-1.68,12.44,5.51,17.72,17.19,12.94,3.57-1.46,7.08-3,10.62-4.54l.72.73-10.33,11.62c3.36,5.45,6.25,10.15,8.47,13.77,20.27-3.69,40.67-10.31,61.07-10.3s40.63,6.69,60.46,10.35l8.3-13.64c-3-3.47-6.67-7.69-10.34-11.92a28.09,28.09,0,0,1,9.38,3.68c5.49,3.09,10.54,4.67,15.63-1.23,5.63-6.51,3.51-16.66-4.54-19-6.2-1.83-12.47-3.44-18.71-5.15l.35-1.45ZM413.14,229.49c51.72.06,100.47-10.17,149.22-22.07-12.72-7.74-25.63-14.42-38.33-21.5-3.54-2-7.48-4.49-9.42-7.82-5.19-8.89-9.26-18.44-14-27.59-3.69-7-7.77-13.89-11.69-20.86-11.09,7.22-21.45,13.89-31.74,20.68C449,155.74,442.7,162.53,439,172c-4.3,11-10,21.45-14.93,32.22C420.39,212.29,417,220.46,413.14,229.49Zm359.09-22.24c49.39,12.45,97.6,20.64,147.89,21.64-4.59-9.53-9.11-18.72-13.45-28-6.17-13.16-12.09-26.44-18.39-39.53a16.05,16.05,0,0,0-5.41-5.83c-12.23-8.31-24.6-16.4-38-25.29-7.43,14.49-15.23,28.38-21.69,42.86-3.34,7.51-8.6,11.34-15.46,14.77C796.08,193.67,784.86,200.29,772.23,207.25Zm-234,437.31c.56-1.34.91-1.77.9-2.2-1.27-51.65-3.19-103.3-3.47-154.95-.07-13.72-6-23-13.68-32.93-6.71,5.14-13.16,10.13-19.65,15.06-5,3.75-7.63,8.51-8.74,14.81-3.85,22-8.46,43.85-12.15,65.86a20.46,20.46,0,0,0,2.63,13.07c14.21,22.61,28.91,44.91,43.59,67.22C530.74,635.16,534.38,639.45,538.25,644.56ZM811.82,455c-6.13,7.77-12.06,15.22-12.28,26-1.09,53.41-2.56,106.82-3.87,160.22a9.81,9.81,0,0,0,.69,2.54c5.72-8,11.31-15.47,16.42-23.22,9.11-13.81,17.89-27.83,26.88-41.71.9-1.39,2.59-2.3,3.34-3.73,3.59-6.85,10.71-14.34,9.8-20.61-3.8-26.07-9.95-51.81-15.52-77.6-.51-2.37-2.66-4.77-4.68-6.37C826.05,465.33,819.2,460.48,811.82,455ZM704.54,649.75c1.16-7.77,2.18-13.58,2.89-19.42,2.29-19.1,7-38.22-1.19-57.16-2.6-6-4.69-12.33-6.71-18.6-2.9-9-9.57-10.61-16.55-3.88-3.93,3.79-7.91,7.52-12,11.1-2.78,2.43-5.14,2.53-8.06-.71a87.22,87.22,0,0,0-13.72-12.24c-5.83-4.19-13.63-2.29-15.22,4.46-4.32,18.36-13.55,35.81-9.62,55.81,2.49,12.68,3.29,25.69,5.09,40.57l37.88-47.57C679.33,617.51,691.32,632.85,704.54,649.75ZM514.77,254.18l-.28-2.48c-8.47,0-17.29-1.52-25.37.29-21.52,4.81-42.75,10.94-64,16.91a9.28,9.28,0,0,0-5.46,5.62c-5,19.15-9.58,38.39-14.06,57.66-3.1,13.29-5.89,26.65-8.65,40-.7,3.41-.74,6.95-1.17,11.28,12.79-5.9,24.28-11.1,35.63-16.56a12.48,12.48,0,0,0,5.36-4.77q5.36-9.67,9.9-19.79c8.91-19.85,17.6-39.8,26.5-59.66a12,12,0,0,1,3.93-5.13C489.57,269.64,502.19,261.94,514.77,254.18Zm306.39-.37c7.92,4.86,15.48,9,22.51,13.95,6.57,4.6,15.07,8.74,18.37,15.28,10.9,21.61,19.64,44.29,29.65,66.36,2.57,5.67,5.56,12.55,10.41,15.5,10.83,6.57,22.94,11,36.46,17.22-4.06-15.82-8-29.71-11.15-43.79-4.45-20.09-8.35-40.31-12.36-60.5-.92-4.59-3.07-7.14-7.9-8.37-13.7-3.49-27.19-7.78-40.86-11.35C851.83,254.33,837.57,248.05,821.16,253.81ZM544.29,70.7c7.94,4.56,14.77,7.84,20.87,12.15,7.59,5.36,16.16,10.41,21.44,17.68,7.44,10.25,12.3,22.4,18.17,33.77,8.5,16.45,16.85,33,25.47,49.36,1,2,3.35,3.21,5.06,4.79,1.28-1.67,2.89-3.18,3.77-5q7.26-15.3,14.21-30.76a208.46,208.46,0,0,0,8.13-19.95,10.91,10.91,0,0,0-1.21-8.05c-7.29-12-14.91-23.79-22.6-35.52-3.74-5.7-8.58-9.4-16.05-9.75-9.39-.45-18.72-2-28.08-3.12C577.61,74.46,561.75,72.68,544.29,70.7Zm242.07.73c-27.87,3.1-54.48,6-81.07,9.16a8.24,8.24,0,0,0-5.11,3.47c-8.69,13.49-17.37,27-25.47,40.84-1.49,2.54-1.45,7.11-.23,9.92,6.3,14.52,13.22,28.77,19.89,43.14,1.39,3,2.62,6.11,4.48,10.46,3.25-4.18,6.13-6.95,7.91-10.3,13.39-25.24,26.46-50.65,40-75.85a28.59,28.59,0,0,1,8.32-9C764.92,86,775.14,79.18,786.36,71.43Zm-64.62,321c-4.62-10.57-9.38-20-12.93-30-3.36-9.35-9.37-15.25-18.37-18.83-6.21-2.47-12.06-5.91-18.37-8a16.14,16.14,0,0,0-10.3.22c-9.19,3.64-18.13,8-27,12.34a11.78,11.78,0,0,0-4.83,5.07c-5.27,10.6-10.45,21.25-15.22,32.09-1.09,2.49-1.73,6.81-.36,8.46,3.5,4.25,8.24,7.47,12.76,11.33,12.07-6.85,23.77-13.8,35.82-20.06,2.47-1.29,6.77-1,9.37.29,8.19,4.06,16,8.84,23.9,13.54,11.58,6.92,11.52,7,20.85-2.24C718.8,394.91,720.68,393.35,721.74,392.4ZM598.47,183c4.32.79,7.49,1.06,10.45,2,3.52,1.11,6.81,3,10.33,4.1,1.63.53,3.55.14,5.34.16-.09-1.76.36-3.81-.38-5.25-3-5.86-6.62-11.43-9.61-17.3-9.77-19.13-19.37-38.33-29-57.51-6.47-12.89-17-18.36-31-16-2,.33-3.94.51-5.9.81l-42.57,6.65c7.58,11,14.49,21.07,21.52,31.06a6.09,6.09,0,0,0,3.15,1.79c11.16,3.3,22.46,6.19,33.46,9.93a23.29,23.29,0,0,1,10.29,7.2C583.2,161.56,591.24,173.07,598.47,183Zm137.55,2c4.29-6.45,9.92-14.81,15.42-23.26,6.95-10.65,14.35-20.22,28.59-21.75,6.78-.73,13.59-3.07,19.89-5.82A28.05,28.05,0,0,0,811,125.34c5.58-7.68,10.17-16.09,15.42-24.6-17.3-2.73-34.39-5.43-51.49-8.1-8.4-1.32-19.75,4.47-23.69,12.17-9,17.6-17.87,35.27-26.92,52.84-4.38,8.53-9.16,16.86-13.47,25.43-.84,1.67-.33,4-.45,6.07a37.54,37.54,0,0,0,6.13-.84c3.06-.92,5.93-2.62,9-3.27C728.27,184.48,731.16,184.93,736,184.93ZM441.36,388.67c2.32-.84,4.09-1.06,5.32-2q18-13.65,35.74-27.55c2.67-2.11,5.56-4.5,7.07-7.42,6.12-11.83,11.68-23.94,17.59-35.88,2.16-4.35,4.84-8.44,7.08-12.76,4.37-8.41,8.61-16.79,4.4-26.76-1.39-3.27-2.57-5-6.44-3.81-9.46,2.93-19.15,5.2-28.44,8.6a16,16,0,0,0-8.24,7.52c-9.89,21.3-17.91,43.59-29.34,64C439.44,364.5,440.4,375.39,441.36,388.67ZM615.93,520.79l-1.85.91c-7.93,27.24-15.31,54.67-24,81.66-4.86,15.06-5.27,29.29.13,44.11,2.53,6.95,3.55,14.44,5.36,21.66.47,1.87.85,4.65,2.14,5.3,9.34,4.72,18.91,9,30.28,14.29-3.43-30.76-6.61-59.6-9.89-88.43-.29-2.57-2.2-5.36-1.59-7.57,3.46-12.59,7.49-25,11.24-37.54a7.29,7.29,0,0,0,.19-4.32C624,540.79,620,530.8,615.93,520.79ZM707,688.5c8.47-3.91,15.92-6.71,22.64-10.73a19.2,19.2,0,0,0,7.83-9.57c4.1-12.32,7.51-24.89,10.63-37.5a25.18,25.18,0,0,0-.11-12.17c-4.55-16.57-9.72-33-14.53-49.47-3.39-11.66-6.4-23.43-9.92-35-1-3.23-3.15-6.1-5-9.56-3.44,8-6.86,14.84-9.27,22-1.31,3.89-2.36,8.87-1.07,12.49,8.25,23.26,9.27,46.61,4.95,70.9C709.82,648.79,709.06,668.19,707,688.5ZM816.19,271.16c0,7.7-1.93,15.14.36,20.89,6.75,16.92,14.84,33.34,23.13,49.59a59.87,59.87,0,0,0,12.38,16.07c7.21,6.72,15.33,12.46,23.18,18.46,4.91,3.75,10.06,7.19,14.93,10.66,4.42-13.51,1.53-25.23-4.27-37.07-8.43-17.23-15.52-35.13-23.81-52.44-3.8-7.92-7.32-16.44-18.1-18.36C835.31,277.41,826.92,274.25,816.19,271.16Zm-283.13,119c-2.28,2.9-4.41,5.22-6.08,7.83q-8.57,13.4-16.83,27c-14.42,23.62-28.74,47.3-43.17,70.91-2.56,4.18-5.84,8-8.11,12.28-2.09,4-5.32,8.92-4.52,12.67,3.86,18.09,8.9,35.92,13.59,53.82.19.73,1.1,1.26,1.62,1.82,3.65-15.17,7.59-29.87,10.66-44.74,3.76-18.21,6.72-36.58,10.2-54.85.49-2.57,1.24-5.85,3.06-7.26,12.46-9.67,25.32-18.82,37.9-28.35,8.39-6.35,16.51-13.07,25.11-19.91C548.61,410.83,541.24,401,533.06,390.12Zm98.7-97c5.88-8.26,11.55-15.93,16.8-23.89,1-1.49.83-4.27.26-6.19q-5.33-18.21-11.2-36.28a10.65,10.65,0,0,0-3.82-4.88,87.47,87.47,0,0,0-12.55-8C612,209.37,604,201.57,591.71,205c-6.49,1.81-8.09,4.21-6.58,10.15C589.42,232,593.25,249,598,265.67c1.17,4.12,4.6,8.28,8.11,10.91C613.64,282.2,621.88,286.84,631.76,293.11ZM423.32,464.36l3,1.28,94-103.78-1-2c-7.07-.34-14.22-.12-21.18-1.2-5.53-.86-9.23,1-13.34,4.26-12.55,10-25.2,20-38.27,29.33-9.77,7-20.52,11.87-20.07,27.23C426.82,434.38,424.46,449.39,423.32,464.36Zm329.2-258.72c-10.71-.45-19.35-3.21-28,2.92-6.81,4.8-15,7.6-22.22,11.89a14.51,14.51,0,0,0-5.56,7.2c-3,8.16-4.08,17.21-8.16,24.68-5.08,9.31-6.22,16.38,2.27,24.3,4.72,4.4,7.59,10.79,11.37,16.38,8.29-4.81,15.6-9.39,23.22-13.36,6-3.12,9.56-7.41,10.4-14.19a71.84,71.84,0,0,1,2.53-10.86C742.91,238.64,747.57,222.7,752.52,205.64ZM863.91,574.46l1.59-.24c.3-1.19.58-2.39.91-3.58,4.37-15.67,8.83-31.32,13.05-47,.67-2.46,1.3-5.88.15-7.74-7.07-11.47-15-22.44-22-33.91-14.37-23.29-28.32-46.83-42.61-70.17-4.28-7-9.08-13.69-14-21L778.6,421.18c21.08,16.5,41.36,32.27,61.45,48.27a13.09,13.09,0,0,1,4.2,7.06c2.61,12.37,4.64,24.87,7.13,37.27C855.45,534,859.72,554.24,863.91,574.46ZM607.15,486.74c-.76,6.31,2.26,9.27,6.79,11.83,9.68,5.47,18.66,12.43,28.75,16.91,15.4,6.82,32.42,5.77,47.68,1.29,12.11-3.55,22.61-12.87,33.45-20.18,2.12-1.44,3.13-5.37,3.41-8.27.09-1-3.35-2.78-5.42-3.59a49.45,49.45,0,0,0-10.67-3.16c-7.45-1.09-15.22-3.23-22.42-2.11-16,2.49-31.58,1.54-47.28-1.3a18.11,18.11,0,0,0-8.06.09C624.62,480.82,616,483.84,607.15,486.74Zm-171.3,43.9,2.12.86c3.09-4.33,6.45-8.5,9.21-13,9.54-15.64,18.82-31.42,28.28-47.1q9.38-15.53,19-30.94c10.66-17.17,21.46-34.25,32-51.5,1.08-1.77,1.59-4.95.72-6.61-2-3.87-5-7.2-7.41-10.47-4.88,4.61-9.72,8.79-14.1,13.41q-15,15.83-29.64,32.05c-4.12,4.6-8.8,9.22-11.19,14.71-3.81,8.79-6.18,18.25-8.71,27.54-3.59,13.18-6.51,26.54-10.21,39.68C442.9,509.81,439.21,520.18,435.85,530.64Zm377.43-170.2,93.58,102.62c0-11.44-.7-22.17.16-32.76,1.33-16.37-2.87-28.26-18.32-37.22-15.05-8.72-28-21-42-31.64a10.57,10.57,0,0,0-6-2.38C832.39,359.21,824.05,359.84,813.28,360.44Zm80.85,167.42,1.3-.76c-1.27-3.85-2.75-7.64-3.79-11.54-7.21-26.94-14.27-53.92-21.54-80.84a19.82,19.82,0,0,0-4-7.79q-18.9-21.24-38.21-42.12c-4.06-4.41-8.65-8.32-13-12.43a7,7,0,0,0-.83.68c-5.74,6.77-11,12.78-2.18,21.94,5.48,5.69,7.86,14.25,12.21,21.17,13.2,21,26.83,41.72,40,62.73,9.7,15.47,18.95,31.23,28.41,46.84A22.11,22.11,0,0,0,894.13,527.86ZM654.25,271.32c-4.92,7.05-9.44,13.77-14.23,20.29-3.06,4.17-3.58,8.28-1.78,13.16,3.92,10.68,8.24,21.48.75,32.49-.15.22.22.81.44,1.54,7.29-3.06,14.41-6.55,21.87-9a19.42,19.42,0,0,1,11.66-.15c7.83,2.76,15.24,6.69,24.86,11.07-5.76-10.75-9-20.16-3.24-30,5.64-9.66,2.72-17.79-4.24-25.35-3.93-4.27-7.65-8.72-11.45-13.08C667.33,281.78,667.33,281.78,654.25,271.32ZM756.16,404.08c3.38-9.7,5.86-19.21,10-28,5.51-11.78,12.35-22.94,18.42-34.46,1.08-2,2.27-4.9,1.65-6.81-3.07-9.48-6.73-18.77-10.43-28.82-1.79,1.57-3.39,2.29-3.78,3.42-3.75,10.94-12,14.61-22.77,16.79-14.83,3-14,3.89-14.39,19.61-.52,20.66,6.78,38.41,17.9,55.08C753.57,402.21,755.05,403.08,756.16,404.08Zm-260.92-275c7.34,14.67,14.28,27.63,20.32,41a24.66,24.66,0,0,0,12.59,12.72c10.2,5,20.18,10.4,30.29,15.58,2.23,1.14,4.59,2,9.46,4.15,0-17.44.18-32.79-.21-48.12-.05-2-2.59-5-4.62-5.7-8.87-3.12-17.94-5.66-27-8.24C523.1,136.77,510.07,133.22,495.24,129.09ZM598.59,329.32c-14.38-5-33.39-3-39.57-23.59-4.35,10.34-7.71,19.8-10.92,29.31a5,5,0,0,0,.27,3.48c5,10.24,9.24,21.07,15.59,30.43,6.16,9.1,10.27,18.38,11.33,29.19.21,2.18.82,4.31,1.46,7.56C599.36,384,597.8,357,598.59,329.32ZM838.32,129.69l-71.19,20c1.27,16.8,2.48,32.87,3.78,50.06,7.75-3.63,15.09-7,22.39-10.5,13.53-6.47,25.61-13.7,30.2-30C826.27,149.36,832.72,140.55,838.32,129.69ZM636.11,199.87c1.8,4.29,3.13,6.81,3.94,9.49,5.4,17.91,10.45,35.92,16.1,53.74,3,9.4,12.28,12,18.63,4.76,3.8-4.33,5.2-10.9,7.24-16.63,5.9-16.62,11.58-33.33,18-51.94-10,6-18,10.54-25.6,15.5-5,3.23-8.87,3.48-14-.32C653.34,209.25,645.33,205.31,636.11,199.87ZM575,505.23l-2.39-1.4c-9.67,10.48-19.44,20.87-28.88,31.54-1.39,1.56-1.74,4.51-1.7,6.8.26,18.35.75,36.7,1.13,55.06.09,4.75,0,9.5,0,14.25a15.14,15.14,0,0,0,6.32-6.35c5.81-10.86,11.7-21.67,17.18-32.7,3.83-7.72,9.39-15.58,10-23.7C577.76,534.36,575.7,519.75,575,505.23ZM759.62,504c-.78,15.61-1.52,29.64-2.13,43.69a9.17,9.17,0,0,0,1.14,4.21q14.21,28.91,28.55,57.72c.16.34.66.51,1.51,1.13a35.1,35.1,0,0,0,.59-3.63c1-20.52,2.1-41,3-61.58.12-2.77,0-6.45-1.56-8.26C780.94,526.35,770.73,515.82,759.62,504ZM570.18,439.35l-2.87-1.05c-5.2,7.07-9.48,15.12-15.79,21C540,470,539.18,482.75,540.42,497c.89,10.14.17,20.42.17,30.64l2.51.24c9.54-9.54,19.13-19,28.56-28.68a9.61,9.61,0,0,0,2.5-5.16c1.26-9.83,2.28-19.69,3.22-29.55.13-1.33-.58-2.78-1.06-4.11-1.46-4-3.2-7.82-4.43-11.85A79.36,79.36,0,0,1,570.18,439.35ZM584.52,655l1.67-1.31c-1.05-3.48-1.77-7.09-3.2-10.41-4.47-10.35-5.82-20.58-1.81-31.58s7.19-22.48,10.52-33.8c2.42-8.22-2.71-17.64-11.57-21.43l-31.86,63.25Zm168.32-99.08c-3.35,4-5.27,7-7.85,9.2-3.8,3.26-3.93,6.65-2.56,11.17,4.73,15.61,9.11,31.33,13.48,47,.29,1-.59,2.39-.9,3.61q-3.43,13.63-6.86,27.27c12-9.61,22.65-19.83,33.56-29.77,3.47-3.15,4.29-5.73,1.83-10.11-5.92-10.51-11.23-21.36-16.82-32.05C762.29,573.82,757.82,565.39,752.84,555.93Zm38.4-28.17,2.37-.72c0-11.12-.57-22.29.16-33.36.75-11.53,1.06-22-8.67-30.94-7.24-6.64-12.69-15.25-19.12-23.21-3,8.72-5.64,16.32-8.19,24-.21.64.19,1.46.23,2.2.28,4.71.68,9.41.78,14.12.23,10.45,2.5,19.64,11.21,26.89,6.58,5.47,11.88,12.48,17.82,18.74A20.1,20.1,0,0,0,791.24,527.76ZM570.4,426.3c-.15-21,.61-39.29-11.47-56.09-9.88-13.75-16.66-29.72-24.82-44.7a298.07,298.07,0,0,0-7.39,38.82,9.48,9.48,0,0,0,1.86,6.07q15.1,21.06,30.54,41.88C562.29,416.56,565.79,420.6,570.4,426.3ZM422.18,263.76l1.49,1.62c9.67-2.76,19.28-5.71,29-8.25,21.15-5.53,41.69-14.35,64.58-9.89,5,1,10.85-2.17,16.31-3.43l-.23-2.71c-3.43-.9-6.83-2-10.31-2.67-18.83-3.53-36.9-9.85-56.95-8.29-16.6,1.29-28.75,5.12-35.06,21.61C429.3,256.23,425.19,259.78,422.18,263.76ZM596,557.58c2-3.92,4.2-7.23,5.28-10.88,3.44-11.66,6.66-23.4,9.41-35.24.5-2.13-.95-6-2.72-7.12-7-4.33-10.12-10.68-10.54-18.35-.49-8.95-5.91-14.12-13.58-19.69-1,4.23-2.47,7.68-2.52,11.15-.22,16.09.54,32.22-.22,48.28C580.47,539.08,584.92,549.34,596,557.58Zm168.88-132c2.34-3.65,4.48-7.45,7.06-10.93,10.84-14.65,21.89-29.15,32.64-43.88a10.43,10.43,0,0,0,1.65-6.84c-1.54-12.41-3.45-24.77-5.43-38.56-10.6,18.73-20.09,36.47-30.52,53.64C761.32,393.71,767.68,410,764.87,425.55ZM736.22,559c6.62-3.46,14.63-13.35,14.86-18.22.71-15.39,1.74-30.78,1.75-46.17,0-8.68-1.71-17.37-2.73-26.69-11.73,7.55-12.13,7.49-13.71,18.66-1.25,8.82-4,16.15-12.66,20.05-.31.14-.37.86,0-.1C728.07,524.75,732.12,541.78,736.22,559ZM802.6,244.06c5.25.93,10.72,3.31,15.7,2.52,18.28-2.89,35.32,1.41,52.46,6.71,12.37,3.83,25,6.89,38.9,10.69-4.89-8.16-8.5-15.27-13.17-21.6-2.87-3.89-7-8.7-11.19-9.49C857.09,227.61,829.86,233.57,802.6,244.06ZM623.07,334.59c-9.33-23.82-34.44-26-52.07-38.62,13.53-8.55,29.27-8,40.28,1.76,4.74,4.2,8.11,2.52,12.73-1.16-8.91-5.33-17.07-10.3-25.33-15.09-2.1-1.21-4.62-2.79-6.79-2.58C581.13,280,570.41,281.55,559,283c.87,5.63.8,11.06,2.68,15.71,2,4.86,5.51,9.2,8.91,13.32,2.18,2.64,5.06,5.8,8.1,6.43C594.26,321.72,609.52,325.47,623.07,334.59Zm88.47.78C725.25,324.19,740.82,322,756,318.53c2.42-.55,5.61-2,6.59-3.92,4.89-9.75,9.16-19.81,14.31-31.25-9.7-1.17-17.25-2.14-24.82-3-4.41-.49-9.68-2.48-13.09-.8-9.58,4.72-18.39,11-27.58,16.71,6.07,6.84,10.51,3.24,14.2-1,3.43-3.95,7.21-5.57,12.34-5.09,3.44.33,7.05-.61,10.4,0,5.47,1,10.79,2.89,16.17,4.4-.06.86-.12,1.72-.19,2.58-8.33,4.22-16.61,8.54-25,12.63C728.05,315.32,715.31,319,711.54,335.37Zm-168-8.06c4.24-9.85,9.22-17.87,10.95-26.54,1.35-6.76,1.22-17-2.85-20.88-6-5.67-16.09-7-26.3-10.92C528,290.63,531.53,309.19,543.57,327.31Zm266.06-59.76c-9.66,4.24-17.76,7.71-25.75,11.41a5.35,5.35,0,0,0-2.46,3.31c-1.76,7.68-3.63,15.19.29,23.08,2.94,5.92,4.34,12.6,6.56,18.89a38.58,38.58,0,0,0,2.7,5C805.88,311.31,802.19,288.83,809.63,267.55ZM701.16,408.36c-11.24-6.35-21.61-12.31-32.12-18a5.74,5.74,0,0,0-4.76.14c-10.16,5.76-20.19,11.75-30.2,17.64C656.12,416.58,677.83,417.09,701.16,408.36Zm46.29-137.74c20,7.58,38,4.65,55.17-7.32-9.41-5.22-18.19-10.31-27.22-14.89a7,7,0,0,0-6.35.93C761.64,256.2,754.61,263.48,747.45,270.62ZM521.88,297.76c-9.55,19.29-18.3,37-27.43,55.45l26,1.3C522.75,335.93,527.47,318.07,521.88,297.76Zm12.94-34.55c17.11,15.22,34.79,13,53.91,8.49-8.52-7.93-16.32-15.34-24.35-22.49-1.2-1.07-4-1.84-5.18-1.17C551.18,252.71,543.41,257.79,534.82,263.21Zm245-31.61c-7.26-7.72-14.06-14.95-22.6-24-5.18,20.45-9.93,39.22-15,59.21Zm-204-22.89c-3.43,4.41-5.17,6.78-7.05,9-2,2.47-4.24,4.83-6.35,7.25-5.75,6.61-5.3,10.57,1.53,16,3.08,2.42,5.95,5.12,8.79,7.83,6,5.72,11.89,11.53,17.82,17.3l1.79-1C587.07,247,581.77,228.92,575.84,208.71Zm16.36,183c10.62,0,14.57-4.16,16.94-11a138.88,138.88,0,0,1,7.36-16.22c3.36-6.75,7-13.38,10.65-20.47l-21.74-11.67C604.18,353,606.72,373.51,592.2,391.7Zm220.38-91.89c-5.36,18.59.91,36,1.51,53.19h25Zm-76.93,91c-2.79-19.29-5.54-38.34-8.33-57.68-3.84,2.34-7.58,5.29-11.81,7.07-6.69,2.81-6.3,6.88-3.62,12.29,4.92,9.93,9.89,19.85,14.19,30.05C728.27,387.75,731,391,735.65,390.84ZM558.58,426.57l-31.65,24.11,11.43,16.64c7.36-9.63,14.15-18.92,21.39-27.83C563.54,434.83,564.1,431,558.58,426.57ZM806.4,450.35l-30.23-22.59c-5.42,3.13-6.71,6-1.84,10,1.64,1.34,2.51,3.62,3.8,5.41,5.77,8,11.57,16,17.9,24.68ZM486.79,615.52c4.62-5.48,8.73-9.71,11.94-14.54,1-1.54.44-5.15-.72-7-4.71-7.46-9.9-14.62-15-21.83a62.59,62.59,0,0,0-4.46-5C481.37,583.66,484,599,486.79,615.52Zm360.53-.34c2.91-16.66,5.57-31.86,8.59-49.11-6.94,10-12.9,18.26-18.4,26.81-1.35,2.1-2.49,5.94-1.49,7.65C838.91,605.45,843,609.7,847.32,615.18ZM706.89,301.46C695,323.35,696.66,326.11,704,332.64l10.37-26Zm-77.29,30,1.84.22c1.56-3.35,5-7.18,4.3-9.95-1.71-6.71-5.35-12.93-8.22-19.34l-1.94-.75c-1.06,2.93-3.5,6.19-2.91,8.74C624.31,317.52,627.2,324.42,629.6,331.42Zm168.56-77.23,2-2-18.49-14.43-4.41,4.8Zm-241-11.51c-6.65-5.4-16,0-19.78,10.23Z" transform="translate(-377 -37)"/><path d="M753.28,429.76H728.21l-.35,1.45c6.24,1.71,12.51,3.32,18.71,5.15,8,2.37,10.17,12.52,4.54,19-5.09,5.9-10.14,4.32-15.63,1.23a28.09,28.09,0,0,0-9.38-3.68c3.67,4.23,7.34,8.45,10.34,11.92l-8.3,13.64c-19.83-3.66-40.14-10.33-60.46-10.35s-40.8,6.61-61.07,10.3c-2.22-3.62-5.11-8.32-8.47-13.77l10.33-11.62-.72-.73c-3.54,1.52-7,3.08-10.62,4.54-11.68,4.78-18.87-.5-17.19-12.94.27-2,2.58-4.48,4.54-5.26,7.09-2.82,14.43-5,21.69-9.31-6.62,0-13.27.3-19.87-.15-2.49-.17-6.87-2-6.92-3.22-.2-4.33.25-9.14,2.09-13,1.59-3.31,5.66-5.33,8.18-8.3,6.17-7.29,15.19-7.75,22.49-1.88,9.22,7.42,17.37,15.38,21.21,27,.57,1.71,2,3.84,3.59,4.39,11.77,4.21,23.2,10.45,36.34,8.22,6.08-1,12-3.33,18-4.39,9.5-1.66,10.5-10.92,15.55-16.53,6.84-7.6,12.84-16.21,20.72-22.47,2.59-2.06,11.16.33,14.81,3.34C750.32,408.88,758.15,416.58,753.28,429.76Z" transform="translate(-377 -37)"/><path d="M413.14,229.49c3.9-9,7.25-17.2,10.92-25.23C429,193.49,434.69,183.05,439,172c3.71-9.51,10-16.3,18.16-21.71,10.29-6.79,20.65-13.46,31.74-20.68,3.92,7,8,13.81,11.69,20.86,4.77,9.15,8.84,18.7,14,27.59,1.94,3.33,5.88,5.85,9.42,7.82,12.7,7.08,25.61,13.76,38.33,21.5C513.61,219.32,464.86,229.55,413.14,229.49Z" transform="translate(-377 -37)"/><path d="M772.23,207.25c12.63-7,23.85-13.58,35.47-19.38,6.86-3.43,12.12-7.26,15.46-14.77,6.46-14.48,14.26-28.37,21.69-42.86,13.42,8.89,25.79,17,38,25.29a16.05,16.05,0,0,1,5.41,5.83c6.3,13.09,12.22,26.37,18.39,39.53,4.34,9.28,8.86,18.47,13.45,28C869.83,227.89,821.62,219.7,772.23,207.25Z" transform="translate(-377 -37)"/><path d="M538.25,644.56c-3.87-5.11-7.51-9.4-10.57-14.06-14.68-22.31-29.38-44.61-43.59-67.22a20.46,20.46,0,0,1-2.63-13.07c3.69-22,8.3-43.87,12.15-65.86,1.11-6.3,3.79-11.06,8.74-14.81,6.49-4.93,12.94-9.92,19.65-15.06,7.66,9.94,13.61,19.21,13.68,32.93.28,51.65,2.2,103.3,3.47,155C539.16,642.79,538.81,643.22,538.25,644.56Z" transform="translate(-377 -37)"/><path d="M811.82,455c7.38,5.47,14.23,10.32,20.78,15.53,2,1.6,4.17,4,4.68,6.37,5.57,25.79,11.72,51.53,15.52,77.6.91,6.27-6.21,13.76-9.8,20.61-.75,1.43-2.44,2.34-3.34,3.73-9,13.88-17.77,27.9-26.88,41.71-5.11,7.75-10.7,15.17-16.42,23.22a9.81,9.81,0,0,1-.69-2.54c1.31-53.4,2.78-106.81,3.87-160.22C799.76,470.23,805.69,462.78,811.82,455Z" transform="translate(-377 -37)"/><path d="M704.54,649.75c-13.22-16.9-25.21-32.24-37.24-47.64l-37.88,47.57c-1.8-14.88-2.6-27.89-5.09-40.57-3.93-20,5.3-37.45,9.62-55.81,1.59-6.75,9.39-8.65,15.22-4.46a87.22,87.22,0,0,1,13.72,12.24c2.92,3.24,5.28,3.14,8.06.71,4.12-3.58,8.1-7.31,12-11.1,7-6.73,13.65-5.12,16.55,3.88,2,6.27,4.11,12.55,6.71,18.6,8.14,18.94,3.48,38.06,1.19,57.16C706.72,636.17,705.7,642,704.54,649.75Z" transform="translate(-377 -37)"/><path d="M514.77,254.18c-12.58,7.76-25.2,15.46-37.67,23.39a12,12,0,0,0-3.93,5.13c-8.9,19.86-17.59,39.81-26.5,59.66q-4.53,10.09-9.9,19.79a12.48,12.48,0,0,1-5.36,4.77c-11.35,5.46-22.84,10.66-35.63,16.56.43-4.33.47-7.87,1.17-11.28,2.76-13.37,5.55-26.73,8.65-40,4.48-19.27,9.11-38.51,14.06-57.66a9.28,9.28,0,0,1,5.46-5.62c21.25-6,42.48-12.1,64-16.91,8.08-1.81,16.9-.29,25.37-.29Z" transform="translate(-377 -37)"/><path d="M821.16,253.81c16.41-5.76,30.67.52,45.13,4.3,13.67,3.57,27.16,7.86,40.86,11.35,4.83,1.23,7,3.78,7.9,8.37,4,20.19,7.91,40.41,12.36,60.5,3.13,14.08,7.09,28,11.15,43.79-13.52-6.2-25.63-10.65-36.46-17.22-4.85-2.95-7.84-9.83-10.41-15.5-10-22.07-18.75-44.75-29.65-66.36-3.3-6.54-11.8-10.68-18.37-15.28C836.64,262.84,829.08,258.67,821.16,253.81Z" transform="translate(-377 -37)"/><path d="M544.29,70.7c17.46,2,33.32,3.76,49.18,5.57,9.36,1.07,18.69,2.67,28.08,3.12,7.47.35,12.31,4,16.05,9.75,7.69,11.73,15.31,23.53,22.6,35.52a10.91,10.91,0,0,1,1.21,8.05,208.46,208.46,0,0,1-8.13,19.95q-6.91,15.47-14.21,30.76c-.88,1.85-2.49,3.36-3.77,5-1.71-1.58-4-2.84-5.06-4.79-8.62-16.38-17-32.91-25.47-49.36-5.87-11.37-10.73-23.52-18.17-33.77-5.28-7.27-13.85-12.32-21.44-17.68C559.06,78.54,552.23,75.26,544.29,70.7Z" transform="translate(-377 -37)"/><path d="M786.36,71.43C775.14,79.18,764.92,86,755,93.23a28.59,28.59,0,0,0-8.32,9c-13.49,25.2-26.56,50.61-40,75.85-1.78,3.35-4.66,6.12-7.91,10.3-1.86-4.35-3.09-7.44-4.48-10.46-6.67-14.37-13.59-28.62-19.89-43.14-1.22-2.81-1.26-7.38.23-9.92,8.1-13.84,16.78-27.35,25.47-40.84a8.24,8.24,0,0,1,5.11-3.47C731.88,77.44,758.49,74.53,786.36,71.43Z" transform="translate(-377 -37)"/><path d="M721.74,392.4c-1.06,1-2.94,2.51-4.68,4.22-9.33,9.22-9.27,9.16-20.85,2.24-7.86-4.7-15.71-9.48-23.9-13.54-2.6-1.29-6.9-1.58-9.37-.29-12.05,6.26-23.75,13.21-35.82,20.06-4.52-3.86-9.26-7.08-12.76-11.33-1.37-1.65-.73-6,.36-8.46,4.77-10.84,9.95-21.49,15.22-32.09a11.78,11.78,0,0,1,4.83-5.07c8.87-4.38,17.81-8.7,27-12.34a16.14,16.14,0,0,1,10.3-.22c6.31,2.11,12.16,5.55,18.37,8,9,3.58,15,9.48,18.37,18.83C712.36,372.35,717.12,381.83,721.74,392.4Z" transform="translate(-377 -37)"/><path d="M598.47,183c-7.23-9.88-15.27-21.39-23.93-32.41a23.29,23.29,0,0,0-10.29-7.2c-11-3.74-22.3-6.63-33.46-9.93a6.09,6.09,0,0,1-3.15-1.79c-7-10-13.94-20.07-21.52-31.06l42.57-6.65c2-.3,3.94-.48,5.9-.81,14-2.33,24.52,3.14,31,16,9.65,19.18,19.25,38.38,29,57.51,3,5.87,6.59,11.44,9.61,17.3.74,1.44.29,3.49.38,5.25-1.79,0-3.71.37-5.34-.16-3.52-1.14-6.81-3-10.33-4.1C606,184,602.79,183.74,598.47,183Z" transform="translate(-377 -37)"/><path d="M736,184.93c-4.86,0-7.75-.45-10.43.11-3.1.65-6,2.35-9,3.27a37.54,37.54,0,0,1-6.13.84c.12-2-.39-4.4.45-6.07,4.31-8.57,9.09-16.9,13.47-25.43,9-17.57,17.92-35.24,26.92-52.84,3.94-7.7,15.29-13.49,23.69-12.17,17.1,2.67,34.19,5.37,51.49,8.1-5.25,8.51-9.84,16.92-15.42,24.6a28.05,28.05,0,0,1-11.11,8.76c-6.3,2.75-13.11,5.09-19.89,5.82-14.24,1.53-21.64,11.1-28.59,21.75C745.94,170.12,740.31,178.48,736,184.93Z" transform="translate(-377 -37)"/><path d="M441.36,388.67c-1-13.28-1.92-24.17,4.74-36.06,11.43-20.4,19.45-42.69,29.34-64a16,16,0,0,1,8.24-7.52c9.29-3.4,19-5.67,28.44-8.6,3.87-1.2,5,.54,6.44,3.81,4.21,10,0,18.35-4.4,26.76-2.24,4.32-4.92,8.41-7.08,12.76-5.91,11.94-11.47,24.05-17.59,35.88-1.51,2.92-4.4,5.31-7.07,7.42q-17.73,14-35.74,27.55C445.45,387.61,443.68,387.83,441.36,388.67Z" transform="translate(-377 -37)"/><path d="M615.93,520.79c4,10,8.1,20,12,30.07a7.29,7.29,0,0,1-.19,4.32c-3.75,12.51-7.78,25-11.24,37.54-.61,2.21,1.3,5,1.59,7.57,3.28,28.83,6.46,57.67,9.89,88.43-11.37-5.29-20.94-9.57-30.28-14.29-1.29-.65-1.67-3.43-2.14-5.3-1.81-7.22-2.83-14.71-5.36-21.66-5.4-14.82-5-29.05-.13-44.11,8.71-27,16.09-54.42,24-81.66Z" transform="translate(-377 -37)"/><path d="M707,688.5c2-20.31,2.79-39.71,6.15-58.65,4.32-24.29,3.3-47.64-4.95-70.9-1.29-3.62-.24-8.6,1.07-12.49,2.41-7.17,5.83-14,9.27-22,1.85,3.46,4,6.33,5,9.56,3.52,11.62,6.53,23.39,9.92,35,4.81,16.5,10,32.9,14.53,49.47a25.18,25.18,0,0,1,.11,12.17c-3.12,12.61-6.53,25.18-10.63,37.5a19.2,19.2,0,0,1-7.83,9.57C723,681.79,715.5,684.59,707,688.5Z" transform="translate(-377 -37)"/><path d="M816.19,271.16c10.73,3.09,19.12,6.25,27.8,7.8,10.78,1.92,14.3,10.44,18.1,18.36,8.29,17.31,15.38,35.21,23.81,52.44,5.8,11.84,8.69,23.56,4.27,37.07-4.87-3.47-10-6.91-14.93-10.66-7.85-6-16-11.74-23.18-18.46a59.87,59.87,0,0,1-12.38-16.07c-8.29-16.25-16.38-32.67-23.13-49.59C814.26,286.3,816.19,278.86,816.19,271.16Z" transform="translate(-377 -37)"/><path d="M533.06,390.12c8.18,10.9,15.55,20.71,23.43,31.19-8.6,6.84-16.72,13.56-25.11,19.91-12.58,9.53-25.44,18.68-37.9,28.35-1.82,1.41-2.57,4.69-3.06,7.26-3.48,18.27-6.44,36.64-10.2,54.85-3.07,14.87-7,29.57-10.66,44.74-.52-.56-1.43-1.09-1.62-1.82-4.69-17.9-9.73-35.73-13.59-53.82-.8-3.75,2.43-8.67,4.52-12.67,2.27-4.32,5.55-8.1,8.11-12.28,14.43-23.61,28.75-47.29,43.17-70.91q8.28-13.56,16.83-27C528.65,395.34,530.78,393,533.06,390.12Z" transform="translate(-377 -37)"/><path d="M631.76,293.11c-9.88-6.27-18.12-10.91-25.63-16.53-3.51-2.63-6.94-6.79-8.11-10.91-4.77-16.71-8.6-33.69-12.89-50.54-1.51-5.94.09-8.34,6.58-10.15,12.24-3.41,20.25,4.39,29.54,8.91a87.47,87.47,0,0,1,12.55,8,10.65,10.65,0,0,1,3.82,4.88q5.88,18.06,11.2,36.28c.57,1.92.73,4.7-.26,6.19C643.31,277.18,637.64,284.85,631.76,293.11Z" transform="translate(-377 -37)"/><path d="M423.32,464.36c1.14-15,3.5-30,3.07-44.91-.45-15.36,10.3-20.24,20.07-27.23,13.07-9.34,25.72-19.29,38.27-29.33,4.11-3.29,7.81-5.12,13.34-4.26,7,1.08,14.11.86,21.18,1.2l1,2-94,103.78Z" transform="translate(-377 -37)"/><path d="M752.52,205.64c-4.95,17.06-9.61,33-14.18,49a71.84,71.84,0,0,0-2.53,10.86c-.84,6.78-4.44,11.07-10.4,14.19-7.62,4-14.93,8.55-23.22,13.36-3.78-5.59-6.65-12-11.37-16.38-8.49-7.92-7.35-15-2.27-24.3,4.08-7.47,5.2-16.52,8.16-24.68a14.51,14.51,0,0,1,5.56-7.2c7.22-4.29,15.41-7.09,22.22-11.89C733.17,202.43,741.81,205.19,752.52,205.64Z" transform="translate(-377 -37)"/><path d="M863.91,574.46c-4.19-20.22-8.46-40.43-12.53-60.68-2.49-12.4-4.52-24.9-7.13-37.27a13.09,13.09,0,0,0-4.2-7.06c-20.09-16-40.37-31.77-61.45-48.27L801,390.75c4.91,7.35,9.71,14,14,21,14.29,23.34,28.24,46.88,42.61,70.17,7.08,11.47,15,22.44,22,33.91,1.15,1.86.52,5.28-.15,7.74-4.22,15.71-8.68,31.36-13.05,47-.33,1.19-.61,2.39-.91,3.58Z" transform="translate(-377 -37)"/><path d="M607.15,486.74c8.84-2.9,17.47-5.92,26.23-8.49a18.11,18.11,0,0,1,8.06-.09c15.7,2.84,31.29,3.79,47.28,1.3,7.2-1.12,15,1,22.42,2.11a49.45,49.45,0,0,1,10.67,3.16c2.07.81,5.51,2.55,5.42,3.59-.28,2.9-1.29,6.83-3.41,8.27-10.84,7.31-21.34,16.63-33.45,20.18-15.26,4.48-32.28,5.53-47.68-1.29C632.6,511,623.62,504,613.94,498.57,609.41,496,606.39,493.05,607.15,486.74Z" transform="translate(-377 -37)"/><path d="M435.85,530.64c3.36-10.46,7-20.83,10-31.4,3.7-13.14,6.62-26.5,10.21-39.68,2.53-9.29,4.9-18.75,8.71-27.54,2.39-5.49,7.07-10.11,11.19-14.71q14.56-16.24,29.64-32.05c4.38-4.62,9.22-8.8,14.1-13.41,2.4,3.27,5.41,6.6,7.41,10.47.87,1.66.36,4.84-.72,6.61-10.52,17.25-21.32,34.33-32,51.5q-9.57,15.42-19,30.94c-9.46,15.68-18.74,31.46-28.28,47.1-2.76,4.53-6.12,8.7-9.21,13Z" transform="translate(-377 -37)"/><path d="M813.28,360.44c10.77-.6,19.11-1.23,27.45-1.38a10.57,10.57,0,0,1,6,2.38c14,10.61,27,22.92,42,31.64,15.45,9,19.65,20.85,18.32,37.22-.86,10.59-.16,21.32-.16,32.76Z" transform="translate(-377 -37)"/><path d="M894.13,527.86a22.11,22.11,0,0,1-1.63-2.12c-9.46-15.61-18.71-31.37-28.41-46.84-13.17-21-26.8-41.74-40-62.73-4.35-6.92-6.73-15.48-12.21-21.17-8.81-9.16-3.56-15.17,2.18-21.94a7,7,0,0,1,.83-.68c4.31,4.11,8.9,8,13,12.43q19.3,20.88,38.21,42.12a19.82,19.82,0,0,1,4,7.79c7.27,26.92,14.33,53.9,21.54,80.84,1,3.9,2.52,7.69,3.79,11.54Z" transform="translate(-377 -37)"/><path d="M654.25,271.32c13.08,10.46,13.08,10.46,24.64,1,3.8,4.36,7.52,8.81,11.45,13.08,7,7.56,9.88,15.69,4.24,25.35-5.74,9.82-2.52,19.23,3.24,30-9.62-4.38-17-8.31-24.86-11.07a19.42,19.42,0,0,0-11.66.15c-7.46,2.43-14.58,5.92-21.87,9-.22-.73-.59-1.32-.44-1.54,7.49-11,3.17-21.81-.75-32.49-1.8-4.88-1.28-9,1.78-13.16C644.81,285.09,649.33,278.37,654.25,271.32Z" transform="translate(-377 -37)"/><path d="M756.16,404.08c-1.11-1-2.59-1.87-3.45-3.15-11.12-16.67-18.42-34.42-17.9-55.08.4-15.72-.44-16.6,14.39-19.61,10.77-2.18,19-5.85,22.77-16.79.39-1.13,2-1.85,3.78-3.42,3.7,10.05,7.36,19.34,10.43,28.82.62,1.91-.57,4.77-1.65,6.81-6.07,11.52-12.91,22.68-18.42,34.46C762,384.87,759.54,394.38,756.16,404.08Z" transform="translate(-377 -37)"/><path d="M495.24,129.09c14.83,4.13,27.86,7.68,40.85,11.39,9,2.58,18.11,5.12,27,8.24,2,.71,4.57,3.7,4.62,5.7.39,15.33.21,30.68.21,48.12-4.87-2.12-7.23-3-9.46-4.15-10.11-5.18-20.09-10.61-30.29-15.58a24.66,24.66,0,0,1-12.59-12.72C509.52,156.72,502.58,143.76,495.24,129.09Z" transform="translate(-377 -37)"/><path d="M598.59,329.32c-.79,27.67.77,54.71-21.84,76.38-.64-3.25-1.25-5.38-1.46-7.56-1.06-10.81-5.17-20.09-11.33-29.19-6.35-9.36-10.55-20.19-15.59-30.43a5,5,0,0,1-.27-3.48c3.21-9.51,6.57-19,10.92-29.31C565.2,326.28,584.21,324.31,598.59,329.32Z" transform="translate(-377 -37)"/><path d="M838.32,129.69c-5.6,10.86-12.05,19.67-14.82,29.53-4.59,16.32-16.67,23.55-30.2,30-7.3,3.48-14.64,6.87-22.39,10.5-1.3-17.19-2.51-33.26-3.78-50.06Z" transform="translate(-377 -37)"/><path d="M636.11,199.87c9.22,5.44,17.23,9.38,24.29,14.6,5.16,3.8,9.06,3.55,14,.32,7.63-5,15.56-9.46,25.6-15.5-6.43,18.61-12.11,35.32-18,51.94-2,5.73-3.44,12.3-7.24,16.63-6.35,7.25-15.65,4.64-18.63-4.76-5.65-17.82-10.7-35.83-16.1-53.74C639.24,206.68,637.91,204.16,636.11,199.87Z" transform="translate(-377 -37)"/><path d="M575,505.23c.74,14.52,2.8,29.13,1.69,43.5-.63,8.12-6.19,16-10,23.7-5.48,11-11.37,21.84-17.18,32.7a15.14,15.14,0,0,1-6.32,6.35c0-4.75.08-9.5,0-14.25-.38-18.36-.87-36.71-1.13-55.06,0-2.29.31-5.24,1.7-6.8,9.44-10.67,19.21-21.06,28.88-31.54Z" transform="translate(-377 -37)"/><path d="M759.62,504c11.11,11.8,21.32,22.33,31.06,33.28,1.61,1.81,1.68,5.49,1.56,8.26-.86,20.53-1.93,41.06-3,61.58a35.1,35.1,0,0,1-.59,3.63c-.85-.62-1.35-.79-1.51-1.13q-14.32-28.83-28.55-57.72a9.17,9.17,0,0,1-1.14-4.21C758.1,533.66,758.84,519.63,759.62,504Z" transform="translate(-377 -37)"/><path d="M570.18,439.35a79.36,79.36,0,0,0,1.71,9.15c1.23,4,3,7.89,4.43,11.85.48,1.33,1.19,2.78,1.06,4.11-.94,9.86-2,19.72-3.22,29.55a9.61,9.61,0,0,1-2.5,5.16c-9.43,9.65-19,19.14-28.56,28.68l-2.51-.24c0-10.22.72-20.5-.17-30.64-1.24-14.22-.44-27,11.1-37.69,6.31-5.86,10.59-13.91,15.79-21Z" transform="translate(-377 -37)"/><path d="M584.52,655l-36.25-35.28,31.86-63.25c8.86,3.79,14,13.21,11.57,21.43-3.33,11.32-6.48,22.73-10.52,33.8s-2.66,21.23,1.81,31.58c1.43,3.32,2.15,6.93,3.2,10.41Z" transform="translate(-377 -37)"/><path d="M752.84,555.93c5,9.46,9.45,17.89,13.88,26.36,5.59,10.69,10.9,21.54,16.82,32.05,2.46,4.38,1.64,7-1.83,10.11-10.91,9.94-21.57,20.16-33.56,29.77Q751.59,640.59,755,627c.31-1.22,1.19-2.57.9-3.61-4.37-15.71-8.75-31.43-13.48-47-1.37-4.52-1.24-7.91,2.56-11.17C747.57,562.91,749.49,559.92,752.84,555.93Z" transform="translate(-377 -37)"/><path d="M791.24,527.76a20.1,20.1,0,0,1-3.41-2.33c-5.94-6.26-11.24-13.27-17.82-18.74-8.71-7.25-11-16.44-11.21-26.89-.1-4.71-.5-9.41-.78-14.12,0-.74-.44-1.56-.23-2.2,2.55-7.63,5.19-15.23,8.19-24,6.43,8,11.88,16.57,19.12,23.21,9.73,8.94,9.42,19.41,8.67,30.94-.73,11.07-.16,22.24-.16,33.36Z" transform="translate(-377 -37)"/><path d="M570.4,426.3c-4.61-5.7-8.11-9.74-11.28-14q-15.4-20.83-30.54-41.88a9.48,9.48,0,0,1-1.86-6.07,298.07,298.07,0,0,1,7.39-38.82c8.16,15,14.94,30.95,24.82,44.7C571,387,570.25,405.3,570.4,426.3Z" transform="translate(-377 -37)"/><path d="M422.18,263.76c3-4,7.12-7.53,8.83-12,6.31-16.49,18.46-20.32,35.06-21.61,20.05-1.56,38.12,4.76,56.95,8.29,3.48.65,6.88,1.77,10.31,2.67l.23,2.71c-5.46,1.26-11.29,4.41-16.31,3.43-22.89-4.46-43.43,4.36-64.58,9.89-9.72,2.54-19.33,5.49-29,8.25Z" transform="translate(-377 -37)"/><path d="M596,557.58c-11.07-8.24-15.52-18.5-14.89-31.85.76-16.06,0-32.19.22-48.28,0-3.47,1.52-6.92,2.52-11.15,7.67,5.57,13.09,10.74,13.58,19.69.42,7.67,3.53,14,10.54,18.35,1.77,1.09,3.22,5,2.72,7.12-2.75,11.84-6,23.58-9.41,35.24C600.19,550.35,597.94,553.66,596,557.58Z" transform="translate(-377 -37)"/><path d="M764.87,425.55c2.81-15.59-3.55-31.84,5.4-46.57,10.43-17.17,19.92-34.91,30.52-53.64,2,13.79,3.89,26.15,5.43,38.56a10.43,10.43,0,0,1-1.65,6.84c-10.75,14.73-21.8,29.23-32.64,43.88C769.35,418.1,767.21,421.9,764.87,425.55Z" transform="translate(-377 -37)"/><path d="M736.22,559c-4.1-17.22-8.15-34.25-12.48-52.47-.38,1-.32.24,0,.1,8.67-3.9,11.41-11.23,12.66-20.05,1.58-11.17,2-11.11,13.71-18.66,1,9.32,2.75,18,2.73,26.69,0,15.39-1,30.78-1.75,46.17C750.85,545.65,742.84,555.54,736.22,559Z" transform="translate(-377 -37)"/><path d="M802.6,244.06c27.26-10.49,54.49-16.45,82.7-11.17,4.22.79,8.32,5.6,11.19,9.49,4.67,6.33,8.28,13.44,13.17,21.6-13.93-3.8-26.53-6.86-38.9-10.69-17.14-5.3-34.18-9.6-52.46-6.71C813.32,247.37,807.85,245,802.6,244.06Z" transform="translate(-377 -37)"/><path d="M623.07,334.59c-13.55-9.12-28.81-12.87-44.37-16.09-3-.63-5.92-3.79-8.1-6.43-3.4-4.12-7-8.46-8.91-13.32-1.88-4.65-1.81-10.08-2.68-15.71,11.4-1.49,22.12-3.09,32.88-4.14,2.17-.21,4.69,1.37,6.79,2.58,8.26,4.79,16.42,9.76,25.33,15.09-4.62,3.68-8,5.36-12.73,1.16-11-9.75-26.75-10.31-40.28-1.76C588.63,308.61,613.74,310.77,623.07,334.59Z" transform="translate(-377 -37)"/><path d="M711.54,335.37c3.77-16.41,16.51-20.05,27.77-25.53,8.39-4.09,16.67-8.41,25-12.63.07-.86.13-1.72.19-2.58-5.38-1.51-10.7-3.36-16.17-4.4-3.35-.63-7,.31-10.4,0-5.13-.48-8.91,1.14-12.34,5.09-3.69,4.23-8.13,7.83-14.2,1,9.19-5.71,18-12,27.58-16.71,3.41-1.68,8.68.31,13.09.8,7.57.84,15.12,1.81,24.82,3-5.15,11.44-9.42,21.5-14.31,31.25-1,1.95-4.17,3.37-6.59,3.92C740.82,322,725.25,324.19,711.54,335.37Z" transform="translate(-377 -37)"/><path d="M543.57,327.31c-12-18.12-15.59-36.68-18.2-58.34,10.21,3.9,20.29,5.25,26.3,10.92,4.07,3.84,4.2,14.12,2.85,20.88C552.79,309.44,547.81,317.46,543.57,327.31Z" transform="translate(-377 -37)"/><path d="M809.63,267.55c-7.44,21.28-3.75,43.76-18.66,61.7a38.58,38.58,0,0,1-2.7-5c-2.22-6.29-3.62-13-6.56-18.89-3.92-7.89-2.05-15.4-.29-23.08a5.35,5.35,0,0,1,2.46-3.31C791.87,275.26,800,271.79,809.63,267.55Z" transform="translate(-377 -37)"/><path d="M701.16,408.36c-23.33,8.73-45,8.22-67.08-.24,10-5.89,20-11.88,30.2-17.64a5.74,5.74,0,0,1,4.76-.14C679.55,396.05,689.92,402,701.16,408.36Z" transform="translate(-377 -37)"/><path d="M747.45,270.62c7.16-7.14,14.19-14.42,21.6-21.28a7,7,0,0,1,6.35-.93c9,4.58,17.81,9.67,27.22,14.89C785.43,275.27,767.48,278.2,747.45,270.62Z" transform="translate(-377 -37)"/><path d="M521.88,297.76c5.59,20.31.87,38.17-1.44,56.75l-26-1.3C503.58,334.75,512.33,317.05,521.88,297.76Z" transform="translate(-377 -37)"/><path d="M534.82,263.21c8.59-5.42,16.36-10.5,24.38-15.17,1.15-.67,4,.1,5.18,1.17,8,7.15,15.83,14.56,24.35,22.49C569.61,276.21,551.93,278.43,534.82,263.21Z" transform="translate(-377 -37)"/><path d="M779.87,231.6l-37.6,35.2c5.07-20,9.82-38.76,15-59.21C765.81,216.65,772.61,223.88,779.87,231.6Z" transform="translate(-377 -37)"/><path d="M575.84,208.71c5.93,20.21,11.23,38.3,16.53,56.39l-1.79,1c-5.93-5.77-11.83-11.58-17.82-17.3-2.84-2.71-5.71-5.41-8.79-7.83-6.83-5.39-7.28-9.35-1.53-16,2.11-2.42,4.3-4.78,6.35-7.25C570.67,215.49,572.41,213.12,575.84,208.71Z" transform="translate(-377 -37)"/><path d="M592.2,391.7c14.52-18.19,12-38.67,13.21-59.35L627.15,344c-3.7,7.09-7.29,13.72-10.65,20.47a138.88,138.88,0,0,0-7.36,16.22C606.77,387.54,602.82,391.67,592.2,391.7Z" transform="translate(-377 -37)"/><path d="M812.58,299.81,839.05,353h-25C813.49,335.8,807.22,318.4,812.58,299.81Z" transform="translate(-377 -37)"/><path d="M735.65,390.84c-4.62.16-7.38-3.09-9.57-8.27-4.3-10.2-9.27-20.12-14.19-30.05-2.68-5.41-3.07-9.48,3.62-12.29,4.23-1.78,8-4.73,11.81-7.07C730.11,352.5,732.86,371.55,735.65,390.84Z" transform="translate(-377 -37)"/><path d="M558.58,426.57c5.52,4.41,5,8.26,1.17,12.92-7.24,8.91-14,18.2-21.39,27.83l-11.43-16.64Z" transform="translate(-377 -37)"/><path d="M806.4,450.35,796,467.87c-6.33-8.71-12.13-16.69-17.9-24.68-1.29-1.79-2.16-4.07-3.8-5.41-4.87-4-3.58-6.89,1.84-10Z" transform="translate(-377 -37)"/><path d="M486.79,615.52c-2.81-16.55-5.42-31.86-8.24-48.38a62.59,62.59,0,0,1,4.46,5c5.1,7.21,10.29,14.37,15,21.83,1.16,1.83,1.74,5.44.72,7C495.52,605.81,491.41,610,486.79,615.52Z" transform="translate(-377 -37)"/><path d="M847.32,615.18c-4.37-5.48-8.41-9.73-11.3-14.65-1-1.71.14-5.55,1.49-7.65,5.5-8.55,11.46-16.8,18.4-26.81C852.89,583.32,850.23,598.52,847.32,615.18Z" transform="translate(-377 -37)"/><path d="M706.89,301.46l7.48,5.17-10.37,26C696.66,326.11,695,323.35,706.89,301.46Z" transform="translate(-377 -37)"/><path d="M629.6,331.42c-2.4-7-5.29-13.9-6.93-21.08-.59-2.55,1.85-5.81,2.91-8.74l1.94.75c2.87,6.41,6.51,12.63,8.22,19.34.71,2.77-2.74,6.6-4.3,9.95Z" transform="translate(-377 -37)"/><path d="M798.16,254.19l-20.95-11.64,4.41-4.8,18.49,14.43Z" transform="translate(-377 -37)"/><path d="M557.2,242.68l-19.78,10.23C541.24,242.72,550.55,237.28,557.2,242.68Z" transform="translate(-377 -37)"/></svg>