<?xml version="1.0" encoding="utf-8"?>
<!-- Generator: Adobe Illustrator 24.0.0, SVG Export Plug-In . SVG Version: 6.00 Build 0)  -->
<svg version="1.1" id="Capa_1" xmlns="http://www.w3.org/2000/svg" xmlns:xlink="http://www.w3.org/1999/xlink" x="0px" y="0px"
	 viewBox="0 0 1366 768" style="enable-background:new 0 0 1366 768;" xml:space="preserve">
<style type="text/css">
	.st0{fill:#F47A00;}
</style>
<g>
	<path class="st0" d="M966,725c-196.33,0-392.67,0-589,0c0-229.33,0-458.67,0-688c196.33,0,392.67,0,589,0
		C966,266.33,966,495.67,966,725z M544.36,664.48c0-13.29,0-25.75,0-38.55c1.35,0.22,2.63,0.04,3.2,0.58
		c13.36,12.82,26.73,25.64,39.86,38.69c1.78,1.77,1.96,5.04,3.49,7.18c2.28,3.19,4.68,6.6,7.81,8.8c4,2.8,8.78,4.51,13.24,6.64
		c6.97,3.33,13.97,6.62,22.02,10.43c-0.91-8.97-1.49-16.63-2.49-24.22c-1.27-9.66-2.83-19.18,7.27-25.69
		c1.73-1.12,2.5-3.66,3.85-5.43c7.77-10.16,15.59-20.29,23.53-30.61c0.73,0.49,1.43,0.76,1.84,1.27
		c11.47,14.51,22.95,29.01,34.25,43.65c0.81,1.05,0.41,3.19,0.28,4.8c-0.94,11.74-1.96,23.47-3.09,36.82
		c14.78-7.09,28.15-13.41,41.41-19.99c1.24-0.62,2.32-2.78,2.41-4.29c0.42-7.34,5.83-11.21,10.39-15.68
		c4.22-4.13,8.57-8.15,12.85-12.22c7.16-6.81,14.31-13.64,22.09-21.04c0,13.55,0,25.81,0,38.08c0.59,0.31,1.18,0.63,1.77,0.94
		c13.31-20.16,26.63-40.33,40.05-60.65c6.93,8.92,13.26,17.08,20.36,26.22c2.68-15.52,5.09-29.48,7.51-43.44
		c0.85,0.07,1.71,0.13,2.56,0.2c0.96,5.31,1.91,10.63,2.87,15.94c0.47,0,0.95-0.01,1.42-0.01c6.44-25.41,12.87-50.82,19.58-77.31
		c7.48,9.4,14.14,17.76,20.79,26.12c0.39-0.15,0.78-0.3,1.18-0.45c-9.25-36.02-18.51-72.04-27.76-108.05
		c0.39-0.13,0.78-0.26,1.18-0.38c11.32,12.33,22.64,24.67,33.58,36.59c0-20.82-0.53-40.95,0.23-61.03
		c0.36-9.55-2.76-16.01-10.37-21.18c-2.27-1.54-5.14-4.25-5.25-6.55c-0.3-6.29,0.71-12.65,1.27-19.71
		c15.5,7.06,30.24,13.78,45.82,20.88c-0.28-2.61-0.28-4.52-0.7-6.33c-5.27-22.61-10.78-45.16-15.85-67.82
		c-3.35-15-5.64-30.25-9.3-45.17c-1.45-5.91-5.06-11.37-8.13-16.78c-3.99-7.03-8.41-13.81-13.27-21.71
		c10.9,0.65,20.37,1.21,30.75,1.83c-1.16-2.84-1.84-4.65-2.63-6.4c-9.4-20.98-18.48-42.11-28.45-62.81
		c-2.98-6.18-7.59-12.28-12.97-16.46c-11.9-9.25-24.67-17.39-37.33-25.62c-2.1-1.37-5.56-1.71-8.1-1.16
		c-7.82,1.68-15.51,4.02-25.05,6.58c8.08-11.81,15.11-22.08,22.76-33.26c-21.23-3.54-41.07-6.85-62.99-10.51
		c11.93-7.58,21.99-13.96,32.05-20.34c-34.33,2.13-67.88,5.51-101.38,9.33c-3.1,0.35-6.85,2.81-8.66,5.43
		c-8.29,11.97-15.95,24.38-23.97,36.55c-1.54,2.33-3.68,4.25-5.76,6.6c-9.13-14.29-18.1-27.6-26.21-41.41
		c-3.08-5.25-6.89-7.14-12.43-7.67c-24.96-2.4-49.91-5-74.87-7.44c-8.17-0.8-16.36-1.3-26.59-2.09
		c12.26,7.44,22.58,13.69,32.9,19.95c-0.2,0.67-0.41,1.34-0.61,2.01c-19.58,3.29-39.17,6.58-59.98,10.07
		c7.44,11.46,14.11,21.73,21.6,33.28c-9.37-2.41-16.7-4.8-24.22-6c-3.38-0.54-7.68,0.46-10.64,2.26
		c-9.49,5.78-18.52,12.32-27.79,18.46c-9.76,6.46-17.7,13.73-22.24,25.5c-8.2,21.26-18.38,41.75-27.79,62.68
		c10.05,0,19.35,0,30.35,0c-3.87,6.4-7.27,11.73-10.37,17.23c-3.83,6.78-8.92,13.31-10.81,20.64c-6.12,23.7-11.01,47.71-16.41,71.6
		c-3.46,15.32-6.97,30.63-10.75,47.23c15.61-6.92,30.34-13.45,45.45-20.14c2.87,13.88,5.89,26.66-10.34,33.44
		c-1.19,0.5-2.23,2.82-2.29,4.34c-0.91,23.14-1.64,46.3-2.47,71.25c12.34-13.45,23.56-25.7,34.79-37.95
		c0.52,0.26,1.05,0.52,1.57,0.78c-8.72,34.32-17.44,68.65-26.15,102.97c0.42,0.15,0.85,0.31,1.27,0.46
		c5.74-6.56,11.48-13.11,18.15-20.73c7.13,26.35,13.8,51.04,20.71,76.59c1.27-5.74,2.3-10.42,3.33-15.11
		c0.54,0.04,1.07,0.07,1.61,0.11c3.12,13.77,6.23,27.54,9.5,42.01c6.36-8.21,12.44-16.05,19-24.51
		C517.33,624.01,530.66,643.96,544.36,664.48z"/>
	<path d="M544.36,664.48c-13.7-20.52-27.03-40.47-40.71-60.94c-6.55,8.46-12.63,16.3-19,24.51c-3.27-14.47-6.39-28.24-9.5-42.01
		c-0.54-0.04-1.07-0.07-1.61-0.11c-1.03,4.68-2.07,9.37-3.33,15.11c-6.91-25.55-13.59-50.24-20.71-76.59
		c-6.67,7.61-12.41,14.17-18.15,20.73c-0.42-0.15-0.85-0.31-1.27-0.46c8.72-34.32,17.44-68.65,26.15-102.97
		c-0.52-0.26-1.05-0.52-1.57-0.78c-11.23,12.25-22.46,24.5-34.79,37.95c0.83-24.96,1.56-48.11,2.47-71.25
		c0.06-1.52,1.1-3.85,2.29-4.34c16.23-6.78,13.21-19.56,10.34-33.44c-15.11,6.7-29.84,13.22-45.45,20.14
		c3.78-16.6,7.29-31.91,10.75-47.23c5.4-23.89,10.29-47.9,16.41-71.6c1.89-7.33,6.99-13.85,10.81-20.64
		c3.1-5.5,6.5-10.83,10.37-17.23c-11.01,0-20.31,0-30.35,0c9.41-20.93,19.59-41.42,27.79-62.68c4.54-11.77,12.48-19.03,22.24-25.5
		c9.27-6.14,18.3-12.68,27.79-18.46c2.96-1.81,7.26-2.8,10.64-2.26c7.52,1.19,14.85,3.59,24.22,6
		c-7.49-11.54-14.17-21.82-21.6-33.28c20.81-3.49,40.39-6.78,59.98-10.07c0.2-0.67,0.41-1.34,0.61-2.01
		c-10.32-6.26-20.64-12.51-32.9-19.95c10.23,0.79,18.42,1.29,26.59,2.09c24.96,2.43,49.9,5.04,74.87,7.44
		c5.54,0.53,9.35,2.42,12.43,7.67c8.11,13.81,17.08,27.12,26.21,41.41c2.08-2.35,4.23-4.27,5.76-6.6
		c8.02-12.16,15.68-24.58,23.97-36.55c1.81-2.62,5.56-5.07,8.66-5.43c33.5-3.82,67.05-7.2,101.38-9.33
		c-10.06,6.38-20.11,12.77-32.05,20.34c21.93,3.66,41.76,6.97,62.99,10.51c-7.65,11.18-14.68,21.45-22.76,33.26
		c9.54-2.57,17.23-4.9,25.05-6.58c2.54-0.54,5.99-0.2,8.1,1.16c12.65,8.23,25.42,16.38,37.33,25.62
		c5.38,4.18,9.99,10.27,12.97,16.46c9.97,20.7,19.04,41.84,28.45,62.81c0.79,1.76,1.47,3.56,2.63,6.4
		c-10.37-0.62-19.84-1.18-30.75-1.83c4.86,7.9,9.29,14.68,13.27,21.71c3.07,5.41,6.68,10.87,8.13,16.78
		c3.66,14.92,5.95,30.17,9.3,45.17c5.06,22.66,10.58,45.21,15.85,67.82c0.42,1.81,0.43,3.72,0.7,6.33
		c-15.59-7.1-30.32-13.82-45.82-20.88c-0.55,7.06-1.57,13.41-1.27,19.71c0.11,2.3,2.98,5.01,5.25,6.55
		c7.61,5.16,10.73,11.63,10.37,21.18c-0.76,20.08-0.23,40.21-0.23,61.03c-10.95-11.93-22.27-24.26-33.58-36.59
		c-0.39,0.13-0.78,0.26-1.18,0.38c9.25,36.02,18.51,72.04,27.76,108.05c-0.39,0.15-0.78,0.3-1.18,0.45
		c-6.66-8.36-13.31-16.72-20.79-26.12c-6.71,26.49-13.15,51.9-19.58,77.31c-0.47,0-0.95,0.01-1.42,0.01
		c-0.96-5.31-1.91-10.63-2.87-15.94c-0.85-0.07-1.71-0.13-2.56-0.2c-2.41,13.96-4.82,27.92-7.51,43.44
		c-7.1-9.14-13.43-17.3-20.36-26.22c-13.42,20.33-26.74,40.49-40.05,60.65c-0.59-0.31-1.18-0.63-1.77-0.94c0-12.27,0-24.53,0-38.08
		c-7.77,7.41-14.93,14.23-22.09,21.04c-4.28,4.07-8.62,8.09-12.85,12.22c-4.56,4.46-9.97,8.34-10.39,15.68
		c-0.09,1.51-1.17,3.67-2.41,4.29c-13.25,6.58-26.63,12.91-41.41,19.99c1.13-13.35,2.15-25.08,3.09-36.82
		c0.13-1.61,0.53-3.74-0.28-4.8c-11.3-14.64-22.79-29.14-34.25-43.65c-0.4-0.51-1.11-0.78-1.84-1.27
		c-7.94,10.33-15.76,20.45-23.53,30.61c-1.36,1.77-2.12,4.32-3.85,5.43c-10.1,6.51-8.54,16.03-7.27,25.69
		c1,7.6,1.59,15.25,2.49,24.22c-8.06-3.81-15.05-7.1-22.02-10.43c-4.46-2.13-9.24-3.84-13.24-6.64c-3.13-2.19-5.53-5.61-7.81-8.8
		c-1.53-2.14-1.71-5.42-3.49-7.18c-13.13-13.05-26.5-25.87-39.86-38.69c-0.57-0.55-1.85-0.36-3.2-0.58
		C544.36,638.73,544.36,651.19,544.36,664.48z M753.28,429.76c4.88-13.18-2.95-20.88-10.88-27.41c-3.65-3.01-12.22-5.4-14.81-3.34
		c-7.88,6.26-13.87,14.88-20.71,22.47c-5.05,5.61-6.05,14.87-15.55,16.53c-6.09,1.06-11.96,3.36-18.05,4.39
		c-13.13,2.23-24.57-4.01-36.33-8.22c-1.55-0.55-3.03-2.68-3.59-4.39c-3.84-11.59-11.99-19.54-21.21-26.96
		c-7.3-5.87-16.32-5.42-22.49,1.88c-2.52,2.98-6.59,4.99-8.18,8.3c-1.84,3.84-2.29,8.65-2.1,12.98c0.06,1.23,4.44,3.05,6.93,3.22
		c6.6,0.45,13.24,0.15,19.87,0.15c-7.26,4.3-14.6,6.49-21.7,9.31c-1.96,0.78-4.27,3.29-4.53,5.26c-1.69,12.44,5.5,17.72,17.19,12.94
		c3.56-1.46,7.08-3.02,10.61-4.54c0.24,0.24,0.48,0.48,0.72,0.73c-3.78,4.26-7.56,8.51-10.32,11.62c3.35,5.45,6.25,10.16,8.47,13.77
		c20.27-3.69,40.67-10.31,61.07-10.29c20.32,0.02,40.64,6.69,60.46,10.35c2.36-3.88,5.1-8.38,8.3-13.65
		c-3-3.46-6.67-7.69-10.34-11.92c3.78,0.65,6.6,2.13,9.37,3.69c5.49,3.08,10.54,4.66,15.64-1.23c5.62-6.51,3.51-16.66-4.54-19.04
		c-6.2-1.83-12.47-3.44-18.71-5.15c0.11-0.48,0.23-0.97,0.34-1.45C736.57,429.76,744.94,429.76,753.28,429.76z M413.14,229.49
		c51.72,0.06,100.46-10.16,149.21-22.07c-12.71-7.74-25.63-14.42-38.33-21.5c-3.54-1.97-7.48-4.49-9.42-7.82
		c-5.19-8.9-9.26-18.44-14.04-27.59c-3.68-7.05-7.77-13.89-11.69-20.86c-11.08,7.21-21.44,13.89-31.73,20.68
		c-8.2,5.41-14.45,12.2-18.16,21.71c-4.3,11.01-10.02,21.45-14.93,32.22C420.39,212.29,417.04,220.46,413.14,229.49z M772.23,207.25
		c49.38,12.45,97.6,20.64,147.88,21.64c-4.59-9.54-9.11-18.73-13.45-28.01c-6.16-13.16-12.09-26.44-18.39-39.53
		c-1.1-2.29-3.26-4.36-5.41-5.83c-12.23-8.31-24.6-16.4-38.02-25.29c-7.43,14.49-15.23,28.38-21.69,42.86
		c-3.35,7.51-8.61,11.34-15.47,14.76C796.08,193.67,784.86,200.29,772.23,207.25z M538.25,644.56c0.56-1.34,0.91-1.77,0.9-2.2
		c-1.28-51.65-3.19-103.29-3.47-154.95c-0.07-13.72-6.02-22.99-13.68-32.93c-6.71,5.15-13.15,10.14-19.65,15.06
		c-4.95,3.76-7.63,8.51-8.74,14.81c-3.85,21.99-8.47,43.85-12.15,65.86c-0.69,4.14,0.39,9.51,2.63,13.07
		c14.21,22.61,28.91,44.91,43.59,67.23C530.74,635.16,534.38,639.45,538.25,644.56z M811.82,455.01
		c-6.13,7.77-12.06,15.22-12.28,26.02c-1.1,53.41-2.57,106.81-3.87,160.22c-0.02,0.78,0.41,1.58,0.68,2.54
		c5.72-8.05,11.32-15.48,16.43-23.23c9.1-13.81,17.89-27.82,26.87-41.71c0.9-1.39,2.59-2.3,3.34-3.73
		c3.59-6.84,10.71-14.34,9.8-20.61c-3.8-26.07-9.95-51.81-15.52-77.6c-0.51-2.37-2.66-4.77-4.68-6.37
		C826.05,465.33,819.2,460.48,811.82,455.01z M704.54,649.75c1.17-7.77,2.19-13.58,2.89-19.42c2.3-19.1,6.95-38.22-1.19-57.16
		c-2.6-6.05-4.69-12.33-6.71-18.61c-2.9-9-9.56-10.6-16.55-3.87c-3.93,3.78-7.91,7.52-12.02,11.1c-2.78,2.42-5.14,2.52-8.07-0.72
		c-4.09-4.53-8.76-8.67-13.71-12.24c-5.83-4.2-13.64-2.29-15.23,4.46c-4.32,18.36-13.55,35.81-9.62,55.81
		c2.49,12.68,3.29,25.69,5.09,40.57c13.08-16.43,24.86-31.22,37.88-47.57C679.33,617.51,691.32,632.85,704.54,649.75z
		 M514.77,254.18c-0.09-0.83-0.18-1.65-0.27-2.48c-8.48,0-17.3-1.51-25.37,0.29c-21.52,4.82-42.76,10.94-64,16.91
		c-2.22,0.62-4.88,3.37-5.46,5.62c-4.95,19.16-9.57,38.4-14.06,57.67c-3.09,13.29-5.89,26.65-8.64,40.01
		c-0.7,3.41-0.74,6.96-1.17,11.28c12.79-5.91,24.28-11.1,35.63-16.56c2.09-1.01,4.26-2.78,5.36-4.77
		c3.57-6.45,6.87-13.07,9.89-19.79c8.91-19.85,17.61-39.8,26.51-59.66c0.87-1.93,2.21-4.04,3.93-5.13
		C489.57,269.64,502.19,261.94,514.77,254.18z M821.16,253.81c7.92,4.86,15.48,9.03,22.51,13.95c6.57,4.6,15.07,8.74,18.37,15.28
		c10.9,21.6,19.64,44.29,29.64,66.36c2.57,5.67,5.57,12.55,10.42,15.5c10.82,6.58,22.94,11.02,36.46,17.22
		c-4.06-15.82-8.02-29.71-11.15-43.79c-4.46-20.09-8.35-40.31-12.37-60.5c-0.91-4.6-3.07-7.14-7.9-8.38
		c-13.69-3.49-27.18-7.78-40.86-11.35C851.83,254.33,837.57,248.05,821.16,253.81z M544.29,70.7c7.94,4.56,14.76,7.84,20.87,12.15
		c7.59,5.36,16.16,10.41,21.44,17.69c7.44,10.25,12.3,22.39,18.17,33.77c8.5,16.45,16.85,32.97,25.47,49.36
		c1.02,1.95,3.34,3.21,5.06,4.79c1.27-1.67,2.88-3.18,3.76-5.03c4.84-10.2,9.6-20.45,14.21-30.76c2.93-6.56,5.91-13.14,8.14-19.95
		c0.77-2.34,0.11-5.87-1.21-8.05c-7.29-11.99-14.91-23.78-22.6-35.52c-3.74-5.7-8.58-9.39-16.05-9.75
		c-9.39-0.45-18.72-2.05-28.07-3.12C577.61,74.46,561.75,72.68,544.29,70.7z M786.36,71.43c-27.86,3.1-54.48,6.01-81.06,9.16
		c-1.84,0.22-4.07,1.85-5.11,3.47c-8.69,13.49-17.37,27-25.47,40.85c-1.49,2.54-1.45,7.1-0.23,9.91
		c6.3,14.53,13.22,28.78,19.89,43.14c1.4,3.02,2.63,6.11,4.48,10.45c3.25-4.18,6.13-6.94,7.91-10.29
		c13.4-25.24,26.47-50.65,39.95-75.85c1.88-3.51,5.06-6.66,8.32-9.05C764.92,85.97,775.14,79.18,786.36,71.43z M721.74,392.4
		c-4.62-10.56-9.37-20.05-12.93-29.96c-3.35-9.35-9.36-15.26-18.36-18.83c-6.21-2.47-12.06-5.91-18.37-8.02
		c-3.11-1.04-7.27-0.99-10.3,0.22c-9.19,3.65-18.13,7.96-27,12.34c-1.98,0.98-3.82,3.05-4.83,5.07
		c-5.28,10.59-10.45,21.25-15.22,32.08c-1.1,2.5-1.73,6.81-0.37,8.47c3.5,4.25,8.25,7.46,12.76,11.32
		c12.07-6.85,23.77-13.8,35.82-20.06c2.47-1.28,6.77-1,9.37,0.29c8.19,4.06,16.04,8.84,23.9,13.54c11.58,6.92,11.52,6.98,20.85-2.24
		C718.8,394.91,720.68,393.35,721.74,392.4z M598.47,182.95c4.32,0.79,7.49,1.06,10.45,1.98c3.53,1.1,6.81,2.96,10.33,4.1
		c1.63,0.53,3.55,0.14,5.34,0.16c-0.09-1.77,0.36-3.82-0.38-5.25c-3.02-5.86-6.62-11.43-9.62-17.31
		c-9.76-19.12-19.37-38.32-29.01-57.51c-6.48-12.89-17.03-18.36-31-16.03c-1.96,0.33-3.93,0.51-5.89,0.81
		c-13.81,2.15-27.61,4.31-42.58,6.65c7.58,10.99,14.49,21.07,21.52,31.06c0.63,0.9,2.01,1.46,3.15,1.79
		c11.16,3.3,22.45,6.19,33.46,9.93c3.84,1.31,7.79,4.02,10.29,7.2C583.2,161.56,591.24,173.07,598.47,182.95z M736.02,184.93
		c4.28-6.45,9.91-14.81,15.42-23.25c6.95-10.66,14.35-20.23,28.58-21.75c6.78-0.73,13.59-3.07,19.9-5.82
		c4.21-1.84,8.41-5.06,11.1-8.76c5.59-7.68,10.17-16.09,15.42-24.61c-17.3-2.72-34.39-5.43-51.48-8.1
		c-8.4-1.31-19.75,4.47-23.69,12.17c-9,17.6-17.87,35.26-26.92,52.84c-4.39,8.53-9.16,16.86-13.47,25.42
		c-0.84,1.68-0.34,4.03-0.45,6.07c2.05-0.26,4.18-0.25,6.13-0.83c3.07-0.92,5.93-2.62,9.03-3.27
		C728.27,184.48,731.16,184.93,736.02,184.93z M441.36,388.67c2.33-0.84,4.1-1.06,5.33-1.99c11.98-9.1,23.92-18.25,35.73-27.55
		c2.67-2.11,5.56-4.5,7.08-7.42c6.12-11.82,11.68-23.94,17.59-35.87c2.16-4.35,4.84-8.44,7.08-12.76
		c4.37-8.41,8.61-16.79,4.39-26.77c-1.38-3.27-2.57-5.01-6.43-3.81c-9.47,2.93-19.16,5.2-28.44,8.6c-3.27,1.2-6.77,4.36-8.23,7.53
		c-9.9,21.29-17.91,43.59-29.34,63.99C439.44,364.5,440.4,375.39,441.36,388.67z M615.93,520.79c-0.62,0.3-1.23,0.6-1.85,0.91
		c-7.93,27.25-15.31,54.67-24.02,81.67c-4.86,15.06-5.28,29.29,0.12,44.11c2.53,6.95,3.55,14.44,5.37,21.66
		c0.47,1.87,0.85,4.65,2.13,5.3c9.34,4.72,18.91,9,30.28,14.29c-3.42-30.77-6.61-59.61-9.89-88.44c-0.29-2.57-2.2-5.36-1.6-7.56
		c3.47-12.59,7.5-25.03,11.24-37.55c0.4-1.35,0.67-3.08,0.19-4.32C624.03,540.79,619.95,530.8,615.93,520.79z M707.03,688.5
		c8.47-3.91,15.92-6.71,22.64-10.73c3.37-2.02,6.6-5.86,7.83-9.57c4.1-12.32,7.51-24.89,10.62-37.5c0.95-3.84,0.94-8.36-0.1-12.17
		c-4.55-16.57-9.73-32.97-14.53-49.48c-3.39-11.66-6.41-23.43-9.92-35.04c-0.98-3.23-3.15-6.1-5-9.57
		c-3.44,8.01-6.85,14.84-9.26,22.01c-1.31,3.9-2.36,8.87-1.08,12.49c8.26,23.26,9.27,46.61,4.96,70.91
		C709.82,648.79,709.06,668.19,707.03,688.5z M816.19,271.16c0,7.7-1.93,15.14,0.36,20.89c6.75,16.92,14.84,33.34,23.13,49.59
		c3.03,5.94,7.48,11.51,12.38,16.07c7.2,6.72,15.32,12.46,23.18,18.46c4.91,3.75,10.05,7.19,14.93,10.66
		c4.42-13.51,1.52-25.23-4.27-37.07c-8.44-17.24-15.53-35.13-23.82-52.44c-3.79-7.92-7.31-16.44-18.09-18.36
		C835.31,277.41,826.92,274.25,816.19,271.16z M533.06,390.12c-2.27,2.9-4.41,5.22-6.08,7.83c-5.7,8.93-11.31,17.92-16.83,26.97
		c-14.42,23.62-28.74,47.3-43.17,70.91c-2.56,4.19-5.84,7.96-8.1,12.29c-2.1,4-5.32,8.91-4.52,12.67
		c3.86,18.08,8.9,35.92,13.59,53.82c0.19,0.72,1.1,1.26,1.62,1.82c3.65-15.17,7.59-29.86,10.66-44.74
		c3.76-18.21,6.72-36.58,10.2-54.85c0.49-2.56,1.24-5.85,3.06-7.26c12.46-9.66,25.33-18.81,37.9-28.34
		c8.39-6.36,16.51-13.07,25.11-19.92C548.61,410.83,541.24,401.02,533.06,390.12z M631.76,293.11c5.88-8.26,11.55-15.93,16.81-23.89
		c0.99-1.5,0.82-4.28,0.26-6.19c-3.56-12.15-7.28-24.24-11.2-36.28c-0.61-1.86-2.2-3.71-3.82-4.88c-4.02-2.9-8.12-5.82-12.55-7.98
		c-9.29-4.52-17.3-12.32-29.54-8.91c-6.48,1.81-8.08,4.2-6.57,10.15c4.28,16.85,8.11,33.83,12.88,50.54
		c1.18,4.12,4.6,8.28,8.12,10.91C613.64,282.2,621.88,286.84,631.76,293.11z M423.32,464.36c0.99,0.43,1.98,0.86,2.97,1.28
		c31.33-34.59,62.67-69.19,94-103.78c-0.35-0.68-0.7-1.35-1.05-2.03c-7.07-0.34-14.22-0.12-21.17-1.2
		c-5.54-0.86-9.24,0.97-13.35,4.26c-12.55,10.04-25.2,19.99-38.27,29.34c-9.77,6.98-20.52,11.87-20.07,27.23
		C426.82,434.38,424.46,449.39,423.32,464.36z M752.52,205.64c-10.71-0.46-19.35-3.21-28.03,2.92c-6.81,4.8-14.99,7.6-22.21,11.89
		c-2.45,1.45-4.57,4.45-5.57,7.21c-2.96,8.16-4.07,17.2-8.15,24.68c-5.08,9.31-6.23,16.38,2.26,24.3c4.72,4.4,7.6,10.79,11.37,16.39
		c8.3-4.81,15.6-9.39,23.22-13.37c5.96-3.11,9.56-7.4,10.4-14.19c0.45-3.67,1.51-7.28,2.54-10.86
		C742.91,238.64,747.57,222.7,752.52,205.64z M863.91,574.46c0.53-0.08,1.06-0.16,1.59-0.25c0.3-1.19,0.58-2.39,0.91-3.57
		c4.37-15.67,8.83-31.32,13.05-47.03c0.66-2.47,1.3-5.88,0.15-7.74c-7.08-11.47-14.95-22.44-22.03-33.91
		c-14.37-23.29-28.33-46.83-42.61-70.17c-4.29-7-9.09-13.69-13.99-21.04c-7.68,10.44-14.9,20.26-22.39,30.43
		c21.09,16.51,41.36,32.27,61.45,48.27c2.03,1.61,3.66,4.5,4.2,7.06c2.61,12.38,4.64,24.87,7.13,37.27
		C855.45,534.03,859.72,554.24,863.91,574.46z M607.15,486.74c-0.76,6.31,2.26,9.27,6.79,11.83c9.69,5.47,18.66,12.43,28.75,16.91
		c15.4,6.82,32.42,5.77,47.68,1.3c12.1-3.55,22.61-12.87,33.45-20.18c2.13-1.43,3.14-5.37,3.41-8.27c0.1-1.05-3.35-2.78-5.42-3.59
		c-3.45-1.35-7.03-2.63-10.67-3.16c-7.45-1.08-15.22-3.23-22.41-2.11c-15.99,2.49-31.58,1.54-47.28-1.31
		c-2.61-0.47-5.56-0.64-8.05,0.09C624.62,480.82,615.99,483.84,607.15,486.74z M435.85,530.64c0.71,0.29,1.41,0.58,2.12,0.86
		c3.09-4.33,6.45-8.5,9.21-13.04c9.53-15.63,18.82-31.42,28.28-47.09c6.25-10.36,12.58-20.66,18.96-30.94
		c10.66-17.17,21.46-34.25,31.98-51.51c1.08-1.76,1.58-4.94,0.72-6.61c-2.01-3.86-5.02-7.2-7.41-10.47
		c-4.88,4.61-9.72,8.79-14.1,13.41c-10.02,10.56-19.92,21.22-29.64,32.06c-4.12,4.59-8.8,9.21-11.18,14.71
		c-3.82,8.79-6.18,18.24-8.71,27.54c-3.59,13.18-6.52,26.54-10.21,39.68C442.9,509.81,439.21,520.18,435.85,530.64z M813.28,360.44
		c32.17,35.28,62.86,68.94,93.58,102.63c0-11.45-0.7-22.17,0.16-32.77c1.33-16.36-2.87-28.25-18.32-37.21
		c-15.05-8.73-28.02-21.04-42.01-31.64c-1.66-1.26-3.97-2.42-5.96-2.39C832.39,359.21,824.05,359.85,813.28,360.44z M894.13,527.86
		c0.44-0.25,0.87-0.51,1.31-0.76c-1.28-3.84-2.75-7.64-3.8-11.54c-7.2-26.94-14.26-53.92-21.54-80.84
		c-0.75-2.77-2.15-5.66-4.04-7.78c-12.6-14.16-25.34-28.2-38.21-42.13c-4.07-4.4-8.66-8.32-12.97-12.42
		c-0.44,0.36-0.67,0.49-0.83,0.67c-5.74,6.77-10.99,12.78-2.18,21.94c5.48,5.69,7.86,14.26,12.21,21.17
		c13.2,21,26.83,41.72,40,62.74c9.7,15.47,18.95,31.22,28.41,46.84C892.96,526.5,893.58,527.16,894.13,527.86z M654.25,271.32
		c-4.92,7.05-9.45,13.77-14.23,20.29c-3.06,4.17-3.58,8.28-1.78,13.16c3.93,10.68,8.25,21.47,0.75,32.48
		c-0.15,0.23,0.22,0.81,0.44,1.54c7.29-3.06,14.41-6.55,21.88-8.98c3.58-1.16,8.18-1.38,11.66-0.15
		c7.82,2.76,15.24,6.69,24.85,11.07c-5.75-10.75-8.98-20.16-3.24-29.98c5.65-9.66,2.72-17.79-4.24-25.35
		c-3.92-4.26-7.64-8.72-11.44-13.08C667.33,281.78,667.33,281.78,654.25,271.32z M756.16,404.08c3.38-9.7,5.86-19.21,9.95-27.96
		c5.51-11.78,12.34-22.94,18.42-34.47c1.08-2.04,2.26-4.9,1.64-6.81c-3.07-9.48-6.73-18.77-10.43-28.82
		c-1.79,1.57-3.39,2.29-3.78,3.43c-3.75,10.94-12,14.61-22.77,16.79c-14.83,3.01-13.99,3.88-14.39,19.61
		c-0.52,20.67,6.78,38.41,17.9,55.08C753.57,402.21,755.05,403.08,756.16,404.08z M495.24,129.09
		c7.35,14.67,14.29,27.63,20.32,40.99c2.76,6.12,6.78,9.9,12.59,12.73c10.2,4.97,20.19,10.4,30.29,15.58
		c2.23,1.14,4.59,2.03,9.46,4.15c0-17.44,0.17-32.79-0.21-48.12c-0.05-2-2.6-4.98-4.62-5.7c-8.86-3.12-17.94-5.66-26.98-8.24
		C523.1,136.77,510.07,133.22,495.24,129.09z M598.59,329.32c-14.39-5.01-33.39-3.04-39.57-23.59c-4.35,10.34-7.71,19.8-10.92,29.31
		c-0.35,1.03-0.21,2.5,0.27,3.48c5.04,10.24,9.24,21.06,15.58,30.42c6.16,9.1,10.27,18.38,11.33,29.19
		c0.21,2.18,0.82,4.31,1.46,7.56C599.36,384.03,597.8,356.99,598.59,329.32z M838.32,129.69c-25.17,7.07-48.16,13.52-71.19,19.99
		c1.27,16.8,2.48,32.87,3.78,50.06c7.75-3.63,15.09-7.02,22.39-10.51c13.53-6.46,25.61-13.69,30.2-30.02
		C826.27,149.36,832.72,140.55,838.32,129.69z M636.11,199.87c1.8,4.29,3.14,6.82,3.95,9.5c5.4,17.9,10.44,35.92,16.1,53.74
		c2.98,9.4,12.28,12.01,18.63,4.76c3.8-4.33,5.2-10.9,7.24-16.63c5.9-16.63,11.58-33.34,18.01-51.95
		c-10.04,6.04-17.97,10.54-25.6,15.5c-4.97,3.23-8.87,3.49-14.03-0.32C653.34,209.25,645.33,205.31,636.11,199.87z M574.96,505.23
		c-0.8-0.47-1.6-0.93-2.39-1.4c-9.66,10.48-19.43,20.86-28.88,31.54c-1.39,1.57-1.73,4.51-1.7,6.8c0.26,18.35,0.76,36.71,1.13,55.06
		c0.1,4.75,0.01,9.5,0.01,14.26c3.44-1.99,5.09-4.06,6.32-6.36c5.81-10.85,11.7-21.67,17.17-32.69c3.84-7.73,9.39-15.58,10.02-23.7
		C577.76,534.36,575.7,519.75,574.96,505.23z M759.62,504.02c-0.78,15.61-1.52,29.65-2.13,43.69c-0.06,1.39,0.5,2.93,1.14,4.22
		c9.47,19.26,19,38.49,28.55,57.72c0.17,0.33,0.66,0.51,1.51,1.13c0.24-1.42,0.53-2.52,0.59-3.63c1.03-20.52,2.11-41.04,2.96-61.58
		c0.12-2.78,0.05-6.45-1.56-8.27C780.94,526.35,770.73,515.82,759.62,504.02z M570.18,439.35c-0.96-0.35-1.92-0.7-2.88-1.04
		c-5.2,7.06-9.47,15.12-15.79,20.98c-11.54,10.71-12.34,23.47-11.1,37.69c0.89,10.14,0.17,20.42,0.17,30.64
		c0.83,0.08,1.67,0.16,2.5,0.24c9.54-9.54,19.13-19.03,28.56-28.68c1.28-1.31,2.28-3.35,2.51-5.16c1.25-9.83,2.28-19.69,3.22-29.55
		c0.13-1.32-0.58-2.77-1.07-4.1c-1.45-3.96-3.2-7.83-4.43-11.85C570.99,445.55,570.73,442.41,570.18,439.35z M584.52,655.01
		c0.56-0.44,1.12-0.88,1.67-1.31c-1.05-3.48-1.77-7.09-3.2-10.4c-4.47-10.35-5.82-20.59-1.81-31.58
		c4.04-11.07,7.19-22.48,10.52-33.8c2.42-8.21-2.71-17.64-11.57-21.43c-10.62,21.09-21.25,42.19-31.86,63.25
		C560.8,631.93,572.66,643.47,584.52,655.01z M752.84,555.93c-3.34,3.99-5.26,6.99-7.85,9.2c-3.8,3.26-3.93,6.65-2.56,11.17
		c4.73,15.61,9.11,31.33,13.48,47.04c0.29,1.04-0.59,2.39-0.9,3.6c-2.29,9.09-4.57,18.18-6.86,27.27
		c11.99-9.61,22.65-19.83,33.56-29.76c3.47-3.16,4.29-5.74,1.82-10.12c-5.92-10.51-11.23-21.36-16.82-32.05
		C762.29,573.82,757.82,565.39,752.84,555.93z M791.24,527.76c0.79-0.24,1.58-0.48,2.37-0.72c0-11.12-0.57-22.29,0.16-33.36
		c0.75-11.52,1.07-22-8.67-30.93c-7.24-6.64-12.68-15.25-19.12-23.22c-3,8.73-5.64,16.33-8.19,23.96c-0.21,0.64,0.19,1.46,0.23,2.2
		c0.28,4.71,0.68,9.41,0.78,14.12c0.22,10.45,2.49,19.64,11.21,26.88c6.58,5.47,11.88,12.49,17.82,18.74
		C788.76,526.4,790.1,526.99,791.24,527.76z M570.4,426.3c-0.15-21,0.6-39.3-11.48-56.1c-9.88-13.74-16.66-29.71-24.81-44.7
		c-3.56,13.06-5.65,25.92-7.4,38.82c-0.26,1.93,0.68,4.42,1.87,6.07c10.06,14.04,20.26,27.98,30.53,41.87
		C562.29,416.56,565.79,420.6,570.4,426.3z M422.18,263.76c0.5,0.54,1,1.08,1.5,1.62c9.66-2.76,19.28-5.71,29-8.25
		c21.15-5.53,41.69-14.35,64.58-9.89c5.02,0.98,10.85-2.18,16.31-3.43c-0.07-0.9-0.15-1.81-0.22-2.71
		c-3.43-0.9-6.83-2.02-10.31-2.67c-18.83-3.53-36.9-9.85-56.95-8.29c-16.61,1.29-28.75,5.12-35.06,21.61
		C429.3,256.23,425.19,259.78,422.18,263.76z M595.99,557.58c1.94-3.93,4.2-7.23,5.27-10.88c3.44-11.66,6.67-23.4,9.42-35.25
		c0.49-2.13-0.95-6.03-2.72-7.12c-7.01-4.33-10.12-10.67-10.54-18.35c-0.49-8.95-5.91-14.12-13.58-19.69
		c-1,4.23-2.47,7.68-2.51,11.15c-0.23,16.09,0.54,32.22-0.22,48.28C580.47,539.08,584.92,549.34,595.99,557.58z M764.87,425.55
		c2.34-3.65,4.48-7.46,7.06-10.94c10.84-14.65,21.89-29.15,32.64-43.87c1.29-1.77,1.92-4.64,1.65-6.84
		c-1.54-12.41-3.45-24.77-5.43-38.56c-10.6,18.73-20.08,36.47-30.52,53.64C761.32,393.71,767.68,409.96,764.87,425.55z M736.22,559
		c6.62-3.46,14.63-13.36,14.86-18.23c0.71-15.39,1.74-30.78,1.76-46.17c0.01-8.68-1.72-17.37-2.73-26.69
		c-11.73,7.55-12.13,7.49-13.71,18.66c-1.25,8.82-3.98,16.16-12.65,20.06c-0.32,0.14-0.38,0.86,0.01-0.1
		C728.07,524.75,732.12,541.78,736.22,559z M802.6,244.06c5.24,0.93,10.72,3.3,15.69,2.52c18.28-2.89,35.33,1.41,52.46,6.71
		c12.37,3.83,24.97,6.89,38.9,10.69c-4.89-8.16-8.5-15.27-13.17-21.59c-2.87-3.89-6.97-8.7-11.19-9.49
		C857.09,227.61,829.86,233.57,802.6,244.06z M623.07,334.59c-9.32-23.82-34.44-25.98-52.07-38.62c13.53-8.55,29.27-7.99,40.28,1.76
		c4.74,4.2,8.11,2.52,12.73-1.16c-8.91-5.33-17.07-10.3-25.33-15.09c-2.09-1.21-4.62-2.8-6.79-2.59
		c-10.77,1.05-21.48,2.65-32.88,4.14c0.87,5.63,0.8,11.06,2.67,15.71c1.96,4.86,5.51,9.2,8.91,13.32c2.18,2.64,5.06,5.8,8.1,6.43
		C594.26,321.72,609.52,325.47,623.07,334.59z M711.54,335.37c13.71-11.19,29.28-13.37,44.44-16.84c2.42-0.55,5.61-1.97,6.59-3.92
		c4.89-9.75,9.15-19.81,14.31-31.25c-9.7-1.17-17.26-2.14-24.82-2.98c-4.4-0.49-9.68-2.48-13.08-0.8
		c-9.58,4.73-18.39,11-27.58,16.71c6.07,6.84,10.51,3.24,14.19-0.99c3.44-3.95,7.22-5.57,12.35-5.08c3.44,0.32,7.05-0.62,10.4,0.02
		c5.47,1.03,10.79,2.89,16.18,4.39c-0.06,0.86-0.13,1.72-0.19,2.58c-8.33,4.22-16.61,8.54-25,12.63
		C728.05,315.32,715.31,318.96,711.54,335.37z M543.57,327.31c4.25-9.85,9.22-17.87,10.95-26.54c1.35-6.75,1.22-17.04-2.85-20.88
		c-6.01-5.67-16.09-7.02-26.3-10.92C527.98,290.63,531.53,309.19,543.57,327.31z M809.63,267.55c-9.66,4.24-17.76,7.71-25.75,11.41
		c-1.12,0.52-2.18,2.06-2.46,3.31c-1.75,7.68-3.63,15.19,0.29,23.08c2.94,5.92,4.34,12.6,6.56,18.89c0.59,1.67,1.68,3.15,2.7,5.01
		C805.88,311.31,802.19,288.83,809.63,267.55z M701.16,408.36c-11.23-6.35-21.61-12.3-32.12-18.02c-1.23-0.67-3.51-0.57-4.76,0.14
		c-10.16,5.76-20.19,11.75-30.2,17.64C656.12,416.58,677.83,417.09,701.16,408.36z M747.45,270.62c20.03,7.58,37.98,4.65,55.17-7.32
		c-9.41-5.22-18.19-10.31-27.22-14.89c-1.61-0.82-5.01-0.31-6.35,0.93C761.64,256.2,754.61,263.48,747.45,270.62z M521.88,297.76
		c-9.54,19.29-18.3,36.99-27.43,55.44c8.85,0.44,17.08,0.86,26,1.3C522.75,335.93,527.47,318.07,521.88,297.76z M534.82,263.21
		c17.11,15.23,34.79,13,53.91,8.49c-8.52-7.93-16.31-15.34-24.34-22.49c-1.2-1.07-4.03-1.84-5.18-1.16
		C551.18,252.71,543.41,257.79,534.82,263.21z M779.87,231.6c-7.26-7.72-14.06-14.94-22.6-24.01c-5.18,20.45-9.94,39.22-15,59.21
		C755.31,254.59,767.28,243.38,779.87,231.6z M575.84,208.71c-3.43,4.41-5.17,6.78-7.05,9.03c-2.05,2.47-4.24,4.83-6.35,7.25
		c-5.75,6.61-5.3,10.57,1.53,15.95c3.08,2.43,5.95,5.13,8.79,7.84c5.99,5.72,11.89,11.52,17.82,17.29c0.6-0.33,1.19-0.65,1.79-0.98
		C587.07,247.01,581.77,228.92,575.84,208.71z M592.2,391.7c10.62-0.03,14.58-4.15,16.94-10.99c1.93-5.59,4.72-10.9,7.37-16.22
		c3.36-6.75,6.95-13.38,10.65-20.47c-7.63-4.09-14.22-7.63-21.75-11.67C604.18,353.03,606.72,373.51,592.2,391.7z M812.58,299.81
		c-5.35,18.59,0.91,35.98,1.52,53.19c8.47,0,15.94,0,24.95,0C829.93,334.67,821.43,317.6,812.58,299.81z M735.65,390.84
		c-2.78-19.29-5.54-38.34-8.33-57.68c-3.84,2.34-7.58,5.29-11.81,7.07c-6.69,2.81-6.3,6.89-3.62,12.3
		c4.92,9.93,9.89,19.85,14.19,30.04C728.27,387.75,731.03,391,735.65,390.84z M558.58,426.57c-10.78,8.21-21.27,16.2-31.65,24.11
		c3.86,5.62,7.4,10.77,11.43,16.64c7.36-9.63,14.15-18.92,21.39-27.83C563.54,434.83,564.1,430.98,558.58,426.57z M806.4,450.35
		c-10.51-7.85-20.48-15.3-30.23-22.59c-5.42,3.13-6.72,6.02-1.85,10.01c1.64,1.35,2.51,3.62,3.81,5.42
		c5.77,7.99,11.57,15.96,17.89,24.68C799.98,461.2,802.87,456.32,806.4,450.35z M486.79,615.52c4.62-5.48,8.72-9.71,11.93-14.53
		c1.03-1.54,0.44-5.15-0.72-6.99c-4.71-7.46-9.89-14.62-14.99-21.83c-1.18-1.67-2.72-3.09-4.46-5.03
		C481.37,583.66,483.98,598.97,486.79,615.52z M847.32,615.18c2.92-16.66,5.57-31.86,8.59-49.11c-6.94,10.01-12.9,18.26-18.4,26.81
		c-1.35,2.1-2.5,5.94-1.49,7.66C838.91,605.45,842.95,609.7,847.32,615.18z M706.89,301.46c-11.87,21.89-10.24,24.65-2.89,31.18
		c3.48-8.72,6.88-17.26,10.36-26.01C711.68,304.78,709.49,303.26,706.89,301.46z M629.6,331.42c0.61,0.07,1.22,0.14,1.84,0.22
		c1.56-3.35,5.01-7.18,4.31-9.95c-1.71-6.71-5.35-12.93-8.22-19.34c-0.65-0.25-1.3-0.5-1.95-0.75c-1.06,2.93-3.5,6.18-2.91,8.74
		C624.31,317.52,627.2,324.42,629.6,331.42z M798.16,254.19c0.65-0.67,1.3-1.34,1.95-2.01c-6.09-4.75-12.17-9.5-18.48-14.43
		c-0.71,0.78-2.34,2.54-4.42,4.8C784.5,246.6,791.33,250.4,798.16,254.19z M557.2,242.68c-6.65-5.4-15.96,0.04-19.78,10.23
		C543.85,249.58,550.16,246.32,557.2,242.68z"/>
	<path class="st0" d="M753.28,429.76c-8.34,0-16.7,0-25.07,0c-0.11,0.48-0.23,0.97-0.34,1.45c6.24,1.71,12.51,3.32,18.71,5.15
		c8.05,2.37,10.16,12.53,4.54,19.04c-5.09,5.89-10.14,4.31-15.64,1.23c-2.78-1.56-5.6-3.04-9.37-3.69
		c3.67,4.23,7.33,8.46,10.34,11.92c-3.2,5.27-5.94,9.77-8.3,13.65c-19.82-3.66-40.14-10.33-60.46-10.35
		c-20.4-0.02-40.8,6.6-61.07,10.29c-2.22-3.61-5.11-8.32-8.47-13.77c2.76-3.11,6.54-7.36,10.32-11.62
		c-0.24-0.24-0.48-0.48-0.72-0.73c-3.54,1.52-7.05,3.08-10.61,4.54c-11.69,4.78-18.88-0.5-17.19-12.94
		c0.27-1.97,2.58-4.48,4.53-5.26c7.09-2.82,14.43-5.01,21.7-9.31c-6.63,0-13.28,0.3-19.87-0.15c-2.49-0.17-6.87-1.99-6.93-3.22
		c-0.2-4.33,0.26-9.14,2.1-12.98c1.58-3.31,5.66-5.33,8.18-8.3c6.17-7.29,15.19-7.75,22.49-1.88c9.22,7.42,17.37,15.37,21.21,26.96
		c0.57,1.71,2.05,3.83,3.59,4.39c11.77,4.2,23.2,10.44,36.33,8.22c6.09-1.03,11.96-3.33,18.05-4.39c9.5-1.66,10.5-10.92,15.55-16.53
		c6.84-7.6,12.84-16.21,20.71-22.47c2.59-2.06,11.16,0.33,14.81,3.34C750.32,408.88,758.15,416.58,753.28,429.76z"/>
	<path class="st0" d="M413.14,229.49c3.89-9.03,7.25-17.2,10.91-25.22c4.91-10.77,10.64-21.21,14.93-32.22
		c3.71-9.51,9.96-16.3,18.16-21.71c10.29-6.79,20.65-13.46,31.73-20.68c3.92,6.97,8.01,13.81,11.69,20.86
		c4.78,9.15,8.85,18.69,14.04,27.59c1.94,3.33,5.88,5.85,9.42,7.82c12.7,7.07,25.61,13.76,38.33,21.5
		C513.61,219.32,464.86,229.55,413.14,229.49z"/>
	<path class="st0" d="M772.23,207.25c12.63-6.96,23.85-13.58,35.47-19.39c6.86-3.42,12.12-7.25,15.47-14.76
		c6.46-14.49,14.26-28.37,21.69-42.86c13.42,8.89,25.79,16.98,38.02,25.29c2.15,1.46,4.31,3.53,5.41,5.83
		c6.3,13.1,12.22,26.37,18.39,39.53c4.34,9.28,8.86,18.47,13.45,28.01C869.83,227.89,821.62,219.7,772.23,207.25z"/>
	<path class="st0" d="M538.25,644.56c-3.87-5.11-7.51-9.4-10.57-14.06c-14.68-22.31-29.38-44.61-43.59-67.23
		c-2.24-3.56-3.32-8.92-2.63-13.07c3.69-22.02,8.3-43.87,12.15-65.86c1.1-6.3,3.78-11.05,8.74-14.81
		c6.49-4.92,12.94-9.91,19.65-15.06c7.67,9.94,13.61,19.21,13.68,32.93c0.28,51.65,2.2,103.3,3.47,154.95
		C539.16,642.79,538.81,643.22,538.25,644.56z"/>
	<path class="st0" d="M811.82,455.01c7.39,5.47,14.23,10.32,20.79,15.53c2.01,1.6,4.16,4,4.68,6.37
		c5.57,25.8,11.72,51.53,15.52,77.6c0.91,6.27-6.21,13.76-9.8,20.61c-0.75,1.43-2.45,2.34-3.34,3.73
		c-8.99,13.88-17.77,27.9-26.87,41.71c-5.11,7.75-10.71,15.18-16.43,23.23c-0.27-0.96-0.7-1.76-0.68-2.54
		c1.3-53.41,2.77-106.81,3.87-160.22C799.76,470.23,805.69,462.78,811.82,455.01z"/>
	<path class="st0" d="M704.54,649.75c-13.21-16.9-25.21-32.24-37.24-47.64c-13.02,16.35-24.79,31.14-37.88,47.57
		c-1.8-14.88-2.6-27.89-5.09-40.57c-3.93-20.01,5.3-37.46,9.62-55.81c1.59-6.75,9.39-8.65,15.23-4.46
		c4.96,3.56,9.63,7.71,13.71,12.24c2.92,3.24,5.29,3.14,8.07,0.72c4.11-3.58,8.1-7.32,12.02-11.1c6.98-6.73,13.65-5.13,16.55,3.87
		c2.02,6.27,4.11,12.56,6.71,18.61c8.14,18.94,3.48,38.06,1.19,57.16C706.72,636.17,705.7,641.98,704.54,649.75z"/>
	<path class="st0" d="M514.77,254.18c-12.57,7.77-25.19,15.46-37.66,23.39c-1.72,1.09-3.07,3.2-3.93,5.13
		c-8.9,19.86-17.59,39.81-26.51,59.66c-3.02,6.73-6.33,13.34-9.89,19.79c-1.1,1.99-3.27,3.76-5.36,4.77
		c-11.36,5.46-22.85,10.65-35.63,16.56c0.43-4.33,0.47-7.87,1.17-11.28c2.75-13.36,5.55-26.72,8.64-40.01
		c4.49-19.27,9.11-38.51,14.06-57.67c0.58-2.25,3.24-4.99,5.46-5.62c21.25-5.97,42.48-12.09,64-16.91
		c8.08-1.81,16.89-0.29,25.37-0.29C514.58,252.52,514.68,253.35,514.77,254.18z"/>
	<path class="st0" d="M821.16,253.81c16.41-5.76,30.67,0.52,45.13,4.3c13.67,3.57,27.16,7.86,40.86,11.35
		c4.83,1.23,6.99,3.78,7.9,8.38c4.02,20.19,7.91,40.41,12.37,60.5c3.12,14.08,7.08,27.97,11.15,43.79
		c-13.52-6.2-25.63-10.65-36.46-17.22c-4.85-2.95-7.85-9.83-10.42-15.5c-10-22.07-18.74-44.75-29.64-66.36
		c-3.3-6.54-11.8-10.68-18.37-15.28C836.64,262.84,829.08,258.67,821.16,253.81z"/>
	<path class="st0" d="M544.29,70.7c17.46,1.98,33.32,3.76,49.18,5.57c9.36,1.07,18.69,2.67,28.07,3.12
		c7.47,0.35,12.32,4.05,16.05,9.75c7.69,11.74,15.31,23.53,22.6,35.52c1.33,2.18,1.98,5.71,1.21,8.05
		c-2.23,6.81-5.21,13.39-8.14,19.95c-4.61,10.31-9.36,20.56-14.21,30.76c-0.88,1.85-2.49,3.36-3.76,5.03
		c-1.72-1.58-4.04-2.84-5.06-4.79c-8.62-16.38-16.97-32.91-25.47-49.36c-5.88-11.38-10.73-23.52-18.17-33.77
		c-5.28-7.27-13.86-12.33-21.44-17.69C559.06,78.54,552.23,75.26,544.29,70.7z"/>
	<path class="st0" d="M786.36,71.43c-11.21,7.75-21.44,14.54-31.33,21.8c-3.26,2.39-6.44,5.53-8.32,9.05
		c-13.48,25.19-26.56,50.61-39.95,75.85c-1.78,3.35-4.65,6.12-7.91,10.29c-1.86-4.35-3.08-7.44-4.48-10.45
		c-6.66-14.37-13.59-28.62-19.89-43.14c-1.22-2.81-1.26-7.37,0.23-9.91c8.1-13.85,16.78-27.36,25.47-40.85
		c1.04-1.62,3.27-3.25,5.11-3.47C731.88,77.44,758.49,74.53,786.36,71.43z"/>
	<path class="st0" d="M721.74,392.4c-1.06,0.95-2.94,2.52-4.67,4.23c-9.33,9.21-9.28,9.16-20.85,2.24
		c-7.86-4.7-15.71-9.48-23.9-13.54c-2.6-1.29-6.9-1.57-9.37-0.29c-12.05,6.26-23.75,13.21-35.82,20.06
		c-4.52-3.86-9.26-7.08-12.76-11.32c-1.36-1.65-0.73-5.97,0.37-8.47c4.77-10.83,9.94-21.49,15.22-32.08
		c1.01-2.02,2.84-4.09,4.83-5.07c8.87-4.39,17.81-8.7,27-12.34c3.03-1.2,7.19-1.25,10.3-0.22c6.31,2.11,12.16,5.55,18.37,8.02
		c9,3.58,15.01,9.48,18.36,18.83C712.36,372.35,717.12,381.83,721.74,392.4z"/>
	<path class="st0" d="M598.47,182.95c-7.23-9.89-15.27-21.39-23.93-32.41c-2.5-3.18-6.45-5.9-10.29-7.2
		c-11-3.74-22.3-6.63-33.46-9.93c-1.14-0.34-2.52-0.89-3.15-1.79c-7.03-9.99-13.94-20.07-21.52-31.06
		c14.97-2.34,28.77-4.5,42.58-6.65c1.96-0.3,3.94-0.48,5.89-0.81c13.97-2.33,24.52,3.14,31,16.03
		c9.64,19.18,19.25,38.39,29.01,57.51c3,5.87,6.6,11.44,9.62,17.31c0.74,1.43,0.29,3.48,0.38,5.25c-1.79-0.03-3.72,0.36-5.34-0.16
		c-3.52-1.14-6.8-2.99-10.33-4.1C605.96,184.01,602.79,183.74,598.47,182.95z"/>
	<path class="st0" d="M736.02,184.93c-4.87,0-7.75-0.44-10.43,0.12c-3.1,0.65-5.97,2.35-9.03,3.27c-1.95,0.58-4.08,0.58-6.13,0.83
		c0.12-2.04-0.39-4.39,0.45-6.07c4.31-8.57,9.08-16.9,13.47-25.42c9.04-17.58,17.92-35.24,26.92-52.84
		c3.94-7.7,15.29-13.49,23.69-12.17c17.1,2.67,34.19,5.38,51.48,8.1c-5.25,8.51-9.83,16.93-15.42,24.61
		c-2.69,3.7-6.89,6.92-11.1,8.76c-6.3,2.75-13.11,5.09-19.9,5.82c-14.23,1.53-21.64,11.1-28.58,21.75
		C745.94,170.12,740.31,178.48,736.02,184.93z"/>
	<path class="st0" d="M441.36,388.67c-0.95-13.27-1.91-24.17,4.74-36.06c11.43-20.4,19.45-42.7,29.34-63.99
		c1.47-3.16,4.96-6.33,8.23-7.53c9.29-3.4,18.98-5.67,28.44-8.6c3.86-1.2,5.05,0.54,6.43,3.81c4.22,9.98-0.02,18.36-4.39,26.77
		c-2.24,4.32-4.93,8.4-7.08,12.76c-5.91,11.93-11.47,24.05-17.59,35.87c-1.51,2.92-4.4,5.32-7.08,7.42
		c-11.82,9.31-23.76,18.46-35.73,27.55C445.45,387.61,443.68,387.83,441.36,388.67z"/>
	<path class="st0" d="M615.93,520.79c4.02,10.01,8.1,20,11.99,30.07c0.48,1.24,0.21,2.96-0.19,4.32
		c-3.74,12.52-7.78,24.96-11.24,37.55c-0.61,2.2,1.3,4.99,1.6,7.56c3.28,28.83,6.46,57.67,9.89,88.44
		c-11.37-5.29-20.94-9.57-30.28-14.29c-1.28-0.65-1.66-3.43-2.13-5.3c-1.82-7.22-2.84-14.71-5.37-21.66
		c-5.4-14.82-4.98-29.04-0.12-44.11c8.71-26.99,16.08-54.42,24.02-81.67C614.7,521.39,615.31,521.09,615.93,520.79z"/>
	<path class="st0" d="M707.03,688.5c2.03-20.31,2.78-39.71,6.15-58.65c4.32-24.3,3.3-47.64-4.96-70.91
		c-1.28-3.62-0.24-8.6,1.08-12.49c2.41-7.17,5.82-14,9.26-22.01c1.85,3.46,4.03,6.33,5,9.57c3.52,11.62,6.53,23.39,9.92,35.04
		c4.8,16.5,9.98,32.91,14.53,49.48c1.05,3.8,1.05,8.33,0.1,12.17c-3.11,12.61-6.53,25.18-10.62,37.5c-1.23,3.71-4.46,7.55-7.83,9.57
		C722.95,681.79,715.5,684.59,707.03,688.5z"/>
	<path class="st0" d="M816.19,271.16c10.73,3.08,19.12,6.25,27.8,7.8c10.78,1.92,14.3,10.44,18.09,18.36
		c8.29,17.31,15.38,35.21,23.82,52.44c5.79,11.83,8.69,23.56,4.27,37.07c-4.88-3.47-10.02-6.91-14.93-10.66
		c-7.86-6-15.97-11.74-23.18-18.46c-4.9-4.56-9.35-10.13-12.38-16.07c-8.29-16.25-16.38-32.67-23.13-49.59
		C814.26,286.3,816.19,278.86,816.19,271.16z"/>
	<path class="st0" d="M533.06,390.12c8.19,10.9,15.55,20.71,23.43,31.19c-8.6,6.84-16.72,13.56-25.11,19.92
		c-12.57,9.53-25.44,18.68-37.9,28.34c-1.82,1.41-2.57,4.7-3.06,7.26c-3.48,18.27-6.44,36.64-10.2,54.85
		c-3.07,14.88-7.01,29.57-10.66,44.74c-0.52-0.56-1.43-1.09-1.62-1.82c-4.69-17.9-9.73-35.73-13.59-53.82
		c-0.8-3.76,2.42-8.67,4.52-12.67c2.27-4.32,5.54-8.1,8.1-12.29c14.43-23.61,28.76-47.29,43.17-70.91
		c5.52-9.04,11.12-18.04,16.83-26.97C528.65,395.34,530.78,393.02,533.06,390.12z"/>
	<path class="st0" d="M631.76,293.11c-9.88-6.27-18.12-10.91-25.63-16.53c-3.52-2.63-6.94-6.79-8.12-10.91
		c-4.77-16.71-8.6-33.69-12.88-50.54c-1.51-5.95,0.09-8.34,6.57-10.15c12.24-3.42,20.25,4.38,29.54,8.91
		c4.43,2.16,8.53,5.08,12.55,7.98c1.63,1.17,3.21,3.02,3.82,4.88c3.92,12.03,7.64,24.13,11.2,36.28c0.56,1.92,0.73,4.69-0.26,6.19
		C643.31,277.18,637.64,284.85,631.76,293.11z"/>
	<path class="st0" d="M423.32,464.36c1.14-14.97,3.5-29.98,3.07-44.9c-0.45-15.36,10.31-20.25,20.07-27.23
		c13.07-9.35,25.72-19.29,38.27-29.34c4.11-3.29,7.81-5.12,13.35-4.26c6.95,1.08,14.11,0.86,21.17,1.2c0.35,0.68,0.7,1.35,1.05,2.03
		c-31.33,34.59-62.67,69.19-94,103.78C425.3,465.21,424.31,464.78,423.32,464.36z"/>
	<path class="st0" d="M752.52,205.64c-4.95,17.06-9.6,33-14.17,48.96c-1.02,3.57-2.08,7.19-2.54,10.86
		c-0.84,6.78-4.44,11.07-10.4,14.19c-7.62,3.98-14.93,8.55-23.22,13.37c-3.77-5.59-6.65-11.99-11.37-16.39
		c-8.49-7.92-7.35-14.99-2.26-24.3c4.08-7.47,5.2-16.52,8.15-24.68c1-2.75,3.11-5.75,5.57-7.21c7.22-4.28,15.41-7.08,22.21-11.89
		C733.17,202.43,741.81,205.19,752.52,205.64z"/>
	<path class="st0" d="M863.91,574.46c-4.19-20.23-8.46-40.43-12.53-60.68c-2.49-12.4-4.52-24.9-7.13-37.27
		c-0.54-2.56-2.18-5.45-4.2-7.06c-20.09-16-40.37-31.76-61.45-48.27c7.48-10.17,14.7-19.98,22.39-30.43
		c4.91,7.34,9.71,14.03,13.99,21.04c14.28,23.34,28.24,46.88,42.61,70.17c7.08,11.47,14.95,22.44,22.03,33.91
		c1.15,1.86,0.51,5.27-0.15,7.74c-4.22,15.71-8.68,31.36-13.05,47.03c-0.33,1.18-0.61,2.38-0.91,3.57
		C864.97,574.3,864.44,574.38,863.91,574.46z"/>
	<path class="st0" d="M607.15,486.74c8.84-2.9,17.47-5.92,26.24-8.49c2.49-0.73,5.44-0.56,8.05-0.09
		c15.71,2.85,31.3,3.79,47.28,1.31c7.2-1.12,14.97,1.02,22.41,2.11c3.64,0.53,7.22,1.82,10.67,3.16c2.07,0.81,5.52,2.55,5.42,3.59
		c-0.27,2.9-1.28,6.83-3.41,8.27c-10.84,7.32-21.34,16.63-33.45,20.18c-15.26,4.48-32.28,5.53-47.68-1.3
		c-10.09-4.47-19.07-11.44-28.75-16.91C609.41,496.01,606.39,493.05,607.15,486.74z"/>
	<path class="st0" d="M435.85,530.64c3.36-10.46,7.05-20.83,10.01-31.4c3.69-13.15,6.62-26.5,10.21-39.68
		c2.53-9.29,4.89-18.75,8.71-27.54c2.39-5.49,7.06-10.12,11.18-14.71c9.72-10.83,19.62-21.5,29.64-32.06
		c4.38-4.62,9.22-8.8,14.1-13.41c2.4,3.27,5.41,6.6,7.41,10.47c0.87,1.67,0.36,4.85-0.72,6.61c-10.52,17.26-21.32,34.34-31.98,51.51
		c-6.38,10.27-12.71,20.58-18.96,30.94c-9.46,15.68-18.75,31.46-28.28,47.09c-2.76,4.53-6.13,8.7-9.21,13.04
		C437.26,531.21,436.56,530.93,435.85,530.64z"/>
	<path class="st0" d="M813.28,360.44c10.77-0.59,19.11-1.22,27.45-1.38c1.99-0.04,4.29,1.12,5.96,2.39
		c13.98,10.6,26.96,22.91,42.01,31.64c15.46,8.96,19.65,20.85,18.32,37.21c-0.86,10.6-0.16,21.32-0.16,32.77
		C876.14,429.37,845.45,395.72,813.28,360.44z"/>
	<path class="st0" d="M894.13,527.86c-0.55-0.7-1.17-1.36-1.63-2.11c-9.46-15.62-18.71-31.37-28.41-46.84
		c-13.17-21.01-26.8-41.74-40-62.74c-4.35-6.91-6.73-15.48-12.21-21.17c-8.82-9.16-3.56-15.16,2.18-21.94
		c0.16-0.19,0.38-0.32,0.83-0.67c4.31,4.1,8.9,8.02,12.97,12.42c12.87,13.92,25.61,27.96,38.21,42.13c1.89,2.13,3.29,5.01,4.04,7.78
		c7.27,26.92,14.33,53.9,21.54,80.84c1.04,3.91,2.52,7.7,3.8,11.54C895,527.35,894.56,527.6,894.13,527.86z"/>
	<path class="st0" d="M654.25,271.32c13.08,10.46,13.08,10.46,24.64,1.01c3.8,4.36,7.52,8.81,11.44,13.08
		c6.96,7.57,9.89,15.7,4.24,25.35c-5.74,9.82-2.51,19.23,3.24,29.98c-9.62-4.38-17.03-8.31-24.85-11.07
		c-3.48-1.23-8.09-1.01-11.66,0.15c-7.46,2.42-14.58,5.91-21.88,8.98c-0.22-0.73-0.59-1.32-0.44-1.54
		c7.5-11.01,3.17-21.8-0.75-32.48c-1.8-4.88-1.28-8.99,1.78-13.16C644.81,285.09,649.33,278.37,654.25,271.32z"/>
	<path class="st0" d="M756.16,404.08c-1.12-1-2.6-1.87-3.45-3.15c-11.12-16.67-18.42-34.42-17.9-55.08
		c0.4-15.72-0.44-16.6,14.39-19.61c10.77-2.18,19.02-5.85,22.77-16.79c0.39-1.13,1.99-1.85,3.78-3.43
		c3.71,10.05,7.36,19.34,10.43,28.82c0.62,1.91-0.57,4.77-1.64,6.81c-6.08,11.53-12.91,22.68-18.42,34.47
		C762.02,384.87,759.54,394.38,756.16,404.08z"/>
	<path class="st0" d="M495.24,129.09c14.84,4.13,27.87,7.68,40.85,11.38c9.05,2.58,18.12,5.12,26.98,8.24
		c2.03,0.71,4.57,3.7,4.62,5.7c0.38,15.33,0.21,30.68,0.21,48.12c-4.87-2.12-7.23-3.01-9.46-4.15
		c-10.11-5.18-20.09-10.61-30.29-15.58c-5.8-2.83-9.82-6.61-12.59-12.73C509.52,156.72,502.58,143.76,495.24,129.09z"/>
	<path class="st0" d="M598.59,329.32c-0.79,27.67,0.76,54.71-21.84,76.38c-0.64-3.24-1.25-5.38-1.46-7.56
		c-1.06-10.81-5.17-20.09-11.33-29.19c-6.34-9.36-10.55-20.19-15.58-30.42c-0.48-0.98-0.62-2.46-0.27-3.48
		c3.21-9.51,6.57-18.97,10.92-29.31C565.2,326.28,584.21,324.31,598.59,329.32z"/>
	<path class="st0" d="M838.32,129.69c-5.61,10.86-12.05,19.68-14.82,29.53c-4.59,16.32-16.67,23.55-30.2,30.02
		c-7.3,3.49-14.64,6.88-22.39,10.51c-1.3-17.19-2.51-33.27-3.78-50.06C790.16,143.21,813.15,136.76,838.32,129.69z"/>
	<path class="st0" d="M636.11,199.87c9.22,5.44,17.23,9.38,24.3,14.6c5.16,3.81,9.06,3.55,14.03,0.32
		c7.63-4.96,15.56-9.46,25.6-15.5c-6.43,18.61-12.11,35.32-18.01,51.95c-2.03,5.72-3.44,12.29-7.24,16.63
		c-6.35,7.25-15.65,4.64-18.63-4.76c-5.65-17.82-10.7-35.83-16.1-53.74C639.24,206.68,637.91,204.16,636.11,199.87z"/>
	<path class="st0" d="M574.96,505.23c0.73,14.51,2.8,29.13,1.69,43.5c-0.63,8.12-6.18,15.97-10.02,23.7
		c-5.47,11.02-11.36,21.84-17.17,32.69c-1.23,2.3-2.88,4.37-6.32,6.36c0-4.75,0.08-9.51-0.01-14.26
		c-0.37-18.35-0.86-36.7-1.13-55.06c-0.03-2.29,0.32-5.23,1.7-6.8c9.44-10.67,19.21-21.06,28.88-31.54
		C573.36,504.3,574.16,504.77,574.96,505.23z"/>
	<path class="st0" d="M759.62,504.02c11.11,11.8,21.32,22.33,31.06,33.28c1.61,1.81,1.68,5.49,1.56,8.27
		c-0.85,20.53-1.93,41.05-2.96,61.58c-0.06,1.11-0.35,2.21-0.59,3.63c-0.85-0.62-1.34-0.79-1.51-1.13
		c-9.54-19.23-19.08-38.46-28.55-57.72c-0.63-1.29-1.2-2.82-1.14-4.22C758.1,533.66,758.84,519.63,759.62,504.02z"/>
	<path class="st0" d="M570.18,439.35c0.55,3.06,0.81,6.2,1.71,9.15c1.23,4.03,2.97,7.89,4.43,11.85c0.49,1.33,1.19,2.78,1.07,4.1
		c-0.94,9.86-1.97,19.72-3.22,29.55c-0.23,1.82-1.23,3.85-2.51,5.16c-9.43,9.65-19.02,19.14-28.56,28.68
		c-0.83-0.08-1.67-0.16-2.5-0.24c0-10.22,0.71-20.5-0.17-30.64c-1.24-14.22-0.44-26.98,11.1-37.69
		c6.31-5.86,10.59-13.91,15.79-20.98C568.26,438.65,569.22,439,570.18,439.35z"/>
	<path class="st0" d="M584.52,655.01c-11.86-11.54-23.71-23.08-36.25-35.28c10.61-21.07,21.24-42.17,31.86-63.25
		c8.86,3.79,13.99,13.22,11.57,21.43c-3.33,11.32-6.48,22.73-10.52,33.8c-4.01,11-2.66,21.23,1.81,31.58
		c1.43,3.31,2.15,6.93,3.2,10.4C585.63,654.13,585.07,654.57,584.52,655.01z"/>
	<path class="st0" d="M752.84,555.93c4.98,9.46,9.46,17.9,13.88,26.36c5.59,10.69,10.9,21.54,16.82,32.05
		c2.47,4.38,1.65,6.96-1.82,10.12c-10.91,9.94-21.57,20.15-33.56,29.76c2.29-9.09,4.57-18.18,6.86-27.27
		c0.31-1.21,1.19-2.57,0.9-3.6c-4.37-15.72-8.75-31.43-13.48-47.04c-1.37-4.52-1.24-7.9,2.56-11.17
		C747.57,562.91,749.49,559.92,752.84,555.93z"/>
	<path class="st0" d="M791.24,527.76c-1.15-0.77-2.48-1.36-3.41-2.34c-5.94-6.25-11.24-13.27-17.82-18.74
		c-8.71-7.25-10.98-16.44-11.21-26.88c-0.1-4.71-0.5-9.41-0.78-14.12c-0.04-0.74-0.44-1.57-0.23-2.2
		c2.55-7.63,5.19-15.23,8.19-23.96c6.43,7.97,11.88,16.57,19.12,23.22c9.73,8.93,9.42,19.41,8.67,30.93
		c-0.72,11.08-0.16,22.24-0.16,33.36C792.82,527.28,792.03,527.52,791.24,527.76z"/>
	<path class="st0" d="M570.4,426.3c-4.61-5.71-8.12-9.74-11.29-14.03c-10.27-13.89-20.47-27.83-30.53-41.87
		c-1.19-1.66-2.13-4.15-1.87-6.07c1.74-12.9,3.84-25.76,7.4-38.82c8.15,14.98,14.94,30.96,24.81,44.7
		C571.01,387.01,570.25,405.3,570.4,426.3z"/>
	<path class="st0" d="M422.18,263.76c3.01-3.98,7.12-7.54,8.83-12.01c6.31-16.49,18.46-20.32,35.06-21.61
		c20.05-1.56,38.11,4.76,56.95,8.29c3.48,0.65,6.88,1.77,10.31,2.67c0.07,0.9,0.15,1.81,0.22,2.71c-5.46,1.25-11.29,4.41-16.31,3.43
		c-22.89-4.46-43.43,4.36-64.58,9.89c-9.72,2.54-19.34,5.49-29,8.25C423.17,264.84,422.68,264.3,422.18,263.76z"/>
	<path class="st0" d="M595.99,557.58c-11.07-8.24-15.53-18.5-14.89-31.85c0.76-16.06,0-32.19,0.22-48.28
		c0.05-3.47,1.52-6.92,2.51-11.15c7.67,5.57,13.1,10.74,13.58,19.69c0.42,7.67,3.53,14.02,10.54,18.35c1.77,1.09,3.21,5,2.72,7.12
		c-2.75,11.84-5.98,23.58-9.42,35.25C600.19,550.35,597.94,553.66,595.99,557.58z"/>
	<path class="st0" d="M764.87,425.55c2.8-15.59-3.55-31.84,5.4-46.57c10.43-17.17,19.92-34.92,30.52-53.64
		c1.99,13.79,3.89,26.15,5.43,38.56c0.27,2.21-0.35,5.07-1.65,6.84c-10.75,14.72-21.8,29.22-32.64,43.87
		C769.35,418.1,767.21,421.9,764.87,425.55z"/>
	<path class="st0" d="M736.22,559c-4.1-17.23-8.15-34.26-12.48-52.48c-0.39,0.96-0.33,0.25-0.01,0.1
		c8.67-3.9,11.4-11.23,12.65-20.06c1.58-11.17,1.98-11.11,13.71-18.66c1.02,9.32,2.75,18.01,2.73,26.69
		c-0.02,15.39-1.04,30.78-1.76,46.17C750.85,545.65,742.84,555.54,736.22,559z"/>
	<path class="st0" d="M802.6,244.06c27.26-10.49,54.49-16.45,82.7-11.17c4.22,0.79,8.31,5.6,11.19,9.49
		c4.67,6.33,8.28,13.43,13.17,21.59c-13.93-3.79-26.53-6.86-38.9-10.69c-17.14-5.31-34.18-9.6-52.46-6.71
		C813.32,247.37,807.85,244.99,802.6,244.06z"/>
	<path class="st0" d="M623.07,334.59c-13.55-9.12-28.81-12.87-44.36-16.09c-3.04-0.63-5.93-3.79-8.1-6.43
		c-3.4-4.12-6.95-8.46-8.91-13.32c-1.88-4.64-1.81-10.07-2.67-15.71c11.4-1.49,22.11-3.09,32.88-4.14c2.17-0.21,4.69,1.37,6.79,2.59
		c8.26,4.79,16.42,9.76,25.33,15.09c-4.62,3.68-7.99,5.36-12.73,1.16c-11.01-9.75-26.75-10.32-40.28-1.76
		C588.63,308.61,613.74,310.77,623.07,334.59z"/>
	<path class="st0" d="M711.54,335.37c3.77-16.41,16.51-20.05,27.77-25.53c8.39-4.09,16.67-8.41,25-12.63
		c0.06-0.86,0.13-1.72,0.19-2.58c-5.38-1.51-10.7-3.36-16.18-4.39c-3.35-0.63-6.96,0.31-10.4-0.02c-5.13-0.48-8.91,1.13-12.35,5.08
		c-3.68,4.23-8.13,7.83-14.19,0.99c9.19-5.71,18-11.99,27.58-16.71c3.41-1.68,8.68,0.32,13.08,0.8c7.57,0.84,15.12,1.81,24.82,2.98
		c-5.15,11.44-9.42,21.5-14.31,31.25c-0.98,1.95-4.17,3.37-6.59,3.92C740.82,322,725.25,324.19,711.54,335.37z"/>
	<path class="st0" d="M543.57,327.31c-12.03-18.12-15.58-36.68-18.2-58.34c10.21,3.9,20.3,5.25,26.3,10.92
		c4.07,3.84,4.2,14.12,2.85,20.88C552.79,309.44,547.81,317.46,543.57,327.31z"/>
	<path class="st0" d="M809.63,267.55c-7.44,21.28-3.74,43.76-18.65,61.69c-1.02-1.85-2.11-3.34-2.7-5.01
		c-2.22-6.29-3.62-12.97-6.56-18.89c-3.92-7.9-2.05-15.4-0.29-23.08c0.29-1.25,1.35-2.79,2.46-3.31
		C791.87,275.26,799.97,271.79,809.63,267.55z"/>
	<path class="st0" d="M701.16,408.36c-23.33,8.74-45.04,8.22-67.08-0.24c10.01-5.89,20.04-11.88,30.2-17.64
		c1.25-0.71,3.53-0.81,4.76-0.14C679.55,396.05,689.92,402.01,701.16,408.36z"/>
	<path class="st0" d="M747.45,270.62c7.16-7.14,14.19-14.42,21.6-21.29c1.34-1.24,4.74-1.74,6.35-0.93
		c9.03,4.58,17.81,9.67,27.22,14.89C785.43,275.27,767.48,278.2,747.45,270.62z"/>
	<path class="st0" d="M521.88,297.76c5.6,20.31,0.87,38.17-1.43,56.74c-8.92-0.45-17.15-0.86-26-1.3
		C503.58,334.75,512.33,317.05,521.88,297.76z"/>
	<path class="st0" d="M534.82,263.21c8.59-5.42,16.37-10.5,24.38-15.17c1.16-0.67,3.99,0.1,5.18,1.16
		c8.03,7.15,15.83,14.57,24.34,22.49C569.61,276.21,551.93,278.43,534.82,263.21z"/>
	<path class="st0" d="M779.87,231.6c-12.59,11.78-24.55,22.99-37.6,35.2c5.06-19.99,9.82-38.75,15-59.21
		C765.81,216.65,772.61,223.88,779.87,231.6z"/>
	<path class="st0" d="M575.84,208.71c5.93,20.21,11.23,38.3,16.54,56.38c-0.6,0.33-1.19,0.65-1.79,0.98
		c-5.94-5.77-11.84-11.58-17.82-17.29c-2.84-2.71-5.71-5.41-8.79-7.84c-6.83-5.38-7.28-9.34-1.53-15.95
		c2.11-2.42,4.3-4.78,6.35-7.25C570.67,215.49,572.41,213.12,575.84,208.71z"/>
	<path class="st0" d="M592.2,391.7c14.52-18.19,11.98-38.66,13.21-59.34c7.52,4.04,14.11,7.57,21.75,11.67
		c-3.7,7.09-7.29,13.72-10.65,20.47c-2.64,5.32-5.43,10.63-7.37,16.22C606.77,387.54,602.82,391.67,592.2,391.7z"/>
	<path class="st0" d="M812.58,299.81c8.85,17.78,17.35,34.86,26.47,53.19c-9.01,0-16.48,0-24.95,0
		C813.49,335.8,807.22,318.4,812.58,299.81z"/>
	<path class="st0" d="M735.65,390.84c-4.62,0.16-7.38-3.09-9.57-8.27c-4.31-10.2-9.28-20.12-14.19-30.04
		c-2.68-5.41-3.07-9.49,3.62-12.3c4.23-1.78,7.98-4.73,11.81-7.07C730.11,352.5,732.86,371.55,735.65,390.84z"/>
	<path class="st0" d="M558.58,426.57c5.52,4.41,4.96,8.26,1.17,12.92c-7.24,8.91-14.03,18.19-21.39,27.83
		c-4.03-5.87-7.57-11.02-11.43-16.64C537.31,442.77,547.8,434.78,558.58,426.57z"/>
	<path class="st0" d="M806.4,450.35c-3.54,5.97-6.42,10.84-10.38,17.52c-6.32-8.71-12.12-16.69-17.89-24.68
		c-1.3-1.8-2.16-4.07-3.81-5.42c-4.87-3.99-3.58-6.88,1.85-10.01C785.93,435.05,795.9,442.5,806.4,450.35z"/>
	<path class="st0" d="M486.79,615.52c-2.82-16.54-5.43-31.85-8.24-48.38c1.74,1.94,3.28,3.36,4.46,5.03
		c5.1,7.21,10.28,14.37,14.99,21.83c1.16,1.83,1.74,5.44,0.72,6.99C495.52,605.81,491.41,610.04,486.79,615.52z"/>
	<path class="st0" d="M847.32,615.18c-4.37-5.49-8.41-9.73-11.3-14.65c-1.01-1.72,0.14-5.55,1.49-7.66
		c5.5-8.55,11.46-16.8,18.4-26.81C852.89,583.32,850.23,598.52,847.32,615.18z"/>
	<path class="st0" d="M706.89,301.46c2.6,1.8,4.79,3.32,7.47,5.17c-3.49,8.75-6.89,17.28-10.36,26.01
		C696.66,326.11,695.02,323.35,706.89,301.46z"/>
	<path class="st0" d="M629.6,331.42c-2.4-7.01-5.29-13.9-6.93-21.08c-0.59-2.56,1.85-5.81,2.91-8.74c0.65,0.25,1.3,0.5,1.95,0.75
		c2.86,6.42,6.51,12.63,8.22,19.34c0.71,2.77-2.75,6.6-4.31,9.95C630.82,331.57,630.21,331.5,629.6,331.42z"/>
	<path class="st0" d="M798.16,254.19c-6.83-3.79-13.66-7.59-20.95-11.64c2.08-2.26,3.7-4.02,4.42-4.8
		c6.31,4.93,12.4,9.68,18.48,14.43C799.46,252.85,798.81,253.52,798.16,254.19z"/>
	<path class="st0" d="M557.2,242.68c-7.04,3.64-13.35,6.9-19.78,10.23C541.24,242.72,550.55,237.28,557.2,242.68z"/>
</g>
</svg>
