<?xml version="1.0" encoding="utf-8"?>
<!-- Generator: Adobe Illustrator 24.0.0, SVG Export Plug-In . SVG Version: 6.00 Build 0)  -->
<svg version="1.1" id="Capa_1" xmlns="http://www.w3.org/2000/svg" xmlns:xlink="http://www.w3.org/1999/xlink" x="0px" y="0px"
	 viewBox="0 0 1366 768" style="enable-background:new 0 0 1366 768;" xml:space="preserve">
<style type="text/css">
	.st0{fill:none;}
</style>
<g>
	<path class="st0" d="M966,725c-196.3,0-392.7,0-589,0c0-229.3,0-458.7,0-688c196.3,0,392.7,0,589,0C966,266.3,966,495.7,966,725z
		 M544.4,664.5c0-13.3,0-25.8,0-38.5c1.3,0.2,2.6,0,3.2,0.6c13.4,12.8,26.7,25.6,39.9,38.7c1.8,1.8,2,5,3.5,7.2
		c2.3,3.2,4.7,6.6,7.8,8.8c4,2.8,8.8,4.5,13.2,6.6c7,3.3,14,6.6,22,10.4c-0.9-9-1.5-16.6-2.5-24.2c-1.3-9.7-2.8-19.2,7.3-25.7
		c1.7-1.1,2.5-3.7,3.8-5.4c7.8-10.2,15.6-20.3,23.5-30.6c0.7,0.5,1.4,0.8,1.8,1.3c11.5,14.5,23,29,34.3,43.7c0.8,1,0.4,3.2,0.3,4.8
		c-0.9,11.7-2,23.5-3.1,36.8c14.8-7.1,28.2-13.4,41.4-20c1.2-0.6,2.3-2.8,2.4-4.3c0.4-7.3,5.8-11.2,10.4-15.7
		c4.2-4.1,8.6-8.2,12.8-12.2c7.2-6.8,14.3-13.6,22.1-21c0,13.5,0,25.8,0,38.1c0.6,0.3,1.2,0.6,1.8,0.9c13.3-20.2,26.6-40.3,40-60.7
		c6.9,8.9,13.3,17.1,20.4,26.2c2.7-15.5,5.1-29.5,7.5-43.4c0.8,0.1,1.7,0.1,2.6,0.2c1,5.3,1.9,10.6,2.9,15.9c0.5,0,1,0,1.4,0
		c6.4-25.4,12.9-50.8,19.6-77.3c7.5,9.4,14.1,17.8,20.8,26.1c0.4-0.2,0.8-0.3,1.2-0.5c-9.3-36-18.5-72-27.8-108
		c0.4-0.1,0.8-0.3,1.2-0.4c11.3,12.3,22.6,24.7,33.6,36.6c0-20.8-0.5-41,0.2-61c0.4-9.5-2.8-16-10.4-21.2c-2.3-1.5-5.1-4.3-5.3-6.5
		c-0.3-6.3,0.7-12.6,1.3-19.7c15.5,7.1,30.2,13.8,45.8,20.9c-0.3-2.6-0.3-4.5-0.7-6.3c-5.3-22.6-10.8-45.2-15.8-67.8
		c-3.3-15-5.6-30.3-9.3-45.2c-1.5-5.9-5.1-11.4-8.1-16.8c-4-7-8.4-13.8-13.3-21.7c10.9,0.6,20.4,1.2,30.8,1.8
		c-1.2-2.8-1.8-4.6-2.6-6.4c-9.4-21-18.5-42.1-28.5-62.8c-3-6.2-7.6-12.3-13-16.5c-11.9-9.3-24.7-17.4-37.3-25.6
		c-2.1-1.4-5.6-1.7-8.1-1.2c-7.8,1.7-15.5,4-25,6.6c8.1-11.8,15.1-22.1,22.8-33.3c-21.2-3.5-41.1-6.8-63-10.5
		c11.9-7.6,22-14,32-20.3c-34.3,2.1-67.9,5.5-101.4,9.3c-3.1,0.3-6.8,2.8-8.7,5.4c-8.3,12-16,24.4-24,36.5c-1.5,2.3-3.7,4.3-5.8,6.6
		c-9.1-14.3-18.1-27.6-26.2-41.4c-3.1-5.3-6.9-7.1-12.4-7.7c-25-2.4-49.9-5-74.9-7.4c-8.2-0.8-16.4-1.3-26.6-2.1
		c12.3,7.4,22.6,13.7,32.9,19.9c-0.2,0.7-0.4,1.3-0.6,2c-19.6,3.3-39.2,6.6-60,10.1c7.4,11.5,14.1,21.7,21.6,33.3
		c-9.4-2.4-16.7-4.8-24.2-6c-3.4-0.5-7.7,0.5-10.6,2.3c-9.5,5.8-18.5,12.3-27.8,18.5c-9.8,6.5-17.7,13.7-22.2,25.5
		c-8.2,21.3-18.4,41.8-27.8,62.7c10,0,19.4,0,30.4,0c-3.9,6.4-7.3,11.7-10.4,17.2c-3.8,6.8-8.9,13.3-10.8,20.6
		c-6.1,23.7-11,47.7-16.4,71.6c-3.5,15.3-7,30.6-10.8,47.2c15.6-6.9,30.3-13.5,45.5-20.1c2.9,13.9,5.9,26.7-10.3,33.4
		c-1.2,0.5-2.2,2.8-2.3,4.3c-0.9,23.1-1.6,46.3-2.5,71.3c12.3-13.5,23.6-25.7,34.8-38c0.5,0.3,1,0.5,1.6,0.8
		c-8.7,34.3-17.4,68.6-26.1,103c0.4,0.2,0.9,0.3,1.3,0.5c5.7-6.6,11.5-13.1,18.1-20.7c7.1,26.3,13.8,51,20.7,76.6
		c1.3-5.7,2.3-10.4,3.3-15.1c0.5,0,1.1,0.1,1.6,0.1c3.1,13.8,6.2,27.5,9.5,42c6.4-8.2,12.4-16,19-24.5
		C517.3,624,530.7,644,544.4,664.5z"/>
	<path d="M544.4,664.5c-13.7-20.5-27-40.5-40.7-60.9c-6.5,8.5-12.6,16.3-19,24.5c-3.3-14.5-6.4-28.2-9.5-42c-0.5,0-1.1-0.1-1.6-0.1
		c-1,4.7-2.1,9.4-3.3,15.1c-6.9-25.5-13.6-50.2-20.7-76.6c-6.7,7.6-12.4,14.2-18.1,20.7c-0.4-0.2-0.9-0.3-1.3-0.5
		c8.7-34.3,17.4-68.6,26.1-103c-0.5-0.3-1-0.5-1.6-0.8c-11.2,12.3-22.5,24.5-34.8,38c0.8-25,1.6-48.1,2.5-71.3
		c0.1-1.5,1.1-3.9,2.3-4.3c16.2-6.8,13.2-19.6,10.3-33.4c-15.1,6.7-29.8,13.2-45.5,20.1c3.8-16.6,7.3-31.9,10.8-47.2
		c5.4-23.9,10.3-47.9,16.4-71.6c1.9-7.3,7-13.9,10.8-20.6c3.1-5.5,6.5-10.8,10.4-17.2c-11,0-20.3,0-30.4,0
		c9.4-20.9,19.6-41.4,27.8-62.7c4.5-11.8,12.5-19,22.2-25.5c9.3-6.1,18.3-12.7,27.8-18.5c3-1.8,7.3-2.8,10.6-2.3
		c7.5,1.2,14.9,3.6,24.2,6c-7.5-11.5-14.2-21.8-21.6-33.3c20.8-3.5,40.4-6.8,60-10.1c0.2-0.7,0.4-1.3,0.6-2
		c-10.3-6.3-20.6-12.5-32.9-19.9c10.2,0.8,18.4,1.3,26.6,2.1c25,2.4,49.9,5,74.9,7.4c5.5,0.5,9.3,2.4,12.4,7.7
		c8.1,13.8,17.1,27.1,26.2,41.4c2.1-2.3,4.2-4.3,5.8-6.6c8-12.2,15.7-24.6,24-36.5c1.8-2.6,5.6-5.1,8.7-5.4
		c33.5-3.8,67-7.2,101.4-9.3c-10.1,6.4-20.1,12.8-32,20.3c21.9,3.7,41.8,7,63,10.5c-7.7,11.2-14.7,21.5-22.8,33.3
		c9.5-2.6,17.2-4.9,25-6.6c2.5-0.5,6-0.2,8.1,1.2c12.7,8.2,25.4,16.4,37.3,25.6c5.4,4.2,10,10.3,13,16.5c10,20.7,19,41.8,28.5,62.8
		c0.8,1.8,1.5,3.6,2.6,6.4c-10.4-0.6-19.8-1.2-30.8-1.8c4.9,7.9,9.3,14.7,13.3,21.7c3.1,5.4,6.7,10.9,8.1,16.8
		c3.7,14.9,6,30.2,9.3,45.2c5.1,22.7,10.6,45.2,15.8,67.8c0.4,1.8,0.4,3.7,0.7,6.3c-15.6-7.1-30.3-13.8-45.8-20.9
		c-0.5,7.1-1.6,13.4-1.3,19.7c0.1,2.3,3,5,5.3,6.5c7.6,5.2,10.7,11.6,10.4,21.2c-0.8,20.1-0.2,40.2-0.2,61
		c-11-11.9-22.3-24.3-33.6-36.6c-0.4,0.1-0.8,0.3-1.2,0.4c9.3,36,18.5,72,27.8,108c-0.4,0.2-0.8,0.3-1.2,0.5
		c-6.7-8.4-13.3-16.7-20.8-26.1c-6.7,26.5-13.2,51.9-19.6,77.3c-0.5,0-1,0-1.4,0c-1-5.3-1.9-10.6-2.9-15.9c-0.8-0.1-1.7-0.1-2.6-0.2
		c-2.4,14-4.8,27.9-7.5,43.4c-7.1-9.1-13.4-17.3-20.4-26.2c-13.4,20.3-26.7,40.5-40,60.7c-0.6-0.3-1.2-0.6-1.8-0.9
		c0-12.3,0-24.5,0-38.1c-7.8,7.4-14.9,14.2-22.1,21c-4.3,4.1-8.6,8.1-12.8,12.2c-4.6,4.5-10,8.3-10.4,15.7c-0.1,1.5-1.2,3.7-2.4,4.3
		c-13.3,6.6-26.6,12.9-41.4,20c1.1-13.3,2.2-25.1,3.1-36.8c0.1-1.6,0.5-3.7-0.3-4.8c-11.3-14.6-22.8-29.1-34.3-43.7
		c-0.4-0.5-1.1-0.8-1.8-1.3c-7.9,10.3-15.8,20.5-23.5,30.6c-1.4,1.8-2.1,4.3-3.8,5.4c-10.1,6.5-8.5,16-7.3,25.7
		c1,7.6,1.6,15.3,2.5,24.2c-8.1-3.8-15-7.1-22-10.4c-4.5-2.1-9.2-3.8-13.2-6.6c-3.1-2.2-5.5-5.6-7.8-8.8c-1.5-2.1-1.7-5.4-3.5-7.2
		c-13.1-13-26.5-25.9-39.9-38.7c-0.6-0.5-1.8-0.4-3.2-0.6C544.4,638.7,544.4,651.2,544.4,664.5z M753.3,429.8
		c4.9-13.2-3-20.9-10.9-27.4c-3.7-3-12.2-5.4-14.8-3.3c-7.9,6.3-13.9,14.9-20.7,22.5c-5,5.6-6,14.9-15.5,16.5
		c-6.1,1.1-12,3.4-18,4.4c-13.1,2.2-24.6-4-36.3-8.2c-1.5-0.5-3-2.7-3.6-4.4c-3.8-11.6-12-19.5-21.2-27c-7.3-5.9-16.3-5.4-22.5,1.9
		c-2.5,3-6.6,5-8.2,8.3c-1.8,3.8-2.3,8.6-2.1,13c0.1,1.2,4.4,3,6.9,3.2c6.6,0.5,13.2,0.1,19.9,0.1c-7.3,4.3-14.6,6.5-21.7,9.3
		c-2,0.8-4.3,3.3-4.5,5.3c-1.7,12.4,5.5,17.7,17.2,12.9c3.6-1.5,7.1-3,10.6-4.5c0.2,0.2,0.5,0.5,0.7,0.7c-3.8,4.3-7.6,8.5-10.3,11.6
		c3.3,5.5,6.3,10.2,8.5,13.8c20.3-3.7,40.7-10.3,61.1-10.3c20.3,0,40.6,6.7,60.5,10.4c2.4-3.9,5.1-8.4,8.3-13.6
		c-3-3.5-6.7-7.7-10.3-11.9c3.8,0.6,6.6,2.1,9.4,3.7c5.5,3.1,10.5,4.7,15.6-1.2c5.6-6.5,3.5-16.7-4.5-19c-6.2-1.8-12.5-3.4-18.7-5.1
		c0.1-0.5,0.2-1,0.3-1.5C736.6,429.8,744.9,429.8,753.3,429.8z M413.1,229.5c51.7,0.1,100.5-10.2,149.2-22.1
		c-12.7-7.7-25.6-14.4-38.3-21.5c-3.5-2-7.5-4.5-9.4-7.8c-5.2-8.9-9.3-18.4-14-27.6c-3.7-7.1-7.8-13.9-11.7-20.9
		c-11.1,7.2-21.4,13.9-31.7,20.7c-8.2,5.4-14.5,12.2-18.2,21.7c-4.3,11-10,21.4-14.9,32.2C420.4,212.3,417,220.5,413.1,229.5z
		 M772.2,207.3c49.4,12.4,97.6,20.6,147.9,21.6c-4.6-9.5-9.1-18.7-13.5-28c-6.2-13.2-12.1-26.4-18.4-39.5c-1.1-2.3-3.3-4.4-5.4-5.8
		c-12.2-8.3-24.6-16.4-38-25.3c-7.4,14.5-15.2,28.4-21.7,42.9c-3.3,7.5-8.6,11.3-15.5,14.8C796.1,193.7,784.9,200.3,772.2,207.3z
		 M538.3,644.6c0.6-1.3,0.9-1.8,0.9-2.2c-1.3-51.7-3.2-103.3-3.5-155c-0.1-13.7-6-23-13.7-32.9c-6.7,5.1-13.1,10.1-19.6,15.1
		c-5,3.8-7.6,8.5-8.7,14.8c-3.9,22-8.5,43.8-12.1,65.9c-0.7,4.1,0.4,9.5,2.6,13.1c14.2,22.6,28.9,44.9,43.6,67.2
		C530.7,635.2,534.4,639.5,538.3,644.6z M811.8,455c-6.1,7.8-12.1,15.2-12.3,26c-1.1,53.4-2.6,106.8-3.9,160.2
		c0,0.8,0.4,1.6,0.7,2.5c5.7-8,11.3-15.5,16.4-23.2c9.1-13.8,17.9-27.8,26.9-41.7c0.9-1.4,2.6-2.3,3.3-3.7
		c3.6-6.8,10.7-14.3,9.8-20.6c-3.8-26.1-10-51.8-15.5-77.6c-0.5-2.4-2.7-4.8-4.7-6.4C826,465.3,819.2,460.5,811.8,455z M704.5,649.8
		c1.2-7.8,2.2-13.6,2.9-19.4c2.3-19.1,7-38.2-1.2-57.2c-2.6-6-4.7-12.3-6.7-18.6c-2.9-9-9.6-10.6-16.5-3.9c-3.9,3.8-7.9,7.5-12,11.1
		c-2.8,2.4-5.1,2.5-8.1-0.7c-4.1-4.5-8.8-8.7-13.7-12.2c-5.8-4.2-13.6-2.3-15.2,4.5c-4.3,18.4-13.5,35.8-9.6,55.8
		c2.5,12.7,3.3,25.7,5.1,40.6c13.1-16.4,24.9-31.2,37.9-47.6C679.3,617.5,691.3,632.8,704.5,649.8z M514.8,254.2
		c-0.1-0.8-0.2-1.6-0.3-2.5c-8.5,0-17.3-1.5-25.4,0.3c-21.5,4.8-42.8,10.9-64,16.9c-2.2,0.6-4.9,3.4-5.5,5.6
		c-5,19.2-9.6,38.4-14.1,57.7c-3.1,13.3-5.9,26.6-8.6,40c-0.7,3.4-0.7,7-1.2,11.3c12.8-5.9,24.3-11.1,35.6-16.6
		c2.1-1,4.3-2.8,5.4-4.8c3.6-6.5,6.9-13.1,9.9-19.8c8.9-19.9,17.6-39.8,26.5-59.7c0.9-1.9,2.2-4,3.9-5.1
		C489.6,269.6,502.2,261.9,514.8,254.2z M821.2,253.8c7.9,4.9,15.5,9,22.5,14c6.6,4.6,15.1,8.7,18.4,15.3
		c10.9,21.6,19.6,44.3,29.6,66.4c2.6,5.7,5.6,12.5,10.4,15.5c10.8,6.6,22.9,11,36.5,17.2c-4.1-15.8-8-29.7-11.2-43.8
		c-4.5-20.1-8.3-40.3-12.4-60.5c-0.9-4.6-3.1-7.1-7.9-8.4c-13.7-3.5-27.2-7.8-40.9-11.4C851.8,254.3,837.6,248.1,821.2,253.8z
		 M544.3,70.7c7.9,4.6,14.8,7.8,20.9,12.2c7.6,5.4,16.2,10.4,21.4,17.7c7.4,10.3,12.3,22.4,18.2,33.8c8.5,16.4,16.8,33,25.5,49.4
		c1,1.9,3.3,3.2,5.1,4.8c1.3-1.7,2.9-3.2,3.8-5c4.8-10.2,9.6-20.4,14.2-30.8c2.9-6.6,5.9-13.1,8.1-19.9c0.8-2.3,0.1-5.9-1.2-8.1
		c-7.3-12-14.9-23.8-22.6-35.5c-3.7-5.7-8.6-9.4-16-9.8c-9.4-0.4-18.7-2.1-28.1-3.1C577.6,74.5,561.8,72.7,544.3,70.7z M786.4,71.4
		c-27.9,3.1-54.5,6-81.1,9.2c-1.8,0.2-4.1,1.8-5.1,3.5c-8.7,13.5-17.4,27-25.5,40.8c-1.5,2.5-1.5,7.1-0.2,9.9
		c6.3,14.5,13.2,28.8,19.9,43.1c1.4,3,2.6,6.1,4.5,10.4c3.3-4.2,6.1-6.9,7.9-10.3c13.4-25.2,26.5-50.7,40-75.8
		c1.9-3.5,5.1-6.7,8.3-9.1C764.9,86,775.1,79.2,786.4,71.4z M721.7,392.4c-4.6-10.6-9.4-20-12.9-30c-3.3-9.4-9.4-15.3-18.4-18.8
		c-6.2-2.5-12.1-5.9-18.4-8c-3.1-1-7.3-1-10.3,0.2c-9.2,3.6-18.1,8-27,12.3c-2,1-3.8,3-4.8,5.1c-5.3,10.6-10.5,21.3-15.2,32.1
		c-1.1,2.5-1.7,6.8-0.4,8.5c3.5,4.3,8.3,7.5,12.8,11.3c12.1-6.9,23.8-13.8,35.8-20.1c2.5-1.3,6.8-1,9.4,0.3
		c8.2,4.1,16,8.8,23.9,13.5c11.6,6.9,11.5,7,20.8-2.2C718.8,394.9,720.7,393.4,721.7,392.4z M598.5,182.9c4.3,0.8,7.5,1.1,10.5,2
		c3.5,1.1,6.8,3,10.3,4.1c1.6,0.5,3.5,0.1,5.3,0.2c-0.1-1.8,0.4-3.8-0.4-5.3c-3-5.9-6.6-11.4-9.6-17.3c-9.8-19.1-19.4-38.3-29-57.5
		c-6.5-12.9-17-18.4-31-16c-2,0.3-3.9,0.5-5.9,0.8c-13.8,2.2-27.6,4.3-42.6,6.7c7.6,11,14.5,21.1,21.5,31.1c0.6,0.9,2,1.5,3.2,1.8
		c11.2,3.3,22.5,6.2,33.5,9.9c3.8,1.3,7.8,4,10.3,7.2C583.2,161.6,591.2,173.1,598.5,182.9z M736,184.9c4.3-6.4,9.9-14.8,15.4-23.3
		c7-10.7,14.3-20.2,28.6-21.8c6.8-0.7,13.6-3.1,19.9-5.8c4.2-1.8,8.4-5.1,11.1-8.8c5.6-7.7,10.2-16.1,15.4-24.6
		C809.1,98,792,95.3,775,92.6c-8.4-1.3-19.8,4.5-23.7,12.2c-9,17.6-17.9,35.3-26.9,52.8c-4.4,8.5-9.2,16.9-13.5,25.4
		c-0.8,1.7-0.3,4-0.5,6.1c2-0.3,4.2-0.3,6.1-0.8c3.1-0.9,5.9-2.6,9-3.3C728.3,184.5,731.2,184.9,736,184.9z M441.4,388.7
		c2.3-0.8,4.1-1.1,5.3-2c12-9.1,23.9-18.3,35.7-27.5c2.7-2.1,5.6-4.5,7.1-7.4c6.1-11.8,11.7-23.9,17.6-35.9
		c2.2-4.4,4.8-8.4,7.1-12.8c4.4-8.4,8.6-16.8,4.4-26.8c-1.4-3.3-2.6-5-6.4-3.8c-9.5,2.9-19.2,5.2-28.4,8.6c-3.3,1.2-6.8,4.4-8.2,7.5
		c-9.9,21.3-17.9,43.6-29.3,64C439.4,364.5,440.4,375.4,441.4,388.7z M615.9,520.8c-0.6,0.3-1.2,0.6-1.8,0.9
		c-7.9,27.3-15.3,54.7-24,81.7c-4.9,15.1-5.3,29.3,0.1,44.1c2.5,7,3.5,14.4,5.4,21.7c0.5,1.9,0.8,4.7,2.1,5.3
		c9.3,4.7,18.9,9,30.3,14.3c-3.4-30.8-6.6-59.6-9.9-88.4c-0.3-2.6-2.2-5.4-1.6-7.6c3.5-12.6,7.5-25,11.2-37.5
		c0.4-1.3,0.7-3.1,0.2-4.3C624,540.8,620,530.8,615.9,520.8z M707,688.5c8.5-3.9,15.9-6.7,22.6-10.7c3.4-2,6.6-5.9,7.8-9.6
		c4.1-12.3,7.5-24.9,10.6-37.5c1-3.8,0.9-8.4-0.1-12.2c-4.5-16.6-9.7-33-14.5-49.5c-3.4-11.7-6.4-23.4-9.9-35c-1-3.2-3.2-6.1-5-9.6
		c-3.4,8-6.8,14.8-9.3,22c-1.3,3.9-2.4,8.9-1.1,12.5c8.3,23.3,9.3,46.6,5,70.9C709.8,648.8,709.1,668.2,707,688.5z M816.2,271.2
		c0,7.7-1.9,15.1,0.4,20.9c6.8,16.9,14.8,33.3,23.1,49.6c3,5.9,7.5,11.5,12.4,16.1c7.2,6.7,15.3,12.5,23.2,18.5
		c4.9,3.8,10,7.2,14.9,10.7c4.4-13.5,1.5-25.2-4.3-37.1c-8.4-17.2-15.5-35.1-23.8-52.4c-3.8-7.9-7.3-16.4-18.1-18.4
		C835.3,277.4,826.9,274.3,816.2,271.2z M533.1,390.1c-2.3,2.9-4.4,5.2-6.1,7.8c-5.7,8.9-11.3,17.9-16.8,27
		c-14.4,23.6-28.7,47.3-43.2,70.9c-2.6,4.2-5.8,8-8.1,12.3c-2.1,4-5.3,8.9-4.5,12.7c3.9,18.1,8.9,35.9,13.6,53.8
		c0.2,0.7,1.1,1.3,1.6,1.8c3.6-15.2,7.6-29.9,10.7-44.7c3.8-18.2,6.7-36.6,10.2-54.9c0.5-2.6,1.2-5.9,3.1-7.3
		c12.5-9.7,25.3-18.8,37.9-28.3c8.4-6.4,16.5-13.1,25.1-19.9C548.6,410.8,541.2,401,533.1,390.1z M631.8,293.1
		c5.9-8.3,11.5-15.9,16.8-23.9c1-1.5,0.8-4.3,0.3-6.2c-3.6-12.1-7.3-24.2-11.2-36.3c-0.6-1.9-2.2-3.7-3.8-4.9c-4-2.9-8.1-5.8-12.5-8
		c-9.3-4.5-17.3-12.3-29.5-8.9c-6.5,1.8-8.1,4.2-6.6,10.1c4.3,16.9,8.1,33.8,12.9,50.5c1.2,4.1,4.6,8.3,8.1,10.9
		C613.6,282.2,621.9,286.8,631.8,293.1z M423.3,464.4c1,0.4,2,0.9,3,1.3c31.3-34.6,62.7-69.2,94-103.8c-0.3-0.7-0.7-1.4-1-2
		c-7.1-0.3-14.2-0.1-21.2-1.2c-5.5-0.9-9.2,1-13.4,4.3c-12.5,10-25.2,20-38.3,29.3c-9.8,7-20.5,11.9-20.1,27.2
		C426.8,434.4,424.5,449.4,423.3,464.4z M752.5,205.6c-10.7-0.5-19.3-3.2-28,2.9c-6.8,4.8-15,7.6-22.2,11.9
		c-2.5,1.4-4.6,4.4-5.6,7.2c-3,8.2-4.1,17.2-8.2,24.7c-5.1,9.3-6.2,16.4,2.3,24.3c4.7,4.4,7.6,10.8,11.4,16.4
		c8.3-4.8,15.6-9.4,23.2-13.4c6-3.1,9.6-7.4,10.4-14.2c0.5-3.7,1.5-7.3,2.5-10.9C742.9,238.6,747.6,222.7,752.5,205.6z M863.9,574.5
		c0.5-0.1,1.1-0.2,1.6-0.3c0.3-1.2,0.6-2.4,0.9-3.6c4.4-15.7,8.8-31.3,13-47c0.7-2.5,1.3-5.9,0.2-7.7c-7.1-11.5-15-22.4-22-33.9
		c-14.4-23.3-28.3-46.8-42.6-70.2c-4.3-7-9.1-13.7-14-21c-7.7,10.4-14.9,20.3-22.4,30.4c21.1,16.5,41.4,32.3,61.5,48.3
		c2,1.6,3.7,4.5,4.2,7.1c2.6,12.4,4.6,24.9,7.1,37.3C855.5,534,859.7,554.2,863.9,574.5z M607.2,486.7c-0.8,6.3,2.3,9.3,6.8,11.8
		c9.7,5.5,18.7,12.4,28.8,16.9c15.4,6.8,32.4,5.8,47.7,1.3c12.1-3.5,22.6-12.9,33.5-20.2c2.1-1.4,3.1-5.4,3.4-8.3
		c0.1-1-3.3-2.8-5.4-3.6c-3.5-1.4-7-2.6-10.7-3.2c-7.5-1.1-15.2-3.2-22.4-2.1c-16,2.5-31.6,1.5-47.3-1.3c-2.6-0.5-5.6-0.6-8,0.1
		C624.6,480.8,616,483.8,607.2,486.7z M435.9,530.6c0.7,0.3,1.4,0.6,2.1,0.9c3.1-4.3,6.5-8.5,9.2-13c9.5-15.6,18.8-31.4,28.3-47.1
		c6.3-10.4,12.6-20.7,19-30.9c10.7-17.2,21.5-34.3,32-51.5c1.1-1.8,1.6-4.9,0.7-6.6c-2-3.9-5-7.2-7.4-10.5
		c-4.9,4.6-9.7,8.8-14.1,13.4c-10,10.6-19.9,21.2-29.6,32.1c-4.1,4.6-8.8,9.2-11.2,14.7c-3.8,8.8-6.2,18.2-8.7,27.5
		c-3.6,13.2-6.5,26.5-10.2,39.7C442.9,509.8,439.2,520.2,435.9,530.6z M813.3,360.4c32.2,35.3,62.9,68.9,93.6,102.6
		c0-11.5-0.7-22.2,0.2-32.8c1.3-16.4-2.9-28.3-18.3-37.2c-15-8.7-28-21-42-31.6c-1.7-1.3-4-2.4-6-2.4
		C832.4,359.2,824,359.9,813.3,360.4z M894.1,527.9c0.4-0.3,0.9-0.5,1.3-0.8c-1.3-3.8-2.8-7.6-3.8-11.5
		c-7.2-26.9-14.3-53.9-21.5-80.8c-0.8-2.8-2.2-5.7-4-7.8c-12.6-14.2-25.3-28.2-38.2-42.1c-4.1-4.4-8.7-8.3-13-12.4
		c-0.4,0.4-0.7,0.5-0.8,0.7c-5.7,6.8-11,12.8-2.2,21.9c5.5,5.7,7.9,14.3,12.2,21.2c13.2,21,26.8,41.7,40,62.7
		c9.7,15.5,19,31.2,28.4,46.8C893,526.5,893.6,527.2,894.1,527.9z M654.3,271.3c-4.9,7-9.5,13.8-14.2,20.3
		c-3.1,4.2-3.6,8.3-1.8,13.2c3.9,10.7,8.3,21.5,0.8,32.5c-0.2,0.2,0.2,0.8,0.4,1.5c7.3-3.1,14.4-6.5,21.9-9
		c3.6-1.2,8.2-1.4,11.7-0.1c7.8,2.8,15.2,6.7,24.8,11.1c-5.8-10.8-9-20.2-3.2-30c5.7-9.7,2.7-17.8-4.2-25.4
		c-3.9-4.3-7.6-8.7-11.4-13.1C667.3,281.8,667.3,281.8,654.3,271.3z M756.2,404.1c3.4-9.7,5.9-19.2,10-28
		c5.5-11.8,12.3-22.9,18.4-34.5c1.1-2,2.3-4.9,1.6-6.8c-3.1-9.5-6.7-18.8-10.4-28.8c-1.8,1.6-3.4,2.3-3.8,3.4
		c-3.8,10.9-12,14.6-22.8,16.8c-14.8,3-14,3.9-14.4,19.6c-0.5,20.7,6.8,38.4,17.9,55.1C753.6,402.2,755,403.1,756.2,404.1z
		 M495.2,129.1c7.4,14.7,14.3,27.6,20.3,41c2.8,6.1,6.8,9.9,12.6,12.7c10.2,5,20.2,10.4,30.3,15.6c2.2,1.1,4.6,2,9.5,4.1
		c0-17.4,0.2-32.8-0.2-48.1c0-2-2.6-5-4.6-5.7c-8.9-3.1-17.9-5.7-27-8.2C523.1,136.8,510.1,133.2,495.2,129.1z M598.6,329.3
		c-14.4-5-33.4-3-39.6-23.6c-4.3,10.3-7.7,19.8-10.9,29.3c-0.3,1-0.2,2.5,0.3,3.5c5,10.2,9.2,21.1,15.6,30.4
		c6.2,9.1,10.3,18.4,11.3,29.2c0.2,2.2,0.8,4.3,1.5,7.6C599.4,384,597.8,357,598.6,329.3z M838.3,129.7c-25.2,7.1-48.2,13.5-71.2,20
		c1.3,16.8,2.5,32.9,3.8,50.1c7.8-3.6,15.1-7,22.4-10.5c13.5-6.5,25.6-13.7,30.2-30C826.3,149.4,832.7,140.6,838.3,129.7z
		 M636.1,199.9c1.8,4.3,3.1,6.8,4,9.5c5.4,17.9,10.4,35.9,16.1,53.7c3,9.4,12.3,12,18.6,4.8c3.8-4.3,5.2-10.9,7.2-16.6
		c5.9-16.6,11.6-33.3,18-51.9c-10,6-18,10.5-25.6,15.5c-5,3.2-8.9,3.5-14-0.3C653.3,209.3,645.3,205.3,636.1,199.9z M575,505.2
		c-0.8-0.5-1.6-0.9-2.4-1.4c-9.7,10.5-19.4,20.9-28.9,31.5c-1.4,1.6-1.7,4.5-1.7,6.8c0.3,18.3,0.8,36.7,1.1,55.1
		c0.1,4.8,0,9.5,0,14.3c3.4-2,5.1-4.1,6.3-6.4c5.8-10.8,11.7-21.7,17.2-32.7c3.8-7.7,9.4-15.6,10-23.7
		C577.8,534.4,575.7,519.8,575,505.2z M759.6,504c-0.8,15.6-1.5,29.6-2.1,43.7c-0.1,1.4,0.5,2.9,1.1,4.2c9.5,19.3,19,38.5,28.5,57.7
		c0.2,0.3,0.7,0.5,1.5,1.1c0.2-1.4,0.5-2.5,0.6-3.6c1-20.5,2.1-41,3-61.6c0.1-2.8,0-6.5-1.6-8.3C780.9,526.3,770.7,515.8,759.6,504z
		 M570.2,439.4c-1-0.4-1.9-0.7-2.9-1c-5.2,7.1-9.5,15.1-15.8,21C540,470,539.2,482.8,540.4,497c0.9,10.1,0.2,20.4,0.2,30.6
		c0.8,0.1,1.7,0.2,2.5,0.2c9.5-9.5,19.1-19,28.6-28.7c1.3-1.3,2.3-3.4,2.5-5.2c1.3-9.8,2.3-19.7,3.2-29.5c0.1-1.3-0.6-2.8-1.1-4.1
		c-1.5-4-3.2-7.8-4.4-11.9C571,445.5,570.7,442.4,570.2,439.4z M584.5,655c0.6-0.4,1.1-0.9,1.7-1.3c-1-3.5-1.8-7.1-3.2-10.4
		c-4.5-10.3-5.8-20.6-1.8-31.6c4-11.1,7.2-22.5,10.5-33.8c2.4-8.2-2.7-17.6-11.6-21.4c-10.6,21.1-21.3,42.2-31.9,63.3
		C560.8,631.9,572.7,643.5,584.5,655z M752.8,555.9c-3.3,4-5.3,7-7.8,9.2c-3.8,3.3-3.9,6.7-2.6,11.2c4.7,15.6,9.1,31.3,13.5,47
		c0.3,1-0.6,2.4-0.9,3.6c-2.3,9.1-4.6,18.2-6.9,27.3c12-9.6,22.7-19.8,33.6-29.8c3.5-3.2,4.3-5.7,1.8-10.1
		c-5.9-10.5-11.2-21.4-16.8-32C762.3,573.8,757.8,565.4,752.8,555.9z M791.2,527.8c0.8-0.2,1.6-0.5,2.4-0.7
		c0-11.1-0.6-22.3,0.2-33.4c0.8-11.5,1.1-22-8.7-30.9c-7.2-6.6-12.7-15.3-19.1-23.2c-3,8.7-5.6,16.3-8.2,24
		c-0.2,0.6,0.2,1.5,0.2,2.2c0.3,4.7,0.7,9.4,0.8,14.1c0.2,10.5,2.5,19.6,11.2,26.9c6.6,5.5,11.9,12.5,17.8,18.7
		C788.8,526.4,790.1,527,791.2,527.8z M570.4,426.3c-0.2-21,0.6-39.3-11.5-56.1c-9.9-13.7-16.7-29.7-24.8-44.7
		c-3.6,13.1-5.7,25.9-7.4,38.8c-0.3,1.9,0.7,4.4,1.9,6.1c10.1,14,20.3,28,30.5,41.9C562.3,416.6,565.8,420.6,570.4,426.3z
		 M422.2,263.8c0.5,0.5,1,1.1,1.5,1.6c9.7-2.8,19.3-5.7,29-8.3c21.1-5.5,41.7-14.4,64.6-9.9c5,1,10.8-2.2,16.3-3.4
		c-0.1-0.9-0.2-1.8-0.2-2.7c-3.4-0.9-6.8-2-10.3-2.7c-18.8-3.5-36.9-9.9-57-8.3c-16.6,1.3-28.8,5.1-35.1,21.6
		C429.3,256.2,425.2,259.8,422.2,263.8z M596,557.6c1.9-3.9,4.2-7.2,5.3-10.9c3.4-11.7,6.7-23.4,9.4-35.3c0.5-2.1-1-6-2.7-7.1
		c-7-4.3-10.1-10.7-10.5-18.4c-0.5-9-5.9-14.1-13.6-19.7c-1,4.2-2.5,7.7-2.5,11.1c-0.2,16.1,0.5,32.2-0.2,48.3
		C580.5,539.1,584.9,549.3,596,557.6z M764.9,425.5c2.3-3.6,4.5-7.5,7.1-10.9c10.8-14.6,21.9-29.1,32.6-43.9
		c1.3-1.8,1.9-4.6,1.7-6.8c-1.5-12.4-3.5-24.8-5.4-38.6c-10.6,18.7-20.1,36.5-30.5,53.6C761.3,393.7,767.7,410,764.9,425.5z
		 M736.2,559c6.6-3.5,14.6-13.4,14.9-18.2c0.7-15.4,1.7-30.8,1.8-46.2c0-8.7-1.7-17.4-2.7-26.7c-11.7,7.5-12.1,7.5-13.7,18.7
		c-1.3,8.8-4,16.2-12.7,20.1c-0.3,0.1-0.4,0.9,0-0.1C728.1,524.8,732.1,541.8,736.2,559z M802.6,244.1c5.2,0.9,10.7,3.3,15.7,2.5
		c18.3-2.9,35.3,1.4,52.5,6.7c12.4,3.8,25,6.9,38.9,10.7c-4.9-8.2-8.5-15.3-13.2-21.6c-2.9-3.9-7-8.7-11.2-9.5
		C857.1,227.6,829.9,233.6,802.6,244.1z M623.1,334.6c-9.3-23.8-34.4-26-52.1-38.6c13.5-8.5,29.3-8,40.3,1.8
		c4.7,4.2,8.1,2.5,12.7-1.2c-8.9-5.3-17.1-10.3-25.3-15.1c-2.1-1.2-4.6-2.8-6.8-2.6c-10.8,1-21.5,2.6-32.9,4.1
		c0.9,5.6,0.8,11.1,2.7,15.7c2,4.9,5.5,9.2,8.9,13.3c2.2,2.6,5.1,5.8,8.1,6.4C594.3,321.7,609.5,325.5,623.1,334.6z M711.5,335.4
		c13.7-11.2,29.3-13.4,44.4-16.8c2.4-0.5,5.6-2,6.6-3.9c4.9-9.8,9.2-19.8,14.3-31.3c-9.7-1.2-17.3-2.1-24.8-3
		c-4.4-0.5-9.7-2.5-13.1-0.8c-9.6,4.7-18.4,11-27.6,16.7c6.1,6.8,10.5,3.2,14.2-1c3.4-4,7.2-5.6,12.3-5.1c3.4,0.3,7-0.6,10.4,0
		c5.5,1,10.8,2.9,16.2,4.4c-0.1,0.9-0.1,1.7-0.2,2.6c-8.3,4.2-16.6,8.5-25,12.6C728,315.3,715.3,319,711.5,335.4z M543.6,327.3
		c4.3-9.9,9.2-17.9,11-26.5c1.3-6.8,1.2-17-2.8-20.9c-6-5.7-16.1-7-26.3-10.9C528,290.6,531.5,309.2,543.6,327.3z M809.6,267.5
		c-9.7,4.2-17.8,7.7-25.8,11.4c-1.1,0.5-2.2,2.1-2.5,3.3c-1.8,7.7-3.6,15.2,0.3,23.1c2.9,5.9,4.3,12.6,6.6,18.9
		c0.6,1.7,1.7,3.1,2.7,5C805.9,311.3,802.2,288.8,809.6,267.5z M701.2,408.4c-11.2-6.4-21.6-12.3-32.1-18c-1.2-0.7-3.5-0.6-4.8,0.1
		c-10.2,5.8-20.2,11.8-30.2,17.6C656.1,416.6,677.8,417.1,701.2,408.4z M747.5,270.6c20,7.6,38,4.6,55.2-7.3
		c-9.4-5.2-18.2-10.3-27.2-14.9c-1.6-0.8-5-0.3-6.3,0.9C761.6,256.2,754.6,263.5,747.5,270.6z M521.9,297.8
		c-9.5,19.3-18.3,37-27.4,55.4c8.9,0.4,17.1,0.9,26,1.3C522.8,335.9,527.5,318.1,521.9,297.8z M534.8,263.2
		c17.1,15.2,34.8,13,53.9,8.5c-8.5-7.9-16.3-15.3-24.3-22.5c-1.2-1.1-4-1.8-5.2-1.2C551.2,252.7,543.4,257.8,534.8,263.2z
		 M779.9,231.6c-7.3-7.7-14.1-14.9-22.6-24c-5.2,20.4-9.9,39.2-15,59.2C755.3,254.6,767.3,243.4,779.9,231.6z M575.8,208.7
		c-3.4,4.4-5.2,6.8-7,9c-2,2.5-4.2,4.8-6.3,7.3c-5.8,6.6-5.3,10.6,1.5,15.9c3.1,2.4,6,5.1,8.8,7.8c6,5.7,11.9,11.5,17.8,17.3
		c0.6-0.3,1.2-0.6,1.8-1C587.1,247,581.8,228.9,575.8,208.7z M592.2,391.7c10.6,0,14.6-4.1,16.9-11c1.9-5.6,4.7-10.9,7.4-16.2
		c3.4-6.8,7-13.4,10.7-20.5c-7.6-4.1-14.2-7.6-21.8-11.7C604.2,353,606.7,373.5,592.2,391.7z M812.6,299.8
		c-5.3,18.6,0.9,36,1.5,53.2c8.5,0,15.9,0,25,0C829.9,334.7,821.4,317.6,812.6,299.8z M735.7,390.8c-2.8-19.3-5.5-38.3-8.3-57.7
		c-3.8,2.3-7.6,5.3-11.8,7.1c-6.7,2.8-6.3,6.9-3.6,12.3c4.9,9.9,9.9,19.9,14.2,30C728.3,387.8,731,391,735.7,390.8z M558.6,426.6
		c-10.8,8.2-21.3,16.2-31.7,24.1c3.9,5.6,7.4,10.8,11.4,16.6c7.4-9.6,14.2-18.9,21.4-27.8C563.5,434.8,564.1,431,558.6,426.6z
		 M806.4,450.4c-10.5-7.9-20.5-15.3-30.2-22.6c-5.4,3.1-6.7,6-1.8,10c1.6,1.4,2.5,3.6,3.8,5.4c5.8,8,11.6,16,17.9,24.7
		C800,461.2,802.9,456.3,806.4,450.4z M486.8,615.5c4.6-5.5,8.7-9.7,11.9-14.5c1-1.5,0.4-5.2-0.7-7c-4.7-7.5-9.9-14.6-15-21.8
		c-1.2-1.7-2.7-3.1-4.5-5C481.4,583.7,484,599,486.8,615.5z M847.3,615.2c2.9-16.7,5.6-31.9,8.6-49.1c-6.9,10-12.9,18.3-18.4,26.8
		c-1.3,2.1-2.5,5.9-1.5,7.7C838.9,605.5,843,609.7,847.3,615.2z M706.9,301.5c-11.9,21.9-10.2,24.6-2.9,31.2
		c3.5-8.7,6.9-17.3,10.4-26C711.7,304.8,709.5,303.3,706.9,301.5z M629.6,331.4c0.6,0.1,1.2,0.1,1.8,0.2c1.6-3.4,5-7.2,4.3-10
		c-1.7-6.7-5.3-12.9-8.2-19.3c-0.7-0.3-1.3-0.5-2-0.8c-1.1,2.9-3.5,6.2-2.9,8.7C624.3,317.5,627.2,324.4,629.6,331.4z M798.2,254.2
		c0.7-0.7,1.3-1.3,2-2c-6.1-4.8-12.2-9.5-18.5-14.4c-0.7,0.8-2.3,2.5-4.4,4.8C784.5,246.6,791.3,250.4,798.2,254.2z M557.2,242.7
		c-6.7-5.4-16,0-19.8,10.2C543.8,249.6,550.2,246.3,557.2,242.7z"/>
	<path class="st0" d="M753.3,429.8c-8.3,0-16.7,0-25.1,0c-0.1,0.5-0.2,1-0.3,1.5c6.2,1.7,12.5,3.3,18.7,5.1c8,2.4,10.2,12.5,4.5,19
		c-5.1,5.9-10.1,4.3-15.6,1.2c-2.8-1.6-5.6-3-9.4-3.7c3.7,4.2,7.3,8.5,10.3,11.9c-3.2,5.3-5.9,9.8-8.3,13.6
		c-19.8-3.7-40.1-10.3-60.5-10.4c-20.4,0-40.8,6.6-61.1,10.3c-2.2-3.6-5.1-8.3-8.5-13.8c2.8-3.1,6.5-7.4,10.3-11.6
		c-0.2-0.2-0.5-0.5-0.7-0.7c-3.5,1.5-7,3.1-10.6,4.5c-11.7,4.8-18.9-0.5-17.2-12.9c0.3-2,2.6-4.5,4.5-5.3c7.1-2.8,14.4-5,21.7-9.3
		c-6.6,0-13.3,0.3-19.9-0.1c-2.5-0.2-6.9-2-6.9-3.2c-0.2-4.3,0.3-9.1,2.1-13c1.6-3.3,5.7-5.3,8.2-8.3c6.2-7.3,15.2-7.8,22.5-1.9
		c9.2,7.4,17.4,15.4,21.2,27c0.6,1.7,2,3.8,3.6,4.4c11.8,4.2,23.2,10.4,36.3,8.2c6.1-1,12-3.3,18-4.4c9.5-1.7,10.5-10.9,15.5-16.5
		c6.8-7.6,12.8-16.2,20.7-22.5c2.6-2.1,11.2,0.3,14.8,3.3C750.3,408.9,758.2,416.6,753.3,429.8z"/>
	<path class="st0" d="M413.1,229.5c3.9-9,7.3-17.2,10.9-25.2c4.9-10.8,10.6-21.2,14.9-32.2c3.7-9.5,10-16.3,18.2-21.7
		c10.3-6.8,20.6-13.5,31.7-20.7c3.9,7,8,13.8,11.7,20.9c4.8,9.1,8.9,18.7,14,27.6c1.9,3.3,5.9,5.9,9.4,7.8
		c12.7,7.1,25.6,13.8,38.3,21.5C513.6,219.3,464.9,229.6,413.1,229.5z"/>
	<path class="st0" d="M772.2,207.3c12.6-7,23.8-13.6,35.5-19.4c6.9-3.4,12.1-7.3,15.5-14.8c6.5-14.5,14.3-28.4,21.7-42.9
		c13.4,8.9,25.8,17,38,25.3c2.2,1.5,4.3,3.5,5.4,5.8c6.3,13.1,12.2,26.4,18.4,39.5c4.3,9.3,8.9,18.5,13.5,28
		C869.8,227.9,821.6,219.7,772.2,207.3z"/>
	<path class="st0" d="M538.3,644.6c-3.9-5.1-7.5-9.4-10.6-14.1c-14.7-22.3-29.4-44.6-43.6-67.2c-2.2-3.6-3.3-8.9-2.6-13.1
		c3.7-22,8.3-43.9,12.1-65.9c1.1-6.3,3.8-11,8.7-14.8c6.5-4.9,12.9-9.9,19.7-15.1c7.7,9.9,13.6,19.2,13.7,32.9
		c0.3,51.7,2.2,103.3,3.5,155C539.2,642.8,538.8,643.2,538.3,644.6z"/>
	<path class="st0" d="M811.8,455c7.4,5.5,14.2,10.3,20.8,15.5c2,1.6,4.2,4,4.7,6.4c5.6,25.8,11.7,51.5,15.5,77.6
		c0.9,6.3-6.2,13.8-9.8,20.6c-0.8,1.4-2.5,2.3-3.3,3.7c-9,13.9-17.8,27.9-26.9,41.7c-5.1,7.8-10.7,15.2-16.4,23.2
		c-0.3-1-0.7-1.8-0.7-2.5c1.3-53.4,2.8-106.8,3.9-160.2C799.8,470.2,805.7,462.8,811.8,455z"/>
	<path class="st0" d="M704.5,649.8c-13.2-16.9-25.2-32.2-37.2-47.6c-13,16.3-24.8,31.1-37.9,47.6c-1.8-14.9-2.6-27.9-5.1-40.6
		c-3.9-20,5.3-37.5,9.6-55.8c1.6-6.8,9.4-8.7,15.2-4.5c5,3.6,9.6,7.7,13.7,12.2c2.9,3.2,5.3,3.1,8.1,0.7c4.1-3.6,8.1-7.3,12-11.1
		c7-6.7,13.7-5.1,16.5,3.9c2,6.3,4.1,12.6,6.7,18.6c8.1,18.9,3.5,38.1,1.2,57.2C706.7,636.2,705.7,642,704.5,649.8z"/>
	<path class="st0" d="M514.8,254.2c-12.6,7.8-25.2,15.5-37.7,23.4c-1.7,1.1-3.1,3.2-3.9,5.1c-8.9,19.9-17.6,39.8-26.5,59.7
		c-3,6.7-6.3,13.3-9.9,19.8c-1.1,2-3.3,3.8-5.4,4.8c-11.4,5.5-22.9,10.6-35.6,16.6c0.4-4.3,0.5-7.9,1.2-11.3
		c2.8-13.4,5.5-26.7,8.6-40c4.5-19.3,9.1-38.5,14.1-57.7c0.6-2.3,3.2-5,5.5-5.6c21.3-6,42.5-12.1,64-16.9c8.1-1.8,16.9-0.3,25.4-0.3
		C514.6,252.5,514.7,253.4,514.8,254.2z"/>
	<path class="st0" d="M821.2,253.8c16.4-5.8,30.7,0.5,45.1,4.3c13.7,3.6,27.2,7.9,40.9,11.4c4.8,1.2,7,3.8,7.9,8.4
		c4,20.2,7.9,40.4,12.4,60.5c3.1,14.1,7.1,28,11.2,43.8c-13.5-6.2-25.6-10.6-36.5-17.2c-4.8-3-7.8-9.8-10.4-15.5
		c-10-22.1-18.7-44.8-29.6-66.4c-3.3-6.5-11.8-10.7-18.4-15.3C836.6,262.8,829.1,258.7,821.2,253.8z"/>
	<path class="st0" d="M544.3,70.7c17.5,2,33.3,3.8,49.2,5.6c9.4,1.1,18.7,2.7,28.1,3.1c7.5,0.3,12.3,4.1,16,9.8
		c7.7,11.7,15.3,23.5,22.6,35.5c1.3,2.2,2,5.7,1.2,8.1c-2.2,6.8-5.2,13.4-8.1,19.9c-4.6,10.3-9.4,20.6-14.2,30.8
		c-0.9,1.9-2.5,3.4-3.8,5c-1.7-1.6-4-2.8-5.1-4.8c-8.6-16.4-17-32.9-25.5-49.4c-5.9-11.4-10.7-23.5-18.2-33.8
		c-5.3-7.3-13.9-12.3-21.4-17.7C559.1,78.5,552.2,75.3,544.3,70.7z"/>
	<path class="st0" d="M786.4,71.4C775.1,79.2,764.9,86,755,93.2c-3.3,2.4-6.4,5.5-8.3,9.1c-13.5,25.2-26.6,50.6-40,75.9
		c-1.8,3.4-4.7,6.1-7.9,10.3c-1.9-4.4-3.1-7.4-4.5-10.4c-6.7-14.4-13.6-28.6-19.9-43.1c-1.2-2.8-1.3-7.4,0.2-9.9
		c8.1-13.8,16.8-27.4,25.5-40.8c1-1.6,3.3-3.3,5.1-3.5C731.9,77.4,758.5,74.5,786.4,71.4z"/>
	<path class="st0" d="M721.7,392.4c-1.1,1-2.9,2.5-4.7,4.2c-9.3,9.2-9.3,9.2-20.8,2.2c-7.9-4.7-15.7-9.5-23.9-13.5
		c-2.6-1.3-6.9-1.6-9.4-0.3c-12,6.3-23.8,13.2-35.8,20.1c-4.5-3.9-9.3-7.1-12.8-11.3c-1.4-1.6-0.7-6,0.4-8.5
		c4.8-10.8,9.9-21.5,15.2-32.1c1-2,2.8-4.1,4.8-5.1c8.9-4.4,17.8-8.7,27-12.3c3-1.2,7.2-1.3,10.3-0.2c6.3,2.1,12.2,5.5,18.4,8
		c9,3.6,15,9.5,18.4,18.8C712.4,372.4,717.1,381.8,721.7,392.4z"/>
	<path class="st0" d="M598.5,182.9c-7.2-9.9-15.3-21.4-23.9-32.4c-2.5-3.2-6.5-5.9-10.3-7.2c-11-3.7-22.3-6.6-33.5-9.9
		c-1.1-0.3-2.5-0.9-3.2-1.8c-7-10-13.9-20.1-21.5-31.1c15-2.3,28.8-4.5,42.6-6.7c2-0.3,3.9-0.5,5.9-0.8c14-2.3,24.5,3.1,31,16
		c9.6,19.2,19.3,38.4,29,57.5c3,5.9,6.6,11.4,9.6,17.3c0.7,1.4,0.3,3.5,0.4,5.3c-1.8,0-3.7,0.4-5.3-0.2c-3.5-1.1-6.8-3-10.3-4.1
		C606,184,602.8,183.7,598.5,182.9z"/>
	<path class="st0" d="M736,184.9c-4.9,0-7.8-0.4-10.4,0.1c-3.1,0.6-6,2.4-9,3.3c-2,0.6-4.1,0.6-6.1,0.8c0.1-2-0.4-4.4,0.5-6.1
		c4.3-8.6,9.1-16.9,13.5-25.4c9-17.6,17.9-35.2,26.9-52.8c3.9-7.7,15.3-13.5,23.7-12.2c17.1,2.7,34.2,5.4,51.5,8.1
		c-5.3,8.5-9.8,16.9-15.4,24.6c-2.7,3.7-6.9,6.9-11.1,8.8c-6.3,2.8-13.1,5.1-19.9,5.8c-14.2,1.5-21.6,11.1-28.6,21.8
		C745.9,170.1,740.3,178.5,736,184.9z"/>
	<path class="st0" d="M441.4,388.7c-1-13.3-1.9-24.2,4.7-36.1c11.4-20.4,19.5-42.7,29.3-64c1.5-3.2,5-6.3,8.2-7.5
		c9.3-3.4,19-5.7,28.4-8.6c3.9-1.2,5,0.5,6.4,3.8c4.2,10,0,18.4-4.4,26.8c-2.2,4.3-4.9,8.4-7.1,12.8c-5.9,11.9-11.5,24-17.6,35.9
		c-1.5,2.9-4.4,5.3-7.1,7.4c-11.8,9.3-23.8,18.5-35.7,27.5C445.5,387.6,443.7,387.8,441.4,388.7z"/>
	<path class="st0" d="M615.9,520.8c4,10,8.1,20,12,30.1c0.5,1.2,0.2,3-0.2,4.3c-3.7,12.5-7.8,25-11.2,37.5c-0.6,2.2,1.3,5,1.6,7.6
		c3.3,28.8,6.5,57.7,9.9,88.4c-11.4-5.3-20.9-9.6-30.3-14.3c-1.3-0.7-1.7-3.4-2.1-5.3c-1.8-7.2-2.8-14.7-5.4-21.7
		c-5.4-14.8-5-29-0.1-44.1c8.7-27,16.1-54.4,24-81.7C614.7,521.4,615.3,521.1,615.9,520.8z"/>
	<path class="st0" d="M707,688.5c2-20.3,2.8-39.7,6.2-58.7c4.3-24.3,3.3-47.6-5-70.9c-1.3-3.6-0.2-8.6,1.1-12.5
		c2.4-7.2,5.8-14,9.3-22c1.8,3.5,4,6.3,5,9.6c3.5,11.6,6.5,23.4,9.9,35c4.8,16.5,10,32.9,14.5,49.5c1,3.8,1,8.3,0.1,12.2
		c-3.1,12.6-6.5,25.2-10.6,37.5c-1.2,3.7-4.5,7.5-7.8,9.6C723,681.8,715.5,684.6,707,688.5z"/>
	<path class="st0" d="M816.2,271.2c10.7,3.1,19.1,6.3,27.8,7.8c10.8,1.9,14.3,10.4,18.1,18.4c8.3,17.3,15.4,35.2,23.8,52.4
		c5.8,11.8,8.7,23.6,4.3,37.1c-4.9-3.5-10-6.9-14.9-10.7c-7.9-6-16-11.7-23.2-18.5c-4.9-4.6-9.3-10.1-12.4-16.1
		c-8.3-16.3-16.4-32.7-23.1-49.6C814.3,286.3,816.2,278.9,816.2,271.2z"/>
	<path class="st0" d="M533.1,390.1c8.2,10.9,15.5,20.7,23.4,31.2c-8.6,6.8-16.7,13.6-25.1,19.9c-12.6,9.5-25.4,18.7-37.9,28.3
		c-1.8,1.4-2.6,4.7-3.1,7.3c-3.5,18.3-6.4,36.6-10.2,54.8c-3.1,14.9-7,29.6-10.7,44.7c-0.5-0.6-1.4-1.1-1.6-1.8
		c-4.7-17.9-9.7-35.7-13.6-53.8c-0.8-3.8,2.4-8.7,4.5-12.7c2.3-4.3,5.5-8.1,8.1-12.3c14.4-23.6,28.8-47.3,43.2-70.9
		c5.5-9,11.1-18,16.8-27C528.7,395.3,530.8,393,533.1,390.1z"/>
	<path class="st0" d="M631.8,293.1c-9.9-6.3-18.1-10.9-25.6-16.5c-3.5-2.6-6.9-6.8-8.1-10.9c-4.8-16.7-8.6-33.7-12.9-50.5
		c-1.5-5.9,0.1-8.3,6.6-10.1c12.2-3.4,20.3,4.4,29.5,8.9c4.4,2.2,8.5,5.1,12.5,8c1.6,1.2,3.2,3,3.8,4.9c3.9,12,7.6,24.1,11.2,36.3
		c0.6,1.9,0.7,4.7-0.3,6.2C643.3,277.2,637.6,284.9,631.8,293.1z"/>
	<path class="st0" d="M423.3,464.4c1.1-15,3.5-30,3.1-44.9c-0.5-15.4,10.3-20.3,20.1-27.2c13.1-9.4,25.7-19.3,38.3-29.3
		c4.1-3.3,7.8-5.1,13.4-4.3c7,1.1,14.1,0.9,21.2,1.2c0.3,0.7,0.7,1.4,1,2c-31.3,34.6-62.7,69.2-94,103.8
		C425.3,465.2,424.3,464.8,423.3,464.4z"/>
	<path class="st0" d="M752.5,205.6c-5,17.1-9.6,33-14.2,49c-1,3.6-2.1,7.2-2.5,10.9c-0.8,6.8-4.4,11.1-10.4,14.2
		c-7.6,4-14.9,8.5-23.2,13.4c-3.8-5.6-6.7-12-11.4-16.4c-8.5-7.9-7.3-15-2.3-24.3c4.1-7.5,5.2-16.5,8.2-24.7c1-2.8,3.1-5.8,5.6-7.2
		c7.2-4.3,15.4-7.1,22.2-11.9C733.2,202.4,741.8,205.2,752.5,205.6z"/>
	<path class="st0" d="M863.9,574.5c-4.2-20.2-8.5-40.4-12.5-60.7c-2.5-12.4-4.5-24.9-7.1-37.3c-0.5-2.6-2.2-5.5-4.2-7.1
		c-20.1-16-40.4-31.8-61.5-48.3c7.5-10.2,14.7-20,22.4-30.4c4.9,7.3,9.7,14,14,21c14.3,23.3,28.2,46.9,42.6,70.2
		c7.1,11.5,15,22.4,22,33.9c1.2,1.9,0.5,5.3-0.2,7.7c-4.2,15.7-8.7,31.4-13,47c-0.3,1.2-0.6,2.4-0.9,3.6
		C865,574.3,864.4,574.4,863.9,574.5z"/>
	<path class="st0" d="M607.2,486.7c8.8-2.9,17.5-5.9,26.2-8.5c2.5-0.7,5.4-0.6,8-0.1c15.7,2.9,31.3,3.8,47.3,1.3
		c7.2-1.1,15,1,22.4,2.1c3.6,0.5,7.2,1.8,10.7,3.2c2.1,0.8,5.5,2.5,5.4,3.6c-0.3,2.9-1.3,6.8-3.4,8.3c-10.8,7.3-21.3,16.6-33.5,20.2
		c-15.3,4.5-32.3,5.5-47.7-1.3c-10.1-4.5-19.1-11.4-28.8-16.9C609.4,496,606.4,493,607.2,486.7z"/>
	<path class="st0" d="M435.9,530.6c3.4-10.5,7-20.8,10-31.4c3.7-13.1,6.6-26.5,10.2-39.7c2.5-9.3,4.9-18.8,8.7-27.5
		c2.4-5.5,7.1-10.1,11.2-14.7c9.7-10.8,19.6-21.5,29.6-32.1c4.4-4.6,9.2-8.8,14.1-13.4c2.4,3.3,5.4,6.6,7.4,10.5
		c0.9,1.7,0.4,4.9-0.7,6.6c-10.5,17.3-21.3,34.3-32,51.5c-6.4,10.3-12.7,20.6-19,30.9c-9.5,15.7-18.8,31.5-28.3,47.1
		c-2.8,4.5-6.1,8.7-9.2,13C437.3,531.2,436.6,530.9,435.9,530.6z"/>
	<path class="st0" d="M813.3,360.4c10.8-0.6,19.1-1.2,27.5-1.4c2,0,4.3,1.1,6,2.4c14,10.6,27,22.9,42,31.6
		c15.5,9,19.7,20.9,18.3,37.2c-0.9,10.6-0.2,21.3-0.2,32.8C876.1,429.4,845.5,395.7,813.3,360.4z"/>
	<path class="st0" d="M894.1,527.9c-0.5-0.7-1.2-1.4-1.6-2.1c-9.5-15.6-18.7-31.4-28.4-46.8c-13.2-21-26.8-41.7-40-62.7
		c-4.3-6.9-6.7-15.5-12.2-21.2c-8.8-9.2-3.6-15.2,2.2-21.9c0.2-0.2,0.4-0.3,0.8-0.7c4.3,4.1,8.9,8,13,12.4
		c12.9,13.9,25.6,28,38.2,42.1c1.9,2.1,3.3,5,4,7.8c7.3,26.9,14.3,53.9,21.5,80.8c1,3.9,2.5,7.7,3.8,11.5
		C895,527.3,894.6,527.6,894.1,527.9z"/>
	<path class="st0" d="M654.3,271.3c13.1,10.5,13.1,10.5,24.6,1c3.8,4.4,7.5,8.8,11.4,13.1c7,7.6,9.9,15.7,4.2,25.4
		c-5.7,9.8-2.5,19.2,3.2,30c-9.6-4.4-17-8.3-24.8-11.1c-3.5-1.2-8.1-1-11.7,0.1c-7.5,2.4-14.6,5.9-21.9,9c-0.2-0.7-0.6-1.3-0.4-1.5
		c7.5-11,3.2-21.8-0.8-32.5c-1.8-4.9-1.3-9,1.8-13.2C644.8,285.1,649.3,278.4,654.3,271.3z"/>
	<path class="st0" d="M756.2,404.1c-1.1-1-2.6-1.9-3.5-3.1c-11.1-16.7-18.4-34.4-17.9-55.1c0.4-15.7-0.4-16.6,14.4-19.6
		c10.8-2.2,19-5.9,22.8-16.8c0.4-1.1,2-1.9,3.8-3.4c3.7,10,7.4,19.3,10.4,28.8c0.6,1.9-0.6,4.8-1.6,6.8
		c-6.1,11.5-12.9,22.7-18.4,34.5C762,384.9,759.5,394.4,756.2,404.1z"/>
	<path class="st0" d="M495.2,129.1c14.8,4.1,27.9,7.7,40.8,11.4c9,2.6,18.1,5.1,27,8.2c2,0.7,4.6,3.7,4.6,5.7
		c0.4,15.3,0.2,30.7,0.2,48.1c-4.9-2.1-7.2-3-9.5-4.1c-10.1-5.2-20.1-10.6-30.3-15.6c-5.8-2.8-9.8-6.6-12.6-12.7
		C509.5,156.7,502.6,143.8,495.2,129.1z"/>
	<path class="st0" d="M598.6,329.3c-0.8,27.7,0.8,54.7-21.8,76.4c-0.6-3.2-1.3-5.4-1.5-7.6c-1.1-10.8-5.2-20.1-11.3-29.2
		c-6.3-9.4-10.5-20.2-15.6-30.4c-0.5-1-0.6-2.5-0.3-3.5c3.2-9.5,6.6-19,10.9-29.3C565.2,326.3,584.2,324.3,598.6,329.3z"/>
	<path class="st0" d="M838.3,129.7c-5.6,10.9-12,19.7-14.8,29.5c-4.6,16.3-16.7,23.6-30.2,30c-7.3,3.5-14.6,6.9-22.4,10.5
		c-1.3-17.2-2.5-33.3-3.8-50.1C790.2,143.2,813.2,136.8,838.3,129.7z"/>
	<path class="st0" d="M636.1,199.9c9.2,5.4,17.2,9.4,24.3,14.6c5.2,3.8,9.1,3.6,14,0.3c7.6-5,15.6-9.5,25.6-15.5
		c-6.4,18.6-12.1,35.3-18,51.9c-2,5.7-3.4,12.3-7.2,16.6c-6.3,7.3-15.7,4.6-18.6-4.8c-5.7-17.8-10.7-35.8-16.1-53.7
		C639.2,206.7,637.9,204.2,636.1,199.9z"/>
	<path class="st0" d="M575,505.2c0.7,14.5,2.8,29.1,1.7,43.5c-0.6,8.1-6.2,16-10,23.7c-5.5,11-11.4,21.8-17.2,32.7
		c-1.2,2.3-2.9,4.4-6.3,6.4c0-4.8,0.1-9.5,0-14.3c-0.4-18.3-0.9-36.7-1.1-55.1c0-2.3,0.3-5.2,1.7-6.8c9.4-10.7,19.2-21.1,28.9-31.5
		C573.4,504.3,574.2,504.8,575,505.2z"/>
	<path class="st0" d="M759.6,504c11.1,11.8,21.3,22.3,31.1,33.3c1.6,1.8,1.7,5.5,1.6,8.3c-0.8,20.5-1.9,41-3,61.6
		c-0.1,1.1-0.3,2.2-0.6,3.6c-0.8-0.6-1.3-0.8-1.5-1.1c-9.5-19.2-19.1-38.5-28.5-57.7c-0.6-1.3-1.2-2.8-1.1-4.2
		C758.1,533.7,758.8,519.6,759.6,504z"/>
	<path class="st0" d="M570.2,439.4c0.5,3.1,0.8,6.2,1.7,9.1c1.2,4,3,7.9,4.4,11.9c0.5,1.3,1.2,2.8,1.1,4.1c-0.9,9.9-2,19.7-3.2,29.5
		c-0.2,1.8-1.2,3.9-2.5,5.2c-9.4,9.6-19,19.1-28.6,28.7c-0.8-0.1-1.7-0.2-2.5-0.2c0-10.2,0.7-20.5-0.2-30.6
		c-1.2-14.2-0.4-27,11.1-37.7c6.3-5.9,10.6-13.9,15.8-21C568.3,438.6,569.2,439,570.2,439.4z"/>
	<path class="st0" d="M584.5,655c-11.9-11.5-23.7-23.1-36.3-35.3c10.6-21.1,21.2-42.2,31.9-63.3c8.9,3.8,14,13.2,11.6,21.4
		c-3.3,11.3-6.5,22.7-10.5,33.8c-4,11-2.7,21.2,1.8,31.6c1.4,3.3,2.2,6.9,3.2,10.4C585.6,654.1,585.1,654.6,584.5,655z"/>
	<path class="st0" d="M752.8,555.9c5,9.5,9.5,17.9,13.9,26.4c5.6,10.7,10.9,21.5,16.8,32c2.5,4.4,1.7,7-1.8,10.1
		c-10.9,9.9-21.6,20.2-33.6,29.8c2.3-9.1,4.6-18.2,6.9-27.3c0.3-1.2,1.2-2.6,0.9-3.6c-4.4-15.7-8.8-31.4-13.5-47
		c-1.4-4.5-1.2-7.9,2.6-11.2C747.6,562.9,749.5,559.9,752.8,555.9z"/>
	<path class="st0" d="M791.2,527.8c-1.2-0.8-2.5-1.4-3.4-2.3c-5.9-6.3-11.2-13.3-17.8-18.7c-8.7-7.3-11-16.4-11.2-26.9
		c-0.1-4.7-0.5-9.4-0.8-14.1c0-0.7-0.4-1.6-0.2-2.2c2.5-7.6,5.2-15.2,8.2-24c6.4,8,11.9,16.6,19.1,23.2c9.7,8.9,9.4,19.4,8.7,30.9
		c-0.7,11.1-0.2,22.2-0.2,33.4C792.8,527.3,792,527.5,791.2,527.8z"/>
	<path class="st0" d="M570.4,426.3c-4.6-5.7-8.1-9.7-11.3-14c-10.3-13.9-20.5-27.8-30.5-41.9c-1.2-1.7-2.1-4.1-1.9-6.1
		c1.7-12.9,3.8-25.8,7.4-38.8c8.2,15,14.9,31,24.8,44.7C571,387,570.3,405.3,570.4,426.3z"/>
	<path class="st0" d="M422.2,263.8c3-4,7.1-7.5,8.8-12c6.3-16.5,18.5-20.3,35.1-21.6c20-1.6,38.1,4.8,56.9,8.3
		c3.5,0.6,6.9,1.8,10.3,2.7c0.1,0.9,0.2,1.8,0.2,2.7c-5.5,1.3-11.3,4.4-16.3,3.4c-22.9-4.5-43.4,4.4-64.6,9.9
		c-9.7,2.5-19.3,5.5-29,8.3C423.2,264.8,422.7,264.3,422.2,263.8z"/>
	<path class="st0" d="M596,557.6c-11.1-8.2-15.5-18.5-14.9-31.8c0.8-16.1,0-32.2,0.2-48.3c0-3.5,1.5-6.9,2.5-11.1
		c7.7,5.6,13.1,10.7,13.6,19.7c0.4,7.7,3.5,14,10.5,18.4c1.8,1.1,3.2,5,2.7,7.1c-2.8,11.8-6,23.6-9.4,35.3
		C600.2,550.3,597.9,553.7,596,557.6z"/>
	<path class="st0" d="M764.9,425.5c2.8-15.6-3.5-31.8,5.4-46.6c10.4-17.2,19.9-34.9,30.5-53.6c2,13.8,3.9,26.1,5.4,38.6
		c0.3,2.2-0.3,5.1-1.7,6.8c-10.8,14.7-21.8,29.2-32.6,43.9C769.3,418.1,767.2,421.9,764.9,425.5z"/>
	<path class="st0" d="M736.2,559c-4.1-17.2-8.2-34.3-12.5-52.5c-0.4,1-0.3,0.3,0,0.1c8.7-3.9,11.4-11.2,12.7-20.1
		c1.6-11.2,2-11.1,13.7-18.7c1,9.3,2.8,18,2.7,26.7c0,15.4-1,30.8-1.8,46.2C750.8,545.7,742.8,555.5,736.2,559z"/>
	<path class="st0" d="M802.6,244.1c27.3-10.5,54.5-16.4,82.7-11.2c4.2,0.8,8.3,5.6,11.2,9.5c4.7,6.3,8.3,13.4,13.2,21.6
		c-13.9-3.8-26.5-6.9-38.9-10.7c-17.1-5.3-34.2-9.6-52.5-6.7C813.3,247.4,807.8,245,802.6,244.1z"/>
	<path class="st0" d="M623.1,334.6c-13.5-9.1-28.8-12.9-44.4-16.1c-3-0.6-5.9-3.8-8.1-6.4c-3.4-4.1-7-8.5-8.9-13.3
		c-1.9-4.6-1.8-10.1-2.7-15.7c11.4-1.5,22.1-3.1,32.9-4.1c2.2-0.2,4.7,1.4,6.8,2.6c8.3,4.8,16.4,9.8,25.3,15.1
		c-4.6,3.7-8,5.4-12.7,1.2c-11-9.8-26.8-10.3-40.3-1.8C588.6,308.6,613.7,310.8,623.1,334.6z"/>
	<path class="st0" d="M711.5,335.4c3.8-16.4,16.5-20,27.8-25.5c8.4-4.1,16.7-8.4,25-12.6c0.1-0.9,0.1-1.7,0.2-2.6
		c-5.4-1.5-10.7-3.4-16.2-4.4c-3.3-0.6-7,0.3-10.4,0c-5.1-0.5-8.9,1.1-12.3,5.1c-3.7,4.2-8.1,7.8-14.2,1c9.2-5.7,18-12,27.6-16.7
		c3.4-1.7,8.7,0.3,13.1,0.8c7.6,0.8,15.1,1.8,24.8,3c-5.2,11.4-9.4,21.5-14.3,31.3c-1,2-4.2,3.4-6.6,3.9
		C740.8,322,725.3,324.2,711.5,335.4z"/>
	<path class="st0" d="M543.6,327.3c-12-18.1-15.6-36.7-18.2-58.3c10.2,3.9,20.3,5.3,26.3,10.9c4.1,3.8,4.2,14.1,2.8,20.9
		C552.8,309.4,547.8,317.5,543.6,327.3z"/>
	<path class="st0" d="M809.6,267.5c-7.4,21.3-3.7,43.8-18.7,61.7c-1-1.9-2.1-3.3-2.7-5c-2.2-6.3-3.6-13-6.6-18.9
		c-3.9-7.9-2-15.4-0.3-23.1c0.3-1.3,1.3-2.8,2.5-3.3C791.9,275.3,800,271.8,809.6,267.5z"/>
	<path class="st0" d="M701.2,408.4c-23.3,8.7-45,8.2-67.1-0.2c10-5.9,20-11.9,30.2-17.6c1.3-0.7,3.5-0.8,4.8-0.1
		C679.5,396,689.9,402,701.2,408.4z"/>
	<path class="st0" d="M747.5,270.6c7.2-7.1,14.2-14.4,21.6-21.3c1.3-1.2,4.7-1.7,6.3-0.9c9,4.6,17.8,9.7,27.2,14.9
		C785.4,275.3,767.5,278.2,747.5,270.6z"/>
	<path class="st0" d="M521.9,297.8c5.6,20.3,0.9,38.2-1.4,56.7c-8.9-0.5-17.1-0.9-26-1.3C503.6,334.8,512.3,317,521.9,297.8z"/>
	<path class="st0" d="M534.8,263.2c8.6-5.4,16.4-10.5,24.4-15.2c1.2-0.7,4,0.1,5.2,1.2c8,7.2,15.8,14.6,24.3,22.5
		C569.6,276.2,551.9,278.4,534.8,263.2z"/>
	<path class="st0" d="M779.9,231.6c-12.6,11.8-24.5,23-37.6,35.2c5.1-20,9.8-38.8,15-59.2C765.8,216.6,772.6,223.9,779.9,231.6z"/>
	<path class="st0" d="M575.8,208.7c5.9,20.2,11.2,38.3,16.5,56.4c-0.6,0.3-1.2,0.6-1.8,1c-5.9-5.8-11.8-11.6-17.8-17.3
		c-2.8-2.7-5.7-5.4-8.8-7.8c-6.8-5.4-7.3-9.3-1.5-15.9c2.1-2.4,4.3-4.8,6.3-7.3C570.7,215.5,572.4,213.1,575.8,208.7z"/>
	<path class="st0" d="M592.2,391.7c14.5-18.2,12-38.7,13.2-59.3c7.5,4,14.1,7.6,21.8,11.7c-3.7,7.1-7.3,13.7-10.7,20.5
		c-2.6,5.3-5.4,10.6-7.4,16.2C606.8,387.5,602.8,391.7,592.2,391.7z"/>
	<path class="st0" d="M812.6,299.8c8.8,17.8,17.3,34.9,26.5,53.2c-9,0-16.5,0-25,0C813.5,335.8,807.2,318.4,812.6,299.8z"/>
	<path class="st0" d="M735.7,390.8c-4.6,0.2-7.4-3.1-9.6-8.3c-4.3-10.2-9.3-20.1-14.2-30c-2.7-5.4-3.1-9.5,3.6-12.3
		c4.2-1.8,8-4.7,11.8-7.1C730.1,352.5,732.9,371.5,735.7,390.8z"/>
	<path class="st0" d="M558.6,426.6c5.5,4.4,5,8.3,1.2,12.9c-7.2,8.9-14,18.2-21.4,27.8c-4-5.9-7.6-11-11.4-16.6
		C537.3,442.8,547.8,434.8,558.6,426.6z"/>
	<path class="st0" d="M806.4,450.4c-3.5,6-6.4,10.8-10.4,17.5c-6.3-8.7-12.1-16.7-17.9-24.7c-1.3-1.8-2.2-4.1-3.8-5.4
		c-4.9-4-3.6-6.9,1.8-10C785.9,435,795.9,442.5,806.4,450.4z"/>
	<path class="st0" d="M486.8,615.5c-2.8-16.5-5.4-31.8-8.2-48.4c1.7,1.9,3.3,3.4,4.5,5c5.1,7.2,10.3,14.4,15,21.8
		c1.2,1.8,1.7,5.4,0.7,7C495.5,605.8,491.4,610,486.8,615.5z"/>
	<path class="st0" d="M847.3,615.2c-4.4-5.5-8.4-9.7-11.3-14.7c-1-1.7,0.1-5.5,1.5-7.7c5.5-8.5,11.5-16.8,18.4-26.8
		C852.9,583.3,850.2,598.5,847.3,615.2z"/>
	<path class="st0" d="M706.9,301.5c2.6,1.8,4.8,3.3,7.5,5.2c-3.5,8.8-6.9,17.3-10.4,26C696.7,326.1,695,323.4,706.9,301.5z"/>
	<path class="st0" d="M629.6,331.4c-2.4-7-5.3-13.9-6.9-21.1c-0.6-2.6,1.8-5.8,2.9-8.7c0.7,0.3,1.3,0.5,2,0.8
		c2.9,6.4,6.5,12.6,8.2,19.3c0.7,2.8-2.8,6.6-4.3,10C630.8,331.6,630.2,331.5,629.6,331.4z"/>
	<path class="st0" d="M798.2,254.2c-6.8-3.8-13.7-7.6-21-11.6c2.1-2.3,3.7-4,4.4-4.8c6.3,4.9,12.4,9.7,18.5,14.4
		C799.5,252.9,798.8,253.5,798.2,254.2z"/>
	<path class="st0" d="M557.2,242.7c-7,3.6-13.3,6.9-19.8,10.2C541.2,242.7,550.5,237.3,557.2,242.7z"/>
</g>
</svg>
